SplineFontDB: 3.2
FontName: AtkinsonHyperPro-Italic
FullName: Atkinson Hyperlegible Pro Italic
FamilyName: Atkinson Hyperlegible Pro
Weight: Regular
Copyright: Copyright 2020 Braille Institute of America, Inc.
UComments: "Update by Jacob Perez+AAoA-https://jacobxperez.github.io/atkinson-hyperlegible-pro/"
Version: 1.4.1
ItalicAngle: -12
UnderlinePosition: -106
UnderlineWidth: 57
Ascent: 800
Descent: 200
InvalidEm: 0
sfntRevision: 0x00010000
LayerCount: 2
Layer: 0 0 "Back" 1
Layer: 1 0 "Fore" 0
XUID: [1021 466 782043844 3810]
StyleMap: 0x0001
FSType: 0
OS2Version: 4
OS2_WeightWidthSlopeOnly: 0
OS2_UseTypoMetrics: 1
CreationTime: 1618935638
ModificationTime: 1700108846
PfmFamily: 81
TTFWeight: 400
TTFWidth: 5
LineGap: 0
VLineGap: 0
Panose: 0 0 0 0 0 0 0 0 0 0
OS2TypoAscent: 950
OS2TypoAOffset: 0
OS2TypoDescent: -290
OS2TypoDOffset: 0
OS2TypoLinegap: 0
OS2WinAscent: 950
OS2WinAOffset: 0
OS2WinDescent: 290
OS2WinDOffset: 0
HheadAscent: 950
HheadAOffset: 0
HheadDescent: -290
HheadDOffset: 0
OS2SubXSize: 650
OS2SubYSize: 699
OS2SubXOff: 0
OS2SubYOff: 140
OS2SupXSize: 650
OS2SupYSize: 699
OS2SupXOff: 0
OS2SupYOff: 479
OS2StrikeYSize: 49
OS2StrikeYPos: 258
OS2CapHeight: 668
OS2XHeight: 496
OS2Vendor: 'NONE'
OS2CodePages: 20000003.00000000
OS2UnicodeRanges: 800000ef.0000204b.00000000.00000000
Lookup: 4 0 1 "'liga' Standard Ligatures lookup 0" { "'liga' Standard Ligatures lookup 0-1"  } ['liga' ('DFLT' <'dflt' > 'grek' <'dflt' > 'latn' <'MOL ' 'dflt' > ) ]
Lookup: 1 0 0 "'zero' Slashed Zero lookup 0" { "'zero' Slashed Zero lookup 0-1"  } ['zero' ('DFLT' <'dflt' > 'grek' <'dflt' > 'latn' <'MOL ' 'dflt' > ) ]
Lookup: 1 0 0 "'aalt' Access All Alternates lookup 0" { "'aalt' Access All Alternates lookup 0 subtable"  } ['aalt' ('DFLT' <'dflt' > 'grek' <'dflt' > 'latn' <'dflt' > ) ]
Lookup: 3 0 0 "'aalt' Access All Alternates lookup 1" { "'aalt' Access All Alternates lookup 1 subtable"  } ['aalt' ('DFLT' <'dflt' > 'grek' <'dflt' > 'latn' <'dflt' > ) ]

StartChar: .notdef
Encoding: 1114112 -1 0
Width: 523
GlyphClass: 1
Flags: W
HStem: 0 21<77 447> 680 20<76 447>
VStem: 48 21<49 650> 455 20<47 652>
DStem2: 76 680 69 650 0.513698 -0.857971<22.1432 360.147 396.696 737.787> 69 49 77 21 0.513896 0.857853<0 339.381 374.897 715.649>
LayerCount: 2
Fore
SplineSet
77 21 m 1
 447 21 l 1
 262 329 l 1
 77 21 l 1
69 49 m 1
 249 350 l 1
 69 650 l 1
 69 49 l 1
455 47 m 1
 455 652 l 1
 274 350 l 1
 455 47 l 1
261 371 m 1
 447 680 l 1
 76 680 l 1
 261 371 l 1
48 0 m 1
 48 700 l 1
 475 700 l 1
 475 0 l 1
 48 0 l 1
EndSplineSet
EndChar

StartChar: zero
Encoding: 48 48 5
Width: 654
GlyphClass: 1
Flags: W
HStem: -12 75<223.274 386.305> 605 75<285.045 448.387>
VStem: 66 92<138.64 419.182> 514 92<249.523 529.68>
DStem2: 270 574 211 503 0.437417 -0.899259<38.0398 446.798>
LayerCount: 2
Fore
SplineSet
158 257 m 0
 158 129.006944352 206.994845292 63 302 63 c 0
 342.828748654 63 378.877596708 74.9029215272 408 98 c 1
 211 503 l 1
 179.98025637 447.964970978 158 345.943403678 158 257 c 0
465 172 m 1
 495.119902419 234.247798332 514 326.336437555 514 411 c 0
 514 539.220783396 464.835121611 605 369 605 c 0
 329.967735117 605 297.9768835 594.982662625 270 574 c 1
 465 172 l 1
606 417 m 0
 606 156.792296197 482.848511166 -12 293 -12 c 0
 145.70327866 -12 66 80.3434462006 66 251 c 0
 66 510.937503266 188.954543079 680 378 680 c 0
 527.055138031 680 606 588.93640922 606 417 c 0
EndSplineSet
Substitution2: "'zero' Slashed Zero lookup 0-1" zero.alt1
Substitution2: "'aalt' Access All Alternates lookup 0 subtable" zero.alt1
Substitution2: "'tnum' Tabular Numbers lookup 14 subtable" zero.tf
EndChar

StartChar: one
Encoding: 49 49 6
Width: 403
GlyphClass: 1
Flags: W
HStem: 0 21G<158 247.251> 503 68<101 245.125> 648 20G<310.528 385>
VStem: 158 85<0 85> 327 58<636.385 668>
DStem2: 158 0 243 0 0.207912 0.978148<17.6725 514.255>
LayerCount: 2
Fore
SplineSet
101 571 m 1
 226.216595582 571 294.056930841 600.117312036 327 668 c 1
 385 668 l 1
 243 0 l 1
 158 0 l 1
 265 503 l 1
 87 503 l 1
 101 571 l 1
EndSplineSet
Substitution2: "'tnum' Tabular Numbers lookup 14 subtable" one.tf
Substitution2: "'sups' Superscript lookup 9 subtable" uni00B9
AlternateSubs2: "'aalt' Access All Alternates lookup 1 subtable" uni00B9 one.tf
EndChar

StartChar: two
Encoding: 50 50 7
Width: 565
GlyphClass: 1
Flags: W
HStem: 0 77<131 463> 498 21G<109 188.919> 610 70<252.88 410.272>
VStem: 455 93<419.766 566.271>
LayerCount: 2
Fore
SplineSet
548 510 m 0
 548 367.859674596 424.710195579 239.83932612 131 77 c 1
 479 77 l 1
 463 0 l 1
 -18 0 l 1
 -2 76 l 1
 323.765574144 258.868405118 455 380.913549513 455 501 c 0
 455 565.030704815 407.96789311 610 341 610 c 0
 262.575342876 610 203.838845877 570.6078583 174 498 c 1
 96 522 l 1
 143.037882315 627.084630704 226.094917666 680 344 680 c 0
 470 680 548 615 548 510 c 0
EndSplineSet
Substitution2: "'tnum' Tabular Numbers lookup 14 subtable" two.tf
Substitution2: "'sups' Superscript lookup 9 subtable" uni00B2
AlternateSubs2: "'aalt' Access All Alternates lookup 1 subtable" uni00B2 two.tf
EndChar

StartChar: three
Encoding: 51 51 8
Width: 580
GlyphClass: 1
Flags: W
HStem: -12 70<178.394 348.433> 315 75<230 352.897> 498 21G<106.6 181.519> 610 70<235.857 402.266>
VStem: 32 86<119.959 159.872> 416 89<120.562 262.666> 446 92<439.545 567.978>
LayerCount: 2
Fore
SplineSet
505 198 m 0xfc
 505 73.1828701488 405.214352111 -12 259 -12 c 0
 135.061757633 -12 51.0094744691 50.9466437792 32 158 c 1
 118 181 l 1
 128.942548848 102.412603729 180.576714159 58 261 58 c 0
 349.957368453 58 416 112.964512707 416 187 c 0xfc
 416 278.940604815 359.093766973 315 214 315 c 1
 230 390 l 1
 386.206974157 390 446 422.111069434 446 506 c 0
 446 569.187621385 395.769380167 610 318 610 c 0
 243.111565187 610 194.03732746 573.111982379 169 498 c 1
 91 523 l 1
 120.962219301 621.875323694 206.853460721 680 323 680 c 0
 454.843790942 680 538 618.116309538 538 520 c 0xfa
 538 437.255367081 490.269730032 376.089910011 403 347 c 1
 471.293419975 324.905070008 505 275.667026638 505 198 c 0xfc
EndSplineSet
Substitution2: "'tnum' Tabular Numbers lookup 14 subtable" three.tf
Substitution2: "'sups' Superscript lookup 9 subtable" uni00B3
AlternateSubs2: "'aalt' Access All Alternates lookup 1 subtable" uni00B3 three.tf
EndChar

StartChar: four
Encoding: 52 52 9
Width: 636
GlyphClass: 1
Flags: W
HStem: 0 21G<320 411.242> 165 79<127 356 459 566> 648 20G<441.811 549>
VStem: 320 87<0 87>
DStem2: 34 244 127 244 0.710419 0.703779<66.0689 503.773> 320 0 407 0 0.207912 0.978148<18.0883 168.879 267.568 564.471>
LayerCount: 2
Fore
SplineSet
127 244 m 1
 372 244 l 1
 438 552 l 1
 127 244 l 1
320 0 m 1
 356 165 l 1
 17 165 l 1
 34 244 l 1
 462 668 l 1
 549 668 l 1
 459 244 l 1
 583 244 l 1
 566 165 l 1
 442 165 l 1
 407 0 l 1
 320 0 l 1
EndSplineSet
Substitution2: "'tnum' Tabular Numbers lookup 14 subtable" four.tf
Substitution2: "'sups' Superscript lookup 9 subtable" uni2074
AlternateSubs2: "'aalt' Access All Alternates lookup 1 subtable" four.tf uni2074
EndChar

StartChar: five
Encoding: 53 53 10
Width: 575
GlyphClass: 1
Flags: W
HStem: -12 72<170.06 331.25> 377 73<206.661 358.229> 587 81<229 543>
VStem: 25 83<126.266 155.94> 410 91<141.503 324.217>
DStem2: 63 329 166 400 0.316228 0.948683<1.89737 42.7977 99.928 297.254>
LayerCount: 2
Fore
SplineSet
108 177 m 1
 128.979819726 100.073994338 176.931607823 60 248 60 c 0
 347.10114633 60 410 129.111086131 410 238 c 0
 410 327.970590536 362.028779229 377 274 377 c 0
 216.013888108 377 168.006468979 351.011021223 141 305 c 1
 63 329 l 1
 176 668 l 1
 561 668 l 1
 543 587 l 1
 229 587 l 1
 166 400 l 1
 202.305724136 433.280247125 247.449056899 450 301 450 c 0
 418.120715401 450 501 365.877526132 501 247 c 0
 501 94.0481895899 399.046335105 -12 252 -12 c 0
 132.02409525 -12 50.0050223338 47.9787053045 25 154 c 1
 108 177 l 1
EndSplineSet
Substitution2: "'tnum' Tabular Numbers lookup 14 subtable" five.tf
Substitution2: "'aalt' Access All Alternates lookup 0 subtable" five.tf
EndChar

StartChar: six
Encoding: 54 54 11
Width: 605
GlyphClass: 1
Flags: W
HStem: -12 70<211.982 363.018> 370 75<236.824 388.556> 610 70<288.894 435.887>
VStem: 62 89<122.73 289.514> 444 90<141.302 313.58>
LayerCount: 2
Fore
SplineSet
151 205 m 0
 151 118.894710193 206.095213984 58 284 58 c 0
 377.396898703 58 444 130.43087266 444 232 c 0
 444 317.238955446 392.768261085 370 310 370 c 0
 215.281640331 370 151 303.292637392 151 205 c 0
534 240 m 0
 534 90.2963186697 431.297743558 -12 281 -12 c 0
 139.04399673 -12 62 75.9497679569 62 238 c 0
 62 494.82260574 191.875548011 680 372 680 c 0
 463.014019194 680 529.003695966 640.989528096 553 573 c 1
 465 548 l 1
 448.914621015 589.218783649 414.726168308 610 363 610 c 0
 263.96385233 610 191.989785624 519.941996936 164 361 c 1
 199.862193903 414.793290855 261.714026915 445 336 445 c 0
 453.917085535 445 534 362.085871388 534 240 c 0
EndSplineSet
Substitution2: "'tnum' Tabular Numbers lookup 14 subtable" six.tf
Substitution2: "'aalt' Access All Alternates lookup 0 subtable" six.tf
EndChar

StartChar: seven
Encoding: 55 55 12
Width: 537
GlyphClass: 1
Flags: W
HStem: 0 21G<31 153.003> 587 81<96 445>
VStem: 31 108<0 108>
DStem2: 31 0 139 0 0.576355 0.817199<62.2464 718.307>
LayerCount: 2
Fore
SplineSet
31 0 m 1
 445 587 l 1
 78 587 l 1
 96 668 l 1
 567 668 l 1
 550 587 l 1
 139 0 l 1
 31 0 l 1
EndSplineSet
Substitution2: "'tnum' Tabular Numbers lookup 14 subtable" seven.tf
Substitution2: "'aalt' Access All Alternates lookup 0 subtable" seven.tf
EndChar

StartChar: eight
Encoding: 56 56 13
Width: 617
GlyphClass: 1
Flags: W
HStem: -12 75<181.377 370.962> 317 74<245.611 372.8> 605 75<264.539 391.83>
VStem: 38 91<110.081 247.186> 137 74<425.794 551.961> 427 74<443.458 570.35> 444 90<130.611 269.253>
LayerCount: 2
Fore
SplineSet
129 174 m 0xfa
 129 105.051715398 183.932421015 63 274 63 c 0
 377.107167087 63 444 118.08821534 444 203 c 0
 444 274.272650539 389.653809897 317 299 317 c 0
 197.475050373 317 129 259.400398804 129 174 c 0xfa
211 487 m 0
 211 433 253 391 307 391 c 0
 372.042378012 391 427 445.041661621 427 509 c 0xfc
 427 563.928590039 385.072935665 605 329 605 c 0
 265 605 211 551 211 487 c 0
534 212 m 0xfa
 534 79.0522344751 425.062505182 -12 266 -12 c 0
 127.331287565 -12 38 57.7410929233 38 166 c 0
 38 258.122414875 91.1193632448 332.043766523 181 365 c 1
 151.715586367 396.304028367 137 434.430774862 137 479 c 0
 137 587 230 680 338 680 c 0
 431.213512462 680 501 609.785374501 501 516 c 0xfc
 501 458.763661672 474.811201678 403.839931857 429 365 c 1
 496.488831264 338.202964057 534 283.54383247 534 212 c 0xfa
EndSplineSet
Substitution2: "'tnum' Tabular Numbers lookup 14 subtable" eight.tf
Substitution2: "'aalt' Access All Alternates lookup 0 subtable" eight.tf
EndChar

StartChar: nine
Encoding: 57 57 14
Width: 601
GlyphClass: 1
Flags: W
HStem: 0 21G<151 269.884> 208.867 79.1332<236.617 333.549> 596 84<267.869 430.05>
VStem: 92 87<346.174 506.871> 151 116<0 116> 487 87<384.05 542.088>
DStem2: 151 0 267 0 0.657239 0.753682<76.2398 279.959>
LayerCount: 2
Fore
SplineSet
179 423 m 0xf4
 179 344.420589554 234.584728968 288 312 288 c 0
 404.938554831 288 487 371.937135344 487 467 c 0
 487 544.00746284 432.992248222 596 353 596 c 0
 254.716602377 596 179 520.71855051 179 423 c 0xf4
359 680 m 0
 481.85616577 680 574 589.141893689 574 468 c 0
 574 389.984209402 540.968233748 332.960949766 384 140 c 0
 362.775919595 113.469899494 272.767413154 5.76741315353 267 0 c 1
 151 0 l 1xec
 335 211 l 1
 309.943031428 209.210216531 305.993236261 208.866756081 304.95338208 208.866756081 c 0
 303.236079834 208.866756081 303.717302247 209 302 209 c 0
 178.115919331 209 92 293.885691912 92 416 c 0
 92 563.162956197 210.164737483 680 359 680 c 0
EndSplineSet
Substitution2: "'tnum' Tabular Numbers lookup 14 subtable" nine.tf
Substitution2: "'aalt' Access All Alternates lookup 0 subtable" nine.tf
EndChar

StartChar: A
Encoding: 65 65 15
Width: 627
GlyphClass: 2
Flags: W
HStem: 0 21G<-52 67.3699 459.123 565> 146 80<184 430> 648 20G<328.263 459.263>
VStem: 462 103<0 103>
DStem2: -52 0 56 0 0.506117 0.862465<54.6606 222.588>
AnchorPoint: "Anchor-2" 565 0 basechar 0
AnchorPoint: "Anchor-1" 387 668 basechar 0
AnchorPoint: "Anchor-0" 261 0 basechar 0
LayerCount: 2
Fore
SplineSet
184 226 m 1
 430 226 l 1
 381 573 l 1
 184 226 l 1
-52 0 m 1
 340 668 l 1
 456 668 l 1
 565 0 l 1
 462 0 l 1
 441 146 l 1
 139 146 l 1
 56 0 l 1
 -52 0 l 1
EndSplineSet
Substitution2: "Single Substitution lookup 12 subtable" ordfeminine
Substitution2: "'aalt' Access All Alternates lookup 0 subtable" ordfeminine
EndChar

StartChar: B
Encoding: 66 66 16
Width: 625
GlyphClass: 1
Flags: W
HStem: 0 79<127 394.377> 308 74<192 428.953> 588 80<235 469.894>
VStem: 468 104<147.219 272.689> 504 100<437.725 556.119>
DStem2: 14 -1.42247e-14 110.208 -1.42247e-14 0.207912 0.978148<100.768 334.951 410.661 621.099>
AnchorPoint: "Anchor-0" 260 0 basechar 0
AnchorPoint: "Anchor-1" 342 668 basechar 0
LayerCount: 2
Fore
SplineSet
468 213 m 0xf0
 468 271.791832063 422.263366817 308 348 308 c 2
 176 308 l 1
 127 79 l 1
 308 79 l 2
 396.679327056 79 468 138.731063591 468 213 c 0xf0
504 499 m 0xe8
 504 552.956738316 463.050570616 588 400 588 c 2
 235 588 l 1
 192 382 l 1
 364 382 l 2
 444.085488356 382 504 432.071413302 504 499 c 0xe8
572 221 m 0xf0
 572 94.1249752082 456.153876667 0 300 0 c 2
 14 0 l 1
 156 668 l 1
 407 668 l 2
 527.413645564 668 604 609.685516927 604 518 c 0xe8
 604 449.035083762 560.035636495 385.016800062 490 352 c 1
 541.969841647 332.011599366 572 284.036590291 572 221 c 0xf0
EndSplineSet
EndChar

StartChar: C
Encoding: 67 67 17
Width: 661
GlyphClass: 2
Flags: W
HStem: -12 79<242.096 427.305> 498 21G<555.485 625.333> 600 80<319.867 500.901>
VStem: 53 96<166.248 399.108>
AnchorPoint: "Anchor-1" 420 668 basechar 0
AnchorPoint: "Anchor-0" 295 0 basechar 0
LayerCount: 2
Fore
SplineSet
595 140 m 1
 533.841183766 40.7422490636 436.684409176 -12 315 -12 c 0
 151.065448596 -12 53 90.9312914654 53 263 c 0
 53 497.281315949 214.248143239 680 421 680 c 0
 542.204030027 680 624.052054325 626.833761995 655 528 c 1
 566 498 l 1
 544.969547219 563.094258607 488.887293142 600 411 600 c 0
 265.810928449 600 149 453.76341782 149 272 c 0
 149 148.766950834 219.199918765 67 325 67 c 0
 410.033657445 67 467.019383029 98.0288767579 516 171 c 1
 595 140 l 1
EndSplineSet
EndChar

StartChar: D
Encoding: 68 68 18
Width: 674
GlyphClass: 2
Flags: W
HStem: 0 79<127 351.679> 588 80<235 449.834>
VStem: 544 95<273.735 502.769>
DStem2: 14 0 110.208 0 0.207912 0.978148<100.768 621.099>
AnchorPoint: "Anchor-1" 378 668 basechar 0
AnchorPoint: "Anchor-0" 285 0 basechar 0
LayerCount: 2
Fore
SplineSet
127 79 m 1
 213 79 l 2
 398.853686853 79 508.978719287 162.872315724 536 325 c 0
 541.498299457 360.189116528 544 385.831547089 544 407 c 0
 544 532.623068868 475.46722335 588 320 588 c 2
 235 588 l 1
 127 79 l 1
14 0 m 1
 156 668 l 1
 340 668 l 2
 541.147665258 668 639 584.874605269 639 414 c 0
 639 382.786344057 636.312962714 350.877776283 631 319 c 0
 597.018475423 115.110852539 441.131678254 0 199 0 c 2
 14 0 l 1
EndSplineSet
EndChar

StartChar: E
Encoding: 69 69 19
Width: 565
GlyphClass: 2
Flags: W
HStem: 0 81<127 469> 304 80<192 439> 587 81<235 594>
DStem2: 14 0 109.783 0 0.207912 0.978148<102.724 330.831 412.617 620.121>
AnchorPoint: "Anchor-2" 438 0 basechar 0
AnchorPoint: "Anchor-1" 380 668 basechar 0
AnchorPoint: "Anchor-0" 230 0 basechar 0
LayerCount: 2
Fore
SplineSet
14 0 m 1
 156 668 l 1
 611 668 l 1
 594 587 l 1
 235 587 l 1
 192 384 l 1
 457 384 l 1
 439 304 l 1
 175 304 l 1
 127 81 l 1
 486 81 l 1
 469 0 l 1
 14 0 l 1
EndSplineSet
EndChar

StartChar: F
Encoding: 70 70 20
Width: 546
GlyphClass: 1
Flags: W
HStem: 0 21G<14 114.276> 304 80<192 514> 587 81<235 574>
VStem: 14 96<0 96>
DStem2: 14 0 110 0 0.207912 0.978148<19.9595 330.831 412.617 620.121>
AnchorPoint: "Anchor-1" 374 668 basechar 0
LayerCount: 2
Fore
SplineSet
14 0 m 1
 156 668 l 1
 592 668 l 1
 574 587 l 1
 235 587 l 1
 192 384 l 1
 531 384 l 1
 514 304 l 1
 175 304 l 1
 110 0 l 1
 14 0 l 1
EndSplineSet
EndChar

StartChar: G
Encoding: 71 71 21
Width: 712
GlyphClass: 2
Flags: W
HStem: -12 75<251.094 415.549> 0 21G<523.537 585.302> 264 80<368 547> 498 21G<557.486 625.333> 600 80<318.358 500.363>
VStem: 54 96<169.693 401.038> 525 56<0 32.5405>
DStem2: 487.798 -12 579.33 -12 0.207912 0.978148<160.078 282.278>
AnchorPoint: "Anchor-1" 445 668 basechar 0
AnchorPoint: "Anchor-0" 303 0 basechar 0
LayerCount: 2
Fore
SplineSet
411 600 m 0xbe
 264.068801028 600 150 457.086214804 150 273 c 0
 150 150.06382293 227.942851004 63 338 63 c 0xbe
 435.766787999 63 515.937766699 133.739098853 542 243 c 2
 547 264 l 1
 351 264 l 1
 368 344 l 1
 655 344 l 1
 581 0 l 1
 525 0 l 1x7e
 519 82 l 1
 463.239282954 19.2691933228 390.388715531 -12 300 -12 c 0
 149.012635145 -12 54 94.9857720941 54 265 c 0
 54 499.931322645 211.93975556 680 418 680 c 0
 544.460935147 680 626.105131551 627.637477412 655 528 c 1
 566 498 l 1
 548.971412495 561.10594193 489.8676968 600 411 600 c 0xbe
EndSplineSet
EndChar

StartChar: H
Encoding: 72 72 22
Width: 694
GlyphClass: 1
Flags: W
HStem: 0 21G<14 114.276 460 560.251> 304 80<192 524> 648 20G<151.749 252 597.775 698>
VStem: 14 96<0 96> 156 96<572 668> 460 96<0 96> 602 96<572 668>
DStem2: 14 0 110 0 0.207912 0.978148<19.9595 330.831 412.617 682.926> 460 0 556 0 0.207912 0.978148<19.9595 310.663 392.657 682.926>
AnchorPoint: "Anchor-0" 294 0 basechar 0
AnchorPoint: "Anchor-1" 417 668 basechar 0
LayerCount: 2
Fore
SplineSet
14 0 m 1
 156 668 l 1
 252 668 l 1
 192 384 l 1
 542 384 l 1
 602 668 l 1
 698 668 l 1
 556 0 l 1
 460 0 l 1
 524 304 l 1
 175 304 l 1
 110 0 l 1
 14 0 l 1
EndSplineSet
EndChar

StartChar: I
Encoding: 73 73 23
Width: 414
GlyphClass: 2
Flags: W
HStem: 0 75<20 113 209 285> 593 75<146 223 318 412>
DStem2: 97.0583 0 193.058 0 0.207912 0.978148<96.6351 606.226>
AnchorPoint: "Anchor-2" 196 0 basechar 0
AnchorPoint: "Anchor-1" 287 668 basechar 0
AnchorPoint: "Anchor-0" 150 0 basechar 0
LayerCount: 2
Fore
SplineSet
4 0 m 1
 20 75 l 1
 113 75 l 1
 223 593 l 1
 130 593 l 1
 146 668 l 1
 427 668 l 1
 412 593 l 1
 318 593 l 1
 209 75 l 1
 301 75 l 1
 285 0 l 1
 4 0 l 1
EndSplineSet
EndChar

StartChar: J
Encoding: 74 74 24
Width: 509
GlyphClass: 1
Flags: W
HStem: -12 77<107.43 250.454> 648 20G<412.736 513>
VStem: -9 87<94.7033 190> 417 96<572 668>
DStem2: 272.175 -12 368.387 -12 0.207912 0.978148<120.767 695.251>
AnchorPoint: "Anchor-1" 466 668 basechar 0
LayerCount: 2
Fore
SplineSet
78 166 m 0
 78 99.1802919815 110.826617052 65 175 65 c 0
 252.966220067 65 297.990461892 110.955777863 320 213 c 2
 417 668 l 1
 513 668 l 1
 416 212 l 2
 381.966884906 51.8441642654 309.857181517 -12 163 -12 c 0
 56.6898564017 -12 -9 53.3079386319 -9 159 c 0
 -9 167 -8 176 -7 190 c 1
 83 214 l 1
 79.1913918737 191.148351242 78 179.710989255 78 166 c 0
EndSplineSet
EndChar

StartChar: K
Encoding: 75 75 25
Width: 623
GlyphClass: 2
Flags: W
HStem: 0 21G<14 114.286 435.815 551> 648 20G<151.749 252 517.895 670>
VStem: 14 96<0 96> 156 96<572 668> 540 130<538 668>
DStem2: 14 0 110 0 0.207912 0.978148<19.9595 234.727 372.598 682.926> 183 345 281 324 0.747249 0.664544<0 59.275 152.12 481.416> 351 385 281 324 0.46099 -0.887405<21.8624 385.445>
AnchorPoint: "Anchor-1" 401 668 basechar 0
AnchorPoint: "Anchor-0" 259 0 basechar 0
LayerCount: 2
Fore
SplineSet
14 0 m 1
 156 668 l 1
 252 668 l 1
 183 345 l 1
 540 668 l 1
 670 668 l 1
 351 385 l 1
 551 0 l 1
 446 0 l 1
 281 324 l 1
 155 210 l 1
 110 0 l 1
 14 0 l 1
EndSplineSet
EndChar

StartChar: L
Encoding: 76 76 26
Width: 541
GlyphClass: 2
Flags: W
HStem: 0 81<127 469> 648 20G<151.749 252>
VStem: 156 96<572 668>
DStem2: 14 0 109.783 0 0.207912 0.978148<102.724 682.926>
AnchorPoint: "Anchor-1" 224 668 basechar 0
AnchorPoint: "Anchor-0" 252 0 basechar 0
LayerCount: 2
Fore
SplineSet
14 0 m 1
 156 668 l 1
 252 668 l 1
 127 81 l 1
 486 81 l 1
 469 0 l 1
 14 0 l 1
EndSplineSet
EndChar

StartChar: M
Encoding: 77 77 27
Width: 824
GlyphClass: 1
Flags: W
HStem: 0 21G<14 114.278 302.496 411.055 590 690.251> 648 20G<151.749 314.288 655.225 828>
VStem: 14 96<0 96> 590 96<0 96>
DStem2: 14 0 110 0 0.207912 0.978148<19.9595 607.968> 312 668 233 575 0.124247 -0.992251<82.4638 545.504> 374 126 400 0 0.483781 0.875189<0 541.023> 590 0 686 0 0.207912 0.978148<19.9595 571.526>
AnchorPoint: "Anchor-1" 473 668 basechar 0
LayerCount: 2
Fore
SplineSet
14 0 m 1
 156 668 l 1
 312 668 l 1
 374 126 l 1
 666 668 l 1
 828 668 l 1
 686 0 l 1
 590 0 l 1
 709 559 l 1
 400 0 l 1
 305 0 l 1
 233 575 l 1
 110 0 l 1
 14 0 l 1
EndSplineSet
EndChar

StartChar: N
Encoding: 78 78 28
Width: 693
GlyphClass: 2
Flags: W
HStem: 0 21G<14 114.271 411.576 559.251> 648 20G<151.749 299.481 596.749 697>
VStem: 14 96<0 96> 601 96<572 668>
DStem2: 14 0 110 0 0.207912 0.978148<19.9595 608.946> 293 668 233 576 0.305795 -0.952097<69.2452 603.382> 459.02 0 555 0 0.207912 0.978148<96.1 682.922>
AnchorPoint: "Anchor-1" 436 668 basechar 0
AnchorPoint: "Anchor-0" 264 0 basechar 0
LayerCount: 2
Fore
SplineSet
14 0 m 1
 156 668 l 1
 293 668 l 1
 479 94 l 1
 601 668 l 1
 697 668 l 1
 555 0 l 1
 418 0 l 1
 233 576 l 1
 110 0 l 1
 14 0 l 1
EndSplineSet
EndChar

StartChar: O
Encoding: 79 79 29
Width: 728
GlyphClass: 2
Flags: W
HStem: -12 79<242.337 419.534> 600 80<321.856 506.259>
VStem: 55 95<164.868 403.134> 596 95<265.988 503.201>
AnchorPoint: "Anchor-2" 407 0 basechar 0
AnchorPoint: "Anchor-1" 438 668 basechar 0
AnchorPoint: "Anchor-0" 311 0 basechar 0
LayerCount: 2
Fore
SplineSet
150 269 m 0
 150 146.82280147 219.153417115 67 325 67 c 0
 480.045183361 67 596 209.055347322 596 399 c 0
 596 521.099449479 526.912950788 600 420 600 c 0
 264.099684946 600 150 460.122238084 150 269 c 0
691 401 m 0
 691 163.721570075 529.74461245 -12 312 -12 c 0
 156.941066591 -12 55 99.0641970645 55 268 c 0
 55 507.89418948 212.902903827 680 433 680 c 0
 588.177462974 680 691 568.808186705 691 401 c 0
EndSplineSet
Substitution2: "Single Substitution lookup 12 subtable" ordmasculine
Substitution2: "'aalt' Access All Alternates lookup 0 subtable" ordmasculine
EndChar

StartChar: P
Encoding: 80 80 30
Width: 597
GlyphClass: 1
Flags: W
HStem: 0 21G<14 114.226> 265 81<184 433.124> 588 80<235 462.232>
VStem: 14 96<0 96> 503 98<405.674 552.143>
DStem2: 14 0 110 0 0.207912 0.978148<19.9595 290.812 373.784 621.099>
AnchorPoint: "Anchor-1" 349 668 basechar 0
LayerCount: 2
Fore
SplineSet
311 346 m 2
 443.253648781 346 503 390.187405589 503 488 c 0
 503 558.197518473 457.700228079 588 351 588 c 2
 235 588 l 1
 184 346 l 1
 311 346 l 2
601 497 m 0
 601 339.812044374 499.745767528 265 287 265 c 2
 166 265 l 1
 110 0 l 1
 14 0 l 1
 156 668 l 1
 342 668 l 2
 519.605492035 668 601 614.260768873 601 497 c 0
EndSplineSet
EndChar

StartChar: Q
Encoding: 81 81 31
Width: 748
GlyphClass: 1
Flags: W
HStem: 5 79<245.337 431.017> 617 79<328.113 509.264>
VStem: 58 95<181.868 419.79> 599 95<285.914 519.784>
DStem2: 399 344 328 284 0.648755 -0.760997<0 202.829 288.493 443.298>
LayerCount: 2
Fore
SplineSet
153 286 m 0
 153 163.82280147 222.153417115 84 328 84 c 0
 379.400783691 84 424.308275142 97.2080857211 464 124 c 1
 328 284 l 1
 399 344 l 1
 531 190 l 1
 572.745471485 248.642448038 599 335.514049743 599 415 c 0
 599 537.903425686 530.084172875 617 423 617 c 0
 268.007552796 617 153 476.00925935 153 286 c 0
694 418 m 0
 694 312.05188117 653.031852003 198.036752311 588 123 c 1
 687 7 l 1
 617 -55 l 1
 517 62 l 1
 460.881293024 23.919448838 393.833421704 5 315 5 c 0
 159.941066591 5 58 116.064197064 58 285 c 0
 58 524.603309795 215.634912159 696 436 696 c 0
 590.992805827 696 694 585.007752015 694 418 c 0
EndSplineSet
EndChar

StartChar: R
Encoding: 82 82 32
Width: 610
GlyphClass: 2
Flags: W
HStem: 0 21G<14 114.27 402.822 518> 281 79<187 270> 588 80<235 466.882>
VStem: 14 96<0 96> 503 98<416.041 555.018>
DStem2: 14 0 110 0 0.207912 0.978148<19.9595 307.294 388.102 621.099> 371 288 270 281 0.454621 -0.890685<0 275.611>
AnchorPoint: "Anchor-1" 374 668 basechar 0
AnchorPoint: "Anchor-0" 252 0 basechar 0
LayerCount: 2
Fore
SplineSet
503 495 m 0
 503 560.950341401 459.080661844 588 352 588 c 2
 235 588 l 1
 187 360 l 1
 311 360 l 2
 447.26681019 360 503 399.187399085 503 495 c 0
601 508 m 0
 601 379.239023756 520.277356423 302.026060335 371 288 c 1
 518 0 l 1
 413 0 l 1
 270 281 l 1
 170 281 l 1
 110 0 l 1
 14 0 l 1
 156 668 l 1
 360 668 l 2
 524.090637917 668 601 616.939842601 601 508 c 0
EndSplineSet
EndChar

StartChar: S
Encoding: 83 83 33
Width: 609
GlyphClass: 2
Flags: W
HStem: -12 79<200.065 382.707> 601 79<231.16 412.836>
VStem: 87 95<441.179 557.62> 446 98<122.719 243.951>
AnchorPoint: "Anchor-1" 356 668 basechar 0
AnchorPoint: "Anchor-0" 277 0 basechar 0
LayerCount: 2
Fore
SplineSet
544 197 m 0
 544 77.7856374441 432.734544986 -12 285 -12 c 0
 164.981131405 -12 70.9944987808 48.0155605915 36 147 c 1
 127 172 l 1
 150.03433985 106.902952598 213.119007767 67 293 67 c 0
 381.961541869 67 446 115.970585629 446 184 c 0
 446 245.236145227 412.517181652 271.137948099 287 307 c 0
 134.907749833 351.026703996 87 396.059988839 87 495 c 0
 87 604.141388507 184.18103202 680 324 680 c 0
 434.048004569 680 527.014822016 630.966868436 561 555 c 1
 469 529 l 1
 446.997719212 572.004457905 386.993055709 601 320 601 c 0
 235.796008139 601 182 560.847906969 182 498 c 0
 182 440.058459044 212.85850773 418.042447681 353 376 c 0
 494.938786836 334.018105302 544 288.039272023 544 197 c 0
EndSplineSet
EndChar

StartChar: T
Encoding: 84 84 34
Width: 558
GlyphClass: 2
Flags: W
HStem: 0 21G<169 270.191> 587 81<90 293 389 611>
VStem: 169 97<0 97>
DStem2: 169 0 266 0 0.207912 0.978148<20.1674 599.954>
AnchorPoint: "Anchor-1" 356 668 basechar 0
AnchorPoint: "Anchor-0" 218 0 basechar 0
LayerCount: 2
Fore
SplineSet
169 0 m 1
 293 587 l 1
 73 587 l 1
 90 668 l 1
 628 668 l 1
 611 587 l 1
 389 587 l 1
 266 0 l 1
 169 0 l 1
EndSplineSet
EndChar

StartChar: U
Encoding: 85 85 35
Width: 693
GlyphClass: 2
Flags: W
HStem: -12 81<200.644 403.744> 648 20G<152.722 253 596.707 697>
VStem: 62 97<108.342 321.969> 157 96<572 668> 601 96<572 668>
DStem2: 11.9335 -12 108.634 -12 0.207912 0.978148<226.458 695.301> 455.634 -12 551.933 -12 0.207912 0.978148<158.237 695.364>
AnchorPoint: "Anchor-2" 352 0 basechar 0
AnchorPoint: "Anchor-1" 415 668 basechar 0
AnchorPoint: "Anchor-0" 294 0 basechar 0
LayerCount: 2
Fore
SplineSet
291 69 m 0xe8
 421.965519819 69 483.991571664 124.961282331 516 272 c 2
 601 668 l 1
 697 668 l 1
 614 280 l 2
 569.958671725 71.8046299709 475.821964086 -12 286 -12 c 0
 132.336705588 -12 62 46.7185890404 62 175 c 0xe8
 62 205.008772605 65.7217179021 237.573804248 74 280 c 2
 157 668 l 1
 253 668 l 1xd8
 169 272 l 2
 162.422944483 242.873039854 159 213.778011747 159 187 c 0
 159 103.931802983 198.076254184 69 291 69 c 0xe8
EndSplineSet
EndChar

StartChar: V
Encoding: 86 86 36
Width: 592
GlyphClass: 1
Flags: W
HStem: 0 21G<175.365 301.138> 648 20G<90 191.222 540.247 662>
VStem: 90 99<569 668>
DStem2: 189 668 90 668 0.130608 -0.991434<0 561.318> 251 110 290 0 0.486531 0.873663<0 633.463>
LayerCount: 2
Fore
SplineSet
178 0 m 1
 90 668 l 1
 189 668 l 1
 251 110 l 1
 551 668 l 1
 662 668 l 1
 290 0 l 1
 178 0 l 1
EndSplineSet
EndChar

StartChar: W
Encoding: 87 87 37
Width: 844
GlyphClass: 1
Flags: W
HStem: 0 21G<115.222 235.893 482.601 613.281> 648 20G<90 190.444 427.333 549.181 794.926 914>
VStem: 90 100<488.154 668> 116 86<128 179.846> 472 77<200.364 551> 483 71<117 350.636>
DStem2: 202 128 227 0 0.406292 0.913743<0 496.212> 554 117 604 0 0.420952 0.907083<0 605.041>
AnchorPoint: "Anchor-1" 488 668 basechar 0
LayerCount: 2
Fore
SplineSet
116 0 m 1xd8
 90 668 l 1
 190 668 l 1xe0
 202 128 l 1
 436 668 l 1
 549 668 l 1xd8
 554 117 l 1
 804 668 l 1
 914 668 l 1
 604 0 l 1
 483 0 l 1xc4
 472 551 l 1
 227 0 l 1
 116 0 l 1xd8
EndSplineSet
EndChar

StartChar: X
Encoding: 88 88 38
Width: 624
GlyphClass: 1
Flags: W
HStem: 0 21G<-52 91.4848 439 552> 648 20G<116 227.878 547.469 691>
VStem: -52 125<0 125> 566 125<543 668>
DStem2: -52 0 73 0 0.679101 0.734045<84.8876 444.376 576.029 910.026> 218 668 116 668 0.447214 -0.894427<0 273.248 405.623 700.784>
AnchorPoint: "Anchor-1" 379 668 basechar 0
AnchorPoint: "Anchor-0" 269 0 basechar 0
LayerCount: 2
Fore
SplineSet
-52 0 m 1
 274 351 l 1
 116 668 l 1
 218 668 l 1
 339 423 l 1
 566 668 l 1
 691 668 l 1
 383 336 l 1
 552 0 l 1
 449 0 l 1
 317 264 l 1
 73 0 l 1
 -52 0 l 1
EndSplineSet
EndChar

StartChar: Y
Encoding: 89 89 39
Width: 598
GlyphClass: 2
Flags: W
HStem: 0 21G<177 278.25> 648 20G<90 192.172 538.332 668>
VStem: 90 96<572 668> 177 97<0 97> 554 114<554 668>
DStem2: 186 668 90 668 0.308885 -0.951099<0 352.645> 177 0 274 0 0.207912 0.978148<20.1674 245.567> 290 331 325 240 0.625362 0.780335<0 428.068>
AnchorPoint: "Anchor-1" 362 668 basechar 0
AnchorPoint: "Anchor-0" 226 0 basechar 0
LayerCount: 2
Fore
SplineSet
177 0 m 1xd8
 229 240 l 1
 90 668 l 1
 186 668 l 1xe8
 290 331 l 1
 554 668 l 1
 668 668 l 1
 325 240 l 1
 274 0 l 1
 177 0 l 1xd8
EndSplineSet
EndChar

StartChar: Z
Encoding: 90 90 40
Width: 613
GlyphClass: 2
Flags: W
HStem: 0 81<123 506> 587 81<145 500>
DStem2: -1 81 123 81 0.703587 0.710609<87.2448 712.065>
AnchorPoint: "Anchor-1" 388 668 basechar 0
AnchorPoint: "Anchor-0" 254 0 basechar 0
LayerCount: 2
Fore
SplineSet
-18 0 m 1
 -1 81 l 1
 500 587 l 1
 128 587 l 1
 145 668 l 1
 640 668 l 1
 623 587 l 1
 123 81 l 1
 524 81 l 1
 506 0 l 1
 -18 0 l 1
EndSplineSet
EndChar

StartChar: a
Encoding: 97 97 41
Width: 521
GlyphClass: 2
Flags: W
HStem: -12 69<117.784 256.524> 0 21G<327.73 410.5> 436 68<206.052 355.551>
VStem: 5 94<76.4813 182.108> 329 79<0 63> 377 85<309.313 414.016>
AnchorPoint: "Anchor-2" 408 0 basechar 0
AnchorPoint: "Anchor-1" 311 496 basechar 0
AnchorPoint: "Anchor-0" 208 0 basechar 0
LayerCount: 2
Fore
SplineSet
99 125 m 0xb0
 99 83.2679108944 130.676010196 57 181 57 c 0
 272.359590287 57 342.06653543 122.399212578 359 224 c 2
 362 241 l 1
 153.264112479 221.025273921 99 197.091292752 99 125 c 0xb0
325 63 m 1
 278.266920644 10.30099562 227.420650631 -12 154 -12 c 0
 65.0310054521 -12 5 39.9731523713 5 117 c 0
 5 220.021127866 97.0393637131 279.004100387 289 299 c 0
 320 302 347 305 370 308 c 1
 375.514718626 335.573593129 377 345.970562748 377 357 c 0
 377 409.690673025 346.361290106 436 285 436 c 0
 226.265941707 436 182.109404648 409.22792635 158 359 c 1
 83 382 l 1
 120.159762555 461.341114645 189.393035508 504 281 504 c 0
 401.122408581 504 462 455.903339376 462 361 c 0xb4
 462 283 413 174 408 0 c 1
 329 0 l 1x78
 325 63 l 1
EndSplineSet
Substitution2: "Single Substitution lookup 12 subtable" ordfeminine
Substitution2: "'aalt' Access All Alternates lookup 0 subtable" ordfeminine
EndChar

StartChar: b
Encoding: 98 98 42
Width: 555
GlyphClass: 1
Flags: W
HStem: -12 72<191.741 323.199> 0 21G<7 81> 432 72<244.314 374.698> 648 20G<144.749 235>
VStem: 149 86<582 668> 419 90<177.12 382.971>
DStem2: 4.46154 -12 90.05 -12 0.207912 0.978148<469.669 695.192>
AnchorPoint: "Anchor-1" 333 496 basechar 0
AnchorPoint: "Anchor-0" 266 0 basechar 0
LayerCount: 2
Fore
SplineSet
138 211 m 0xbc
 138 120.453294603 185.642000382 60 257 60 c 0
 348.084430882 60 419 161.120348557 419 291 c 0
 419 381.321698076 378.744894925 432 307 432 c 0
 214.23518124 432 138 332.307839917 138 211 c 0xbc
509 293 m 0
 509 119.895049126 403.916403483 -12 266 -12 c 0xbc
 196.893575847 -12 145.947760773 19.0967962139 112 82 c 1
 71 0 l 1
 7 0 l 1x7c
 149 668 l 1
 235 668 l 1
 184 430 l 1
 222.103330405 479.133241837 269.14854855 504 324 504 c 0
 441.744205652 504 509 427.29203996 509 293 c 0
EndSplineSet
EndChar

StartChar: c
Encoding: 99 99 43
Width: 495
GlyphClass: 2
Flags: W
HStem: -12 74<163.709 319.142> 430 74<218.191 366.563>
VStem: 26 92<110.566 310.486>
AnchorPoint: "Anchor-1" 301 496 basechar 0
AnchorPoint: "Anchor-0" 195 0 basechar 0
LayerCount: 2
Fore
SplineSet
436 99 m 1
 391.972255829 27.9552309967 314.941450124 -12 222 -12 c 0
 99.0098037429 -12 26 63.9897957324 26 192 c 0
 26 372.044119839 141.038459627 504 298 504 c 0
 387.166744331 504 449.063403277 466.862004632 483 393 c 1
 400 364 l 1
 387.030735238 403.905430037 345.121274388 430 294 430 c 0
 191.135156452 430 118 333.179025834 118 197 c 0
 118 108.548219759 160.410600225 62 241 62 c 0
 291.516550252 62 332.689291352 83.582485254 365 127 c 1
 436 99 l 1
EndSplineSet
EndChar

StartChar: d
Encoding: 100 100 44
Width: 555
GlyphClass: 2
Flags: W
HStem: -12 72<161.924 295.573> 0 21G<359.361 442.52> 432 72<210.072 348.665> 648 20G<476.778 567>
VStem: 27 90<110.459 318.19> 398 44<0 281> 481 86<582 668>
DStem2: 336.852 -12 425.218 -12 0.207912 0.978148<419.16 695.11>
AnchorPoint: "Anchor-1" 271 496 basechar 0
AnchorPoint: "Anchor-0" 225 0 basechar 0
LayerCount: 2
Fore
SplineSet
280 432 m 0xbe
 186.978539784 432 117 331.969326566 117 199 c 0
 117 113.779690772 159.172563268 60 226 60 c 0
 324.031676248 60 398 155.040695054 398 281 c 0
 398 376.987288528 355.009934081 432 280 432 c 0xbe
356 61 m 1
 317.128424849 11.1646472417 269.212510691 -12 205 -12 c 0xbe
 96.7522572095 -12 27 70.2919888426 27 198 c 0
 27 372.659968356 131.728652684 504 271 504 c 0
 344.910401427 504 403.975712329 463.078934931 424 398 c 1
 481 668 l 1
 567 668 l 1
 566 662 469 214 452 114 c 0
 446.22234097 84.1487616791 443.040869209 47.879983598 442 0 c 1
 361 0 l 1x7e
 356 61 l 1
EndSplineSet
EndChar

StartChar: e
Encoding: 101 101 45
Width: 542
GlyphClass: 2
Flags: W
HStem: -12 74<168.179 334.818> 225 68<128 421.965> 432 72<214.649 374.204>
VStem: 27 88<115.669 224.046> 422 87<293.224 383.974>
AnchorPoint: "Anchor-2" 337 10 basechar 0
AnchorPoint: "Anchor-1" 321 496 basechar 0
AnchorPoint: "Anchor-0" 218 0 basechar 0
LayerCount: 2
Fore
SplineSet
422 310 m 2
 422 385.076017096 373.922148664 432 297 432 c 0
 214.542631041 432 145.900940316 375.543224788 128 293 c 1
 421 293 l 1
 421.866106581 294.732213162 422 295.937253933 422 302 c 2
 422 310 l 2
449 87 m 1
 399.151057905 22.1963752764 326.267874235 -12 238 -12 c 0
 107 -12 27 68 27 199 c 0
 27 379.810325618 141.824551395 504 309 504 c 0
 432.264832482 504 509 425.730129132 509 300 c 0
 509 276 506 251 500 225 c 1
 116 225 l 1
 115.140175425 221.5607017 115 219.598245749 115 211 c 2
 115 197 l 2
 115 111.868374227 164.129583498 62 248 62 c 0
 299.419220986 62 340.249686347 78.2657951438 371 111 c 1
 449 87 l 1
EndSplineSet
EndChar

StartChar: f
Encoding: 102 102 46
Width: 320
GlyphClass: 1
Flags: W
HStem: 0 21G<37 127.252> 428 68<59 128 228 315> 635 71<264.569 359>
VStem: 37 86<0 86>
DStem2: 37 0 123 0 0.207912 0.978148<17.8804 437.567 524.872 659.337>
AnchorPoint: "Anchor-1" 170 668 basechar 0
LayerCount: 2
Fore
SplineSet
37 0 m 1
 128 428 l 1
 44 428 l 1
 59 496 l 1
 142 496 l 1
 154 549 l 1
 184.965912517 679.855952895 209.875369707 702.996691231 323 706 c 1
 374 706 l 1
 359 635 l 1
 335 635 l 2
 274.944427141 635 256.987065028 620.946412259 243 563 c 2
 228 496 l 1
 330 496 l 1
 315 428 l 1
 214 428 l 1
 123 0 l 1
 37 0 l 1
EndSplineSet
EndChar

StartChar: g
Encoding: 103 103 47
Width: 555
GlyphClass: 2
Flags: W
HStem: -190 73<113.472 274.622> 16 73<174.133 303.767> 432 74<204.243 347.985> 476 20G<455.744 528>
VStem: 32 89<143.241 335.896>
AnchorPoint: "Anchor-1" 314 496 basechar 0
AnchorPoint: "Anchor-0" 172 -251 basechar 0
LayerCount: 2
Fore
SplineSet
121 226 m 0xe8
 121 141.929120638 170.065681175 89 248 89 c 0
 330.987923035 89 400 182.983552182 400 296 c 0
 400 378.129076102 350.882392916 432 276 432 c 0
 185.354082689 432 121 346.471348168 121 226 c 0xe8
266 506 m 0
 339.09093407 506 401.031047367 471.932937686 426 418 c 1
 466 496 l 1
 528 496 l 1xd8
 518 450 440 77 421 -6 c 0
 393.043004404 -129.809551925 314.206602305 -190 180 -190 c 0
 92.463756258 -190 19.1227813658 -145.357667457 -4 -78 c 1
 86 -53 l 1
 93.9292986494 -91.6553309159 133.530344093 -117 186 -117 c 0
 275.271660298 -117 319.069659687 -77.6941031126 342 23 c 2
 355 80 l 1
 323.036271492 39.0464728486 274.062516688 16 219 16 c 0
 109.08008494 16 32 100.911751325 32 222 c 0
 32 387.02991564 130.024646972 506 266 506 c 0
EndSplineSet
EndChar

StartChar: h
Encoding: 104 104 48
Width: 548
GlyphClass: 1
Flags: W
HStem: 0 21G<7 97.2023 333 422.306> 430 74<250.995 383.187> 648 20G<144.749 235>
VStem: 7 86<0 86> 149 86<582 668> 333 85<0 85> 401 88<230.688 412.664>
DStem2: 7 0 93 0 0.207912 0.978148<17.8804 398.518 454.469 682.926> 333 0 418 0 0.207912 0.978148<17.6725 357.571>
AnchorPoint: "Anchor-0" 224 0 basechar 0
AnchorPoint: "Anchor-1" 190 668 basechar 0
LayerCount: 2
Fore
SplineSet
318 430 m 0xfa
 230.652847218 430 170.905172919 369.553522493 147 257 c 2
 93 0 l 1
 7 0 l 1
 149 668 l 1
 235 668 l 1
 184 427 l 1
 224.812787784 479.757993965 278.648931057 504 355 504 c 0
 443.181250675 504 489 456.813526815 489 366 c 0xfa
 489 343 486 317 480 288 c 2
 418 0 l 1
 333 0 l 1xfc
 392 280 l 2
 398 309 401 333 401 352 c 0
 401 407.223138054 376.763082801 430 318 430 c 0xfa
EndSplineSet
EndChar

StartChar: i
Encoding: 105 105 49
Width: 270
GlyphClass: 1
Flags: W
HStem: 0 21G<46 136.234> 428 68<71 137> 591 125<182.2 276.631>
VStem: 46 86<0 86> 167 125<606.2 700.631>
DStem2: 46 0 132 0 0.207912 0.978148<17.8804 437.567>
AnchorPoint: "Anchor-2" 132 0 basechar 0
LayerCount: 2
Fore
SplineSet
46 0 m 1
 137 428 l 1
 57 428 l 1
 71 496 l 1
 237 496 l 1
 132 0 l 1
 46 0 l 1
292 653 m 0
 292 618.77750275 263.774473012 591 229 591 c 0
 195 591 167 619 167 653 c 0
 167 687.774473012 194.77750275 716 229 716 c 0
 264 716 292 688 292 653 c 0
EndSplineSet
Substitution2: "Single Substitution lookup 4 subtable" dotlessi
Substitution2: "Single Substitution lookup 3 subtable" dotlessi
EndChar

StartChar: j
Encoding: 106 106 50
Width: 258
GlyphClass: 1
Flags: W
HStem: -161 75<-138 -3.54934> 476 20G<128.735 219> 591 126<163.293 258.707>
VStem: 133 86<410 496> 148 126<606.293 701.707>
DStem2: -6.98484 -161 79.0779 -161 0.207912 0.978148<88.9287 671.747>
LayerCount: 2
Fore
SplineSet
274 654 m 256xe8
 274 619 246 591 211 591 c 256
 176 591 148 619 148 654 c 256
 148 689 176 717 211 717 c 256
 246 717 274 689 274 654 c 256xe8
-85 -161 m 0
 -103.633357109 -161 -111.409469465 -160.774605439 -154 -159 c 1
 -138 -86 l 1
 -106 -86 l 2
 -6.11611070341 -86 12.9801978651 -72.0990106744 30 13 c 1
 133 496 l 1
 219 496 l 1xf0
 115 8 l 1
 86.0049360759 -133.975830249 54.0236700983 -161 -85 -161 c 0
EndSplineSet
EndChar

StartChar: k
Encoding: 107 107 51
Width: 487
GlyphClass: 2
Flags: W
HStem: 0 21G<7 97.2169 310.741 415> 476 20G<365.725 500> 648 20G<144.749 235>
VStem: 7 86<0 86> 149 86<582 668> 388 112<384 496>
DStem2: 7 0 93 0 0.207912 0.978148<17.8804 187.53 309.127 682.926> 153 285 202 232 0.748075 0.663615<0 1.48408 87.1869 315.82> 266 289 202 232 0.458251 -0.888823<21.3348 282.074>
AnchorPoint: "Anchor-1" 360 796 basechar 0
AnchorPoint: "Anchor-0" 221 0 basechar 0
LayerCount: 2
Fore
SplineSet
7 0 m 1
 149 668 l 1
 235 668 l 1
 153 285 l 1
 388 496 l 1
 500 496 l 1
 266 289 l 1
 415 0 l 1
 321 0 l 1
 202 232 l 1
 128 166 l 1
 93 0 l 1
 7 0 l 1
EndSplineSet
EndChar

StartChar: l
Encoding: 108 108 52
Width: 259
GlyphClass: 2
Flags: W
HStem: 0 75<119.364 182> 648 20G<144.764 235>
VStem: 27 90.9969<77.0176 189.5> 149 86<582 668>
DStem2: 7.43043 0 93.2421 0 0.207912 0.978148<126.202 682.837>
AnchorPoint: "Anchor-1" 205 668 basechar 0
AnchorPoint: "Anchor-0" 97 0 basechar 0
LayerCount: 2
Fore
SplineSet
118 104 m 0
 118 83.0464824304 129.93099119 75 161 75 c 2
 198 75 l 1
 182 0 l 1
 126 0 l 2
 53.7983460964 0 27 18.1362544289 27 67 c 0
 27 87.232820424 29.2790085677 106.116034271 34 125 c 2
 149 668 l 1
 235 668 l 1
 123 140 l 1
 118.237968328 110.237302052 117.996942494 108.959865131 117.996942494 105.351833213 c 0
 117.996942494 104.945462668 118 104.509527625 118 104 c 0
EndSplineSet
EndChar

StartChar: m
Encoding: 109 109 53
Width: 846
GlyphClass: 1
Flags: W
HStem: 0 21G<8 98.2222 319 409.222 630 720.2> 431 73<247.102 373.146 552.049 684.177> 476 20G<108.766 178.739>
VStem: 8 86<0 86> 113 64<462.933 496> 319 86<0 86> 630 86<0 86> 700 88<239.195 415.389>
DStem2: 8 0 94 0 0.207912 0.978148<17.8804 402.841> 319 0 405 0 0.207912 0.978148<17.8804 361.953> 630 0 716 0 0.207912 0.978148<17.8804 363.901>
AnchorPoint: "Anchor-1" 469 496 basechar 0
LayerCount: 2
Fore
SplineSet
313 431 m 0xdd
 232.18313319 431 173.05001866 372.231904695 151 270 c 2
 94 0 l 1
 8 0 l 1
 113 496 l 1
 177 496 l 1xbd
 183 427 l 1
 228.066634101 481.079960921 275.09736364 504 341 504 c 0
 412.943193734 504 453.983398353 477.048223832 475 416 c 1
 521 477 575 504 651 504 c 0
 741.992366571 504 788 460.007299422 788 373 c 0xdd
 788 351.166344915 785.046242947 327.20809326 779 300 c 2
 716 0 l 1
 630 0 l 1xde
 691 289 l 2
 697 317 700 340 700 358 c 0
 700 408.806862992 677.198831842 431 625 431 c 0
 542.853975564 431 484.959221714 373.815611228 462 270 c 1
 405 0 l 1
 319 0 l 1
 380 289 l 2
 386.056737907 316.255320579 389 338.16627172 389 356 c 0
 389 407.158020851 364.840127796 431 313 431 c 0xdd
EndSplineSet
EndChar

StartChar: n
Encoding: 110 110 54
Width: 550
GlyphClass: 2
Flags: W
HStem: 0 21G<8 98.2023 334 423.321> 430 74<251.57 384.208> 476 20G<108.766 178.739>
VStem: 8 86<0 86> 113 64<462.933 496> 334 85<0 85> 402 88<229.875 412.364>
DStem2: 8 0 94 0 0.207912 0.978148<17.8804 398.518> 334 0 419 0 0.207912 0.978148<17.6725 357.578>
AnchorPoint: "Anchor-1" 328 496 basechar 0
AnchorPoint: "Anchor-0" 212 0 basechar 0
LayerCount: 2
Fore
SplineSet
319 430 m 0xda
 231.652847218 430 171.905172919 369.553522493 148 257 c 2
 94 0 l 1
 8 0 l 1
 113 496 l 1
 177 496 l 1xba
 183 427 l 1
 224.045654335 479.05790306 280.084391617 504 356 504 c 0
 444.345655624 504 490 456.642135311 490 365 c 0xda
 490 342 487 316 481 287 c 2
 419 0 l 1
 334 0 l 1xdc
 393 279 l 2
 399.053691544 309.268457722 402 333.166292973 402 352 c 0
 402 407.223138054 377.763082801 430 319 430 c 0xda
EndSplineSet
EndChar

StartChar: o
Encoding: 111 111 55
Width: 547
GlyphClass: 2
Flags: W
HStem: -12 74<164.318 311.887> 430 74<211.109 367.851>
VStem: 27 88<113.62 316.186> 413 89<183.372 384.821>
AnchorPoint: "Anchor-2" 307 0 basechar 0
AnchorPoint: "Anchor-1" 321 496 basechar 0
AnchorPoint: "Anchor-0" 221 0 basechar 0
LayerCount: 2
Fore
SplineSet
115 198 m 0
 115 112.08194916 159.926454394 62 237 62 c 0
 339.179981104 62 413 162.244230205 413 301 c 0
 413 387 372 430 290 430 c 0
 186.32952068 430 115 335.437435441 115 198 c 0
502 298 m 0
 502 122.742572599 383.774258881 -12 230 -12 c 0
 103.002369658 -12 27 66.9975369354 27 199 c 0
 27 376.958335343 141.962293264 504 303 504 c 0
 423.3764685 504 502 422.610816638 502 298 c 0
EndSplineSet
Substitution2: "Single Substitution lookup 12 subtable" ordmasculine
Substitution2: "'aalt' Access All Alternates lookup 0 subtable" ordmasculine
EndChar

StartChar: p
Encoding: 112 112 56
Width: 556
GlyphClass: 1
Flags: W
HStem: -162 21G<-26 64.2353> -12 71<195.13 325.781> 432 72<240.947 374.542> 476 20G<109.745 178.515>
VStem: -26 86<-162 -76> 114 63<463.1 496> 420 90<177.981 382.859>
DStem2: -26 -162 60 -162 0.207912 0.978148<17.8804 278.535>
AnchorPoint: "Anchor-1" 328 496 basechar 0
LayerCount: 2
Fore
SplineSet
139 209 m 0xee
 139 119.871861918 188.103301947 59 260 59 c 0
 350.042020645 59 420 163.06249429 420 297 c 0
 420 381.911525581 378.074091782 432 307 432 c 0
 214.168103289 432 139 332.223291467 139 209 c 0xee
269 -12 m 0
 192.546690362 -12 137.166216157 25.5158051065 114 93 c 1
 60 -162 l 1
 -26 -162 l 1
 114 496 l 1
 177 496 l 1xde
 182 430 l 1
 215.091143218 478.132571953 267.17555915 504 331 504 c 0
 441.6424389 504 510 423.422092782 510 293 c 0
 510 118.176312816 407.139372496 -12 269 -12 c 0
EndSplineSet
EndChar

StartChar: q
Encoding: 113 113 57
Width: 555
GlyphClass: 1
Flags: W
HStem: -174 82<422.658 533.356> -12 72<162.318 297.044> 433 72<212.472 344.343> 476 20G<457.744 530>
VStem: 28 90<109.141 314.55> 328 90<-86.8844 48.2707>
LayerCount: 2
Fore
SplineSet
352 59 m 1xdc
 326.963553483 15.9373119912 269.908479698 -12 207 -12 c 0
 97.0214276457 -12 28 68.9748592492 28 198 c 0
 28 374.936218646 130.949507716 505 271 505 c 0xec
 342.52947962 505 397.800721157 474.371987174 428 418 c 1
 468 496 l 1
 530 496 l 1
 471.195641589 221.579660749 418 -37.7490919977 418 -50 c 0
 418 -78 435 -92 469 -92 c 0
 491.692715817 -92 518.963224728 -86.6789250906 551 -76 c 1
 534 -154 l 1
 517.96230655 -165.025914247 478.925033525 -174 447 -174 c 256
 371.083311911 -174 328 -137.071446934 328 -72 c 0
 328 -58 328 -58 352 59 c 1xdc
118 198 m 0
 118 109.315523284 158.738910539 60 232 60 c 0
 322.267118225 60 396 159.359554099 396 281 c 0
 396 376 351 433 276 433 c 0
 187.961698911 433 118 328.94304276 118 198 c 0
EndSplineSet
EndChar

StartChar: r
Encoding: 114 114 58
Width: 353
GlyphClass: 2
Flags: W
HStem: 0 21G<8 123.791> 415 89<269.265 364> 476 20G<108.766 177.72>
VStem: 8 86<0 33.0667> 113 63<462.933 496>
AnchorPoint: "Anchor-1" 240 496 basechar 0
AnchorPoint: "Anchor-0" 51 0 basechar 0
LayerCount: 2
Fore
SplineSet
184 403 m 1xb8
 234.735661197 475.621632693 287.558760738 504 372 504 c 2
 383 504 l 1
 364 415 l 1
 353 415 l 2xd8
 284.035206817 415 231.017881295 391.024012025 196 344 c 0
 154.401824517 287.545333273 153.581056358 284.777252422 94 0 c 1
 8 0 l 1
 113 496 l 1
 176 496 l 1
 184 403 l 1xb8
EndSplineSet
EndChar

StartChar: s
Encoding: 115 115 59
Width: 479
GlyphClass: 2
Flags: W
HStem: -12 68<140.628 291.64> 435 69<157.45 317.143>
VStem: 49 85<325.426 412.113> 325 88<88.7672 181.207>
AnchorPoint: "Anchor-1" 260 496 basechar 0
AnchorPoint: "Anchor-0" 207 0 basechar 0
LayerCount: 2
Fore
SplineSet
413 143 m 0
 413 48.7248247189 334.645387459 -12 213 -12 c 0
 107.979999019 -12 42.9937169875 28.0161835171 10 113 c 1
 96 142 l 1
 104.960520508 90.2281037298 152.720665248 56 216 56 c 0
 279.123505996 56 325 90.0917065536 325 137 c 0
 325 177.059351039 300.861073452 194.038426492 207 220 c 0
 87.0984489333 252.972926543 49 287.936692969 49 365 c 0
 49 446.754080978 127.661658513 504 240 504 c 0
 333.112774165 504 410.025390445 462.926246804 431 402 c 1
 351 374 l 1
 338.962432722 410.112701833 290.819790367 435 233 435 c 256
 173.29967462 435 134 409.19718333 134 370 c 0
 134 329.0116267 153.969066028 316.008513937 263 286 c 0
 373.099303929 254.972014347 413 216.93335076 413 143 c 0
EndSplineSet
EndChar

StartChar: t
Encoding: 116 116 60
Width: 324
GlyphClass: 2
Flags: W
HStem: 0 75<153.114 222> 428 68<63 132 232 313>
VStem: 60 91<42.5 193.57> 173 86<534 620>
DStem2: 40.3049 0 126.204 0 0.207912 0.978148<125.222 437.712 525.017 634.04>
AnchorPoint: "Anchor-1" 213 620 basechar 0
AnchorPoint: "Anchor-0" 109 0 basechar 0
LayerCount: 2
Fore
SplineSet
194 75 m 2
 238 75 l 1
 222 0 l 1
 160 0 l 2
 85 0 60 17 60 68 c 0
 60 83.3410863197 62.724101051 103.620505255 69 135 c 2
 132 428 l 1
 49 428 l 1
 63 496 l 1
 146 496 l 1
 173 620 l 1
 259 620 l 1
 232 496 l 1
 327 496 l 1
 313 428 l 1
 218 428 l 1
 160 159 l 2
 153.249742265 128.141678926 151 114.393253973 151 104 c 0
 151 81.0348663543 159.948250112 75 194 75 c 2
EndSplineSet
EndChar

StartChar: u
Encoding: 117 117 61
Width: 540
GlyphClass: 2
Flags: W
HStem: -11 73<142.552 269.941> 0 21G<341.286 412.234> 476 20G<106.768 197 423.692 513>
VStem: 40 86<78.3462 263.312> 111 86<410 496> 343 65<0 33.0667> 428 85<411 496>
DStem2: 3.5129 -11 89.0878 -11 0.207912 0.978148<172.032 518.269> 319.499 -11 405.662 -11 0.207912 0.978148<137.002 518.48>
AnchorPoint: "Anchor-2" 408 0 basechar 0
AnchorPoint: "Anchor-1" 308 496 basechar 0
AnchorPoint: "Anchor-0" 217 0 basechar 0
LayerCount: 2
Fore
SplineSet
337 70 m 1x76
 293.129349246 12.1705058248 246.216226342 -11 173 -11 c 0
 87.4203724399 -11 40 38.559637362 40 128 c 0xb6
 40 151 43 176 49 203 c 2
 111 496 l 1
 197 496 l 1xae
 135 205 l 2
 128.943262093 177.744679421 126 155.83372828 126 138 c 0
 126 85.8440342175 150.15777151 62 203 62 c 0xb6
 289.348044604 62 347.100166123 121.460764168 372 236 c 2
 428 496 l 1
 513 496 l 1
 408 0 l 1
 343 0 l 1
 337 70 l 1x76
EndSplineSet
EndChar

StartChar: v
Encoding: 118 118 62
Width: 444
GlyphClass: 1
Flags: W
HStem: 0 21G<112.097 215.411> 476 20G<43 132.435 378.016 487>
VStem: 43 87<409 496>
DStem2: 130 496 43 496 0.143656 -0.989628<0 388.748> 177 110 204 0 0.495573 0.868566<0 440.328>
LayerCount: 2
Fore
SplineSet
115 0 m 1
 43 496 l 1
 130 496 l 1
 177 110 l 1
 389 496 l 1
 487 496 l 1
 204 0 l 1
 115 0 l 1
EndSplineSet
EndChar

StartChar: w
Encoding: 119 119 63
Width: 658
GlyphClass: 1
Flags: W
HStem: 0 21G<78.5081 163.65 368.85 462.04> 476 20G<43 130.95 309.391 410.093 595.383 701>
VStem: 43 87<402.162 496>
DStem2: 147 138 154 0 0.43456 0.900643<0 322.88> 409 496 347 400 0.0574052 -0.998351<92.2826 366.545> 429 130 452 0 0.448654 0.893705<0 406.059>
AnchorPoint: "Anchor-1" 360 496 basechar 0
LayerCount: 2
Fore
SplineSet
80 0 m 1
 43 496 l 1
 130 496 l 1
 147 138 l 1
 319 496 l 1
 409 496 l 1
 429 130 l 1
 605 496 l 1
 701 496 l 1
 452 0 l 1
 370 0 l 1
 347 400 l 1
 154 0 l 1
 80 0 l 1
EndSplineSet
EndChar

StartChar: x
Encoding: 120 120 64
Width: 462
GlyphClass: 1
Flags: W
HStem: 0 21G<-63 64.4865 299.054 399> 476 20G<61 161.058 377.404 505>
VStem: -63 109<0 109> 396 109<387 496>
DStem2: -63 0 46 0 0.679201 0.733952<74.033 325.958 442.295 675.794> 151 496 61 496 0.447214 -0.894427<0 191.407 307.683 514.296>
AnchorPoint: "Anchor-1" 263 496 basechar 0
AnchorPoint: "Anchor-0" 182 0 basechar 0
LayerCount: 2
Fore
SplineSet
-63 0 m 1
 179 262 l 1
 61 496 l 1
 151 496 l 1
 237 325 l 1
 396 496 l 1
 505 496 l 1
 275 248 l 1
 399 0 l 1
 309 0 l 1
 217 185 l 1
 46 0 l 1
 -63 0 l 1
EndSplineSet
EndChar

StartChar: y
Encoding: 121 121 65
Width: 435
GlyphClass: 2
Flags: W
HStem: -161 75<-46 75.559> 476 20G<43 134.073 367.326 478>
VStem: 43 89<407 496>
DStem2: 116 0 191 -21 0.485356 0.874317<-103.553 0 123.355 560.824>
AnchorPoint: "Anchor-1" 266 496 basechar 0
AnchorPoint: "Anchor-0" 305 0 basechar 0
LayerCount: 2
Fore
SplineSet
-62 -161 m 1
 -46 -86 l 1
 -12 -86 l 2
 64.8025327351 -86 77.9018401672 -77.198902819 116 0 c 1
 43 496 l 1
 132 496 l 1
 172 110 l 1
 378 496 l 1
 478 496 l 1
 191 -21 l 1
 123.142139611 -145.738713951 100.250210537 -161 -19 -161 c 2
 -62 -161 l 1
EndSplineSet
EndChar

StartChar: z
Encoding: 122 122 66
Width: 467
GlyphClass: 2
Flags: W
HStem: 0 73<101 375> 424 73<99 355>
DStem2: -6 73 101 73 0.716967 0.697107<76.7155 503.51>
AnchorPoint: "Anchor-1" 289 496 basechar 0
AnchorPoint: "Anchor-0" 181 0 basechar 0
LayerCount: 2
Fore
SplineSet
-21 0 m 1
 -6 73 l 1
 355 424 l 1
 83 424 l 1
 99 497 l 1
 476 497 l 1
 460 424 l 1
 101 73 l 1
 390 73 l 1
 375 0 l 1
 -21 0 l 1
EndSplineSet
EndChar

StartChar: circumflex
Encoding: 710 710 67
Width: 429
GlyphClass: 1
Flags: W
HStem: 575 120<345 347.422>
VStem: 114 96<575 671>
DStem2: 114 575 210 575 0.796393 0.60478<76.4537 177.057>
LayerCount: 2
Fore
SplineSet
114 575 m 1
 247 676 l 2
 262.640293522 688.707738487 280.523563086 695 301 695 c 0
 320.396763052 695 335.218288623 688.742022537 346 676 c 2
 437 575 l 1
 345 575 l 1
 290 636 l 1
 210 575 l 1
 114 575 l 1
EndSplineSet
EndChar

StartChar: caron
Encoding: 711 711 68
Width: 429
GlyphClass: 1
Flags: W
HStem: 562 120<225.578 227>
VStem: 362 97<585 682>
DStem2: 281 621 326 581 0.796393 0.60478<0 101.399>
LayerCount: 2
Fore
SplineSet
273 562 m 0
 252.762449795 562 237.873131087 568.149935988 227 581 c 2
 136 682 l 1
 227 682 l 1
 281 621 l 1
 362 682 l 1
 459 682 l 1
 326 581 l 2
 309.115914723 568.088640671 292.131811799 562 273 562 c 0
EndSplineSet
EndChar

StartChar: breve
Encoding: 728 728 69
Width: 400
GlyphClass: 1
Flags: W
HStem: 562 67<219.899 332.402>
VStem: 136 69<645.692 682>
LayerCount: 2
Fore
SplineSet
430 682 m 1
 399.026857796 607.06497854 337.062512304 562 265 562 c 0
 191.949993241 562 136 614.046505341 136 682 c 1
 205 682 l 1
 211.904867405 648.462072607 236.507864851 629 272 629 c 0
 308.387790053 629 339.230803898 647.36718802 361 682 c 1
 430 682 l 1
EndSplineSet
EndChar

StartChar: dotaccent
Encoding: 729 729 70
Width: 216
GlyphClass: 1
Flags: W
HStem: 583 108<138.676 224.846>
VStem: 128 108<593.676 679.846>
LayerCount: 2
Fore
SplineSet
236 637 m 0
 236 607 212 583 182 583 c 0
 152 583 128 607 128 637 c 0
 128 667 152 691 182 691 c 0
 213 691 236 668 236 637 c 0
EndSplineSet
EndChar

StartChar: ring
Encoding: 730 730 71
Width: 329
GlyphClass: 1
Flags: W
HStem: 552 58<201.168 285.074> 712 58<201.168 285.074>
VStem: 134 57<620.195 701.805> 295 57<619.966 702.034>
LayerCount: 2
Fore
SplineSet
191 661 m 0
 191 632.278315609 213.715145327 610 243 610 c 0
 272.284854673 610 295 632.278315609 295 661 c 0
 295 689.721684391 272.284854673 712 243 712 c 0
 213.715145327 712 191 689.721684391 191 661 c 0
352 661 m 0
 352 599.939240579 304.940378514 552 245 552 c 0
 183.949533375 552 134 601.049541782 134 661 c 0
 134 720.950458218 183.949533375 770 245 770 c 0
 304.940378514 770 352 722.060759421 352 661 c 0
EndSplineSet
EndChar

StartChar: ogonek
Encoding: 731 731 72
Width: 270
GlyphClass: 1
Flags: W
HStem: -173 57<48.4232 121.125> -20 20G<43.5 155>
VStem: -30 77<-112.438 -51.1213>
LayerCount: 2
Fore
SplineSet
47 -89 m 0
 47 -104.902563943 63.8516621612 -116 88 -116 c 0
 101.16718427 -116 116.199378876 -112.925232922 132 -107 c 1
 121 -161 l 1
 94.7673366406 -169.071588726 72.8337070273 -173 54 -173 c 0
 2.79833366221 -173 -30 -146.839424341 -30 -106 c 0
 -30 -60 11 -19 76 0 c 1
 155 0 l 1
 85.8495306619 -25.0545178761 47 -57.0694088845 47 -89 c 0
EndSplineSet
EndChar

StartChar: quoteleft
Encoding: 8216 8216 73
Width: 238
GlyphClass: 1
Flags: W
HStem: 418 250
VStem: 95 129<434.598 530.822> 196 61<607 668>
DStem2: 105 517 181 543 0.516163 0.85649<61.4971 176.301>
LayerCount: 2
Fore
SplineSet
224 482 m 0xc0
 224 445.214034008 197.211185273 418 161 418 c 0
 123.714956986 418 95 446.27988188 95 483 c 0xc0
 95 495.403309919 98.2169398879 506.340905538 105 517 c 2
 196 668 l 1
 257 668 l 1xa0
 181 543 l 1
 209.932909854 532.025447987 224 512.069808477 224 482 c 0xc0
EndSplineSet
EndChar

StartChar: quoteright
Encoding: 8217 8217 74
Width: 238
GlyphClass: 1
Flags: W
HStem: 429 251
VStem: 91 61<429 490> 123 130<567.531 662.825>
DStem2: 91 429 152 429 0.510955 0.859607<31.1683 146.632>
LayerCount: 2
Fore
SplineSet
188 680 m 0xa0
 225.289513134 680 253 652.715828316 253 616 c 0xa0
 253 603.738541114 247.662138162 589.059421059 237 572 c 2
 152 429 l 1
 91 429 l 1xc0
 166 555 l 1
 138.967434743 565.012061206 123 588.034874091 123 617 c 0
 123 650.961546498 152.960309169 680 188 680 c 0xa0
EndSplineSet
EndChar

StartChar: quotesinglbase
Encoding: 8218 8218 75
Width: 239
GlyphClass: 1
Flags: W
HStem: -133 251
VStem: -28 61<-133 -72> 4 130<7.10938 101.169>
DStem2: -28 -133 33 -133 0.513637 0.858008<31.3319 145.774>
LayerCount: 2
Fore
SplineSet
67 118 m 0xa0
 105.06925575 118 134 89.9328600562 134 53 c 0xa0
 134 42 129 27 121 14 c 2
 33 -133 l 1
 -28 -133 l 1xc0
 47 -8 l 1
 19.6408164855 4.15963711754 4 26.3477721319 4 53 c 0
 4 89.0555719824 32.0538302325 118 67 118 c 0xa0
EndSplineSet
EndChar

StartChar: quotedblleft
Encoding: 8220 8220 76
Width: 395
GlyphClass: 1
Flags: W
HStem: 418 250
VStem: 95 129<434.598 530.822> 196 61<607 668> 252 129<434.598 530.822> 353 61<607 668>
DStem2: 105 517 181 543 0.516163 0.85649<61.4971 176.301> 262 517 338 543 0.516163 0.85649<61.4971 176.301>
LayerCount: 2
Fore
SplineSet
381 482 m 0x90
 381 445.214034008 354.211185273 418 318 418 c 0
 280.714956986 418 252 446.27988188 252 483 c 0x90
 252 495.403309919 255.216939888 506.340905538 262 517 c 2
 353 668 l 1
 414 668 l 1x88
 338 543 l 1
 366.932909854 532.025447987 381 512.069808477 381 482 c 0x90
224 482 m 0xc0
 224 445.214034008 197.211185273 418 161 418 c 0
 123.714956986 418 95 446.27988188 95 483 c 0xc0
 95 495.403309919 98.2169398879 506.340905538 105 517 c 2
 196 668 l 1
 257 668 l 1xa0
 181 543 l 1
 209.932909854 532.025447987 224 512.069808477 224 482 c 0xc0
EndSplineSet
EndChar

StartChar: quotedblright
Encoding: 8221 8221 77
Width: 394
GlyphClass: 1
Flags: W
HStem: 429 250
VStem: 89 61<429 490> 122 129<566.178 662.402> 246 61<429 490> 279 129<566.178 662.402>
DStem2: 89 429 150 429 0.516163 0.85649<31.4859 146.29> 246 429 307 429 0.516163 0.85649<31.4859 146.29>
LayerCount: 2
Fore
SplineSet
185 679 m 0xa0
 222.285043014 679 251 650.72011812 251 614 c 0xa0
 251 601.596690081 247.783060112 590.659094462 241 580 c 2
 150 429 l 1
 89 429 l 1xc0
 165 554 l 1
 136.067090146 564.974552013 122 584.930191523 122 615 c 0
 122 650.778045516 149.780986445 679 185 679 c 0xa0
342 679 m 0
 379.285043014 679 408 650.72011812 408 614 c 0x88
 408 601.596690081 404.783060112 590.659094462 398 580 c 2
 307 429 l 1
 246 429 l 1x90
 322 554 l 1
 293.067090146 564.974552013 279 584.930191523 279 615 c 0x88
 279 650.778045516 306.780986445 679 342 679 c 0
EndSplineSet
EndChar

StartChar: dagger
Encoding: 8224 8224 79
Width: 541
GlyphClass: 1
Flags: W
HStem: 0 21G<168 254.221> 417 79<84 257 355 527> 648 20G<306.698 391>
VStem: 168 82<0 82> 311 80<588 668>
DStem2: 168 0 250 0 0.207912 0.978148<17.0488 426.392 524.041 683.134>
LayerCount: 2
Fore
SplineSet
168 0 m 1
 257 417 l 1
 67 417 l 1
 84 496 l 1
 274 496 l 1
 311 668 l 1
 391 668 l 1
 355 496 l 1
 544 496 l 1
 527 417 l 1
 338 417 l 1
 250 0 l 1
 168 0 l 1
EndSplineSet
EndChar

StartChar: daggerdbl
Encoding: 8225 8225 80
Width: 541
GlyphClass: 1
Flags: W
HStem: 0 21G<168 254.162> 173 79<32 205 303 475> 417 79<84 257 354 527> 648 20G<306.698 391>
VStem: 168 82<0 82> 311 80<588 668>
DStem2: 168 0 250 0 0.207912 0.978148<17.0488 176.912 274.561 426.392 523.833 683.134>
LayerCount: 2
Fore
SplineSet
168 0 m 1
 205 173 l 1
 15 173 l 1
 32 252 l 1
 222 252 l 1
 257 417 l 1
 67 417 l 1
 84 496 l 1
 274 496 l 1
 311 668 l 1
 391 668 l 1
 354 496 l 1
 544 496 l 1
 527 417 l 1
 337 417 l 1
 303 252 l 1
 492 252 l 1
 475 173 l 1
 286 173 l 1
 250 0 l 1
 168 0 l 1
EndSplineSet
EndChar

StartChar: bullet
Encoding: 8226 8226 81
Width: 446
GlyphClass: 1
Flags: W
HStem: 88 332<132.23 297.77>
VStem: 49 332<171.23 336.77>
LayerCount: 2
Fore
SplineSet
381 254 m 0
 381 162 307 88 215 88 c 0
 123 88 49 162 49 254 c 0
 49 346 123 420 215 420 c 0
 307 420 381 346 381 254 c 0
EndSplineSet
EndChar

StartChar: ellipsis
Encoding: 8230 8230 82
Width: 699
GlyphClass: 1
Flags: W
HStem: -12 129<20.7473 116.07 251.397 347.07 481.93 577.253>
VStem: 4 129<4.74728 100.07> 235 129<4.66907 100.15> 465 129<4.74728 100.07>
LayerCount: 2
Fore
SplineSet
364 52 m 0
 364 16.7766548885 334.773709879 -12 299 -12 c 0
 263 -12 235 16 235 52 c 0
 235 88.7815066631 262.78436267 117 299 117 c 0
 335 117 364 88 364 52 c 0
133 52 m 0
 133 16.7766548885 103.773709879 -12 68 -12 c 0
 33 -12 4 17 4 52 c 0
 4 87.7737098788 32.7766548885 117 68 117 c 0
 104 117 133 88 133 52 c 0
594 52 m 0
 594 17 565 -12 530 -12 c 0
 494.226290121 -12 465 16.7766548885 465 52 c 0
 465 88 494 117 530 117 c 0
 565.223345111 117 594 87.7737098788 594 52 c 0
EndSplineSet
EndChar

StartChar: perthousand
Encoding: 8240 8240 83
Width: 1406
GlyphClass: 1
Flags: W
HStem: -12 74<692.214 819.114 1093.21 1220.11> 0 21G<234 336.012> 277 74<692.014 819.414 1093.01 1220.41> 316 75<204.277 331.158> 605 75<204.277 331.158> 648 20G<687.988 790>
VStem: 86 74<434.577 561.423> 234 88<0 88> 375 74<434.669 561.331> 574 74<105.686 232.986> 702 88<580 668> 863 74<105.886 232.887> 975 74<105.686 232.986> 1264 74<105.886 232.887>
DStem2: 234 0 322 0 0.573791 0.819001<50.4936 815.627>
LayerCount: 2
Fore
SplineSet
1049 169 m 0xa3fc
 1049 109.277527708 1096.71937376 62 1157 62 c 0
 1216 62 1264 110 1264 169 c 0
 1264 229.280626239 1216.72247229 277 1157 277 c 0
 1096 277 1049 230 1049 169 c 0xa3fc
648 169 m 0
 648 109.277527708 695.719373761 62 756 62 c 0
 815 62 863 110 863 169 c 0
 863 229.280626239 815.722472292 277 756 277 c 0
 695 277 648 230 648 169 c 0
1338 169 m 0
 1338 69 1257 -12 1157 -12 c 0
 1056.2236618 -12 975 68.7773779462 975 169 c 0
 975 270 1056 351 1157 351 c 0
 1257.72267481 351 1338 270.279153675 1338 169 c 0
937 169 m 0
 937 69 856 -12 756 -12 c 0
 655.223661802 -12 574 68.7773779462 574 169 c 0
 574 270 655 351 756 351 c 0
 856.722674808 351 937 270.279153675 937 169 c 0
160 498 m 0
 160 438.77761825 208.224138047 391 268 391 c 0
 327 391 375 439 375 498 c 0
 375 557 327 605 268 605 c 0x1bfc
 208.224138047 605 160 557.22238175 160 498 c 0
234 0 m 1x47fc
 702 668 l 1
 790 668 l 1
 322 0 l 1
 234 0 l 1x47fc
449 498 m 0
 449 397.223661802 368.222622054 316 268 316 c 0
 167 316 86 397 86 498 c 0
 86 599 167 680 268 680 c 0x1bfc
 368.222622054 680 449 598.776338198 449 498 c 0
EndSplineSet
EndChar

StartChar: guilsinglleft
Encoding: 8249 8249 84
Width: 355
GlyphClass: 1
Flags: W
VStem: 217 104<357 461>
DStem2: 45 250 140 240 0.633619 0.773645<52.4573 272.222> 140 240 45 250 0.44036 -0.897821<0 183.087>
LayerCount: 2
Fore
SplineSet
148 40 m 1
 45 250 l 1
 217 461 l 1
 321 461 l 1
 140 240 l 1
 237 40 l 1
 148 40 l 1
EndSplineSet
EndChar

StartChar: guilsinglright
Encoding: 8250 8250 85
Width: 347
GlyphClass: 1
Flags: W
VStem: 9 104<40 144>
DStem2: 9 40 113 40 0.633619 0.773645<65.8964 285.661> 182 461 93 461 0.44036 -0.897821<0 183.087>
LayerCount: 2
Fore
SplineSet
9 40 m 1
 190 261 l 1
 93 461 l 1
 182 461 l 1
 285 251 l 1
 113 40 l 1
 9 40 l 1
EndSplineSet
EndChar

StartChar: fraction
Encoding: 8260 8260 86
Width: 444
GlyphClass: 1
Flags: W
HStem: 0 21G<-47 55.012> 648 20G<406.988 509>
VStem: -47 88<0 88> 421 88<580 668>
DStem2: -47 0 41 0 0.573791 0.819001<50.4936 815.627>
LayerCount: 2
Fore
SplineSet
-47 0 m 1
 421 668 l 1
 509 668 l 1
 41 0 l 1
 -47 0 l 1
EndSplineSet
EndChar

StartChar: ordfeminine
Encoding: 170 170 87
Width: 363
GlyphClass: 1
Flags: W
HStem: 396 51<146.405 231.125> 643 48<175.26 270.761>
VStem: 72 73<448.56 508.059> 255 59<403 441> 275 67<539.141 636.463>
LayerCount: 2
Fore
SplineSet
179 447 m 0xe0
 223.296339247 447 245.092684393 466.344256317 259 518 c 2
 262 529 l 1
 239 526 l 2
 169.641416745 517.95842513 145 504.851288563 145 476 c 0
 145 456.689943974 156.360623969 447 179 447 c 0xe0
252 441 m 1
 233 411 202 396 159 396 c 0
 107.020831555 396 72 424.982757149 72 468 c 0
 72 531.830133519 123.604464957 559.954566921 272 577 c 1
 274 585 275 593 275 601 c 0
 275 629 257 643 221 643 c 0
 195.837589387 643 175.929670352 629.846553495 165 606 c 1
 108 624 l 1
 129.889084978 668.773128364 170.69364037 691 231 691 c 0
 303.139599844 691 342 660.891942222 342 605 c 0xe8
 342 535 314 473 314 403 c 1
 255 403 l 1xf0
 252 441 l 1
EndSplineSet
EndChar

StartChar: guillemotleft
Encoding: 171 171 88
Width: 563
GlyphClass: 1
Flags: W
VStem: 217 104<357 461> 425 104<357 461>
DStem2: 45 250 140 240 0.633619 0.773645<52.4573 272.222> 140 240 45 250 0.44036 -0.897821<0 183.087> 253 250 348 240 0.633619 0.773645<52.4573 272.222> 348 240 253 250 0.44036 -0.897821<0 183.087>
LayerCount: 2
Fore
SplineSet
148 40 m 1
 45 250 l 1
 217 461 l 1
 321 461 l 1
 140 240 l 1
 237 40 l 1
 148 40 l 1
356 40 m 1
 253 250 l 1
 425 461 l 1
 529 461 l 1
 348 240 l 1
 445 40 l 1
 356 40 l 1
EndSplineSet
EndChar

StartChar: logicalnot
Encoding: 172 172 89
Width: 667
GlyphClass: 1
Flags: W
HStem: 317 79<75 490>
VStem: 490 81<90 317>
LayerCount: 2
Fore
SplineSet
490 90 m 1
 490 317 l 1
 75 317 l 1
 75 396 l 1
 571 396 l 1
 571 90 l 1
 490 90 l 1
EndSplineSet
EndChar

StartChar: registered
Encoding: 174 174 90
Width: 814
GlyphClass: 1
Flags: W
HStem: -12 61<312.515 519.485> 301 58<357 399> 469 61<357 477.996> 619 61<312.442 519.558>
VStem: 70 62<229.663 437.073> 281 76<162 301 359 469> 491 76<371.977 456.343> 501 86<162 248> 700 62<229.663 437.073>
DStem2: 479 311 399 301 0.586879 -0.809675<0 133.553>
LayerCount: 2
Fore
SplineSet
491 413 m 0xfe80
 491 452.03489206 464.946441377 469 405 469 c 2
 357 469 l 1
 357 359 l 1
 410 359 l 2
 464.501162797 359 491 376.665891469 491 413 c 0xfe80
567 414 m 0
 567 361.971587001 537.967806219 327.990723826 479 311 c 1
 587 162 l 1
 501 162 l 1xfd80
 399 301 l 1
 357 301 l 1
 357 162 l 1
 281 162 l 1
 281 530 l 1
 393 530 l 2
 520.250141563 530 567 498.833427709 567 414 c 0
132 333 m 0
 132 176 259 49 416 49 c 0
 573 49 700 176 700 333 c 0
 700 491.052820271 572.947555794 619 416 619 c 0
 259.052444206 619 132 491.052820271 132 333 c 0
762 333 m 0
 762 142.775961367 606.775412658 -12 416 -12 c 0
 225.224587342 -12 70 142.775961367 70 333 c 0
 70 524.776061509 224.776607256 680 416 680 c 0
 607.223392744 680 762 524.776061509 762 333 c 0
EndSplineSet
EndChar

StartChar: macron
Encoding: 175 175 91
Width: 382
GlyphClass: 1
Flags: W
HStem: 601 67<133 395>
VStem: 119 290
LayerCount: 2
Fore
SplineSet
119 601 m 1
 133 668 l 1
 409 668 l 1
 395 601 l 1
 119 601 l 1
EndSplineSet
EndChar

StartChar: degree
Encoding: 176 176 92
Width: 358
GlyphClass: 1
Flags: W
HStem: 408 63<172.339 273.849> 617 63<172.151 276.172>
VStem: 87 63<493.339 594.849> 296 63<493.151 597.172>
LayerCount: 2
Fore
SplineSet
150 544 m 0
 150 504 183 471 223 471 c 0
 264 471 296 503 296 544 c 0
 296 586 265 617 223 617 c 0
 182 617 150 585 150 544 c 0
359 544 m 0
 359 469 298 408 223 408 c 0
 148 408 87 469 87 544 c 0
 87 619 148 680 223 680 c 0
 298 680 359 619 359 544 c 0
EndSplineSet
EndChar

StartChar: plusminus
Encoding: 177 177 93
Width: 653
GlyphClass: 1
Flags: W
HStem: 0 79<65 538> 270 79<65 262 341 538> 476 20G<262 341>
VStem: 262 79<124 270 349 496>
LayerCount: 2
Fore
SplineSet
65 0 m 1
 65 79 l 1
 538 79 l 1
 538 0 l 1
 65 0 l 1
262 124 m 1
 262 270 l 1
 65 270 l 1
 65 349 l 1
 262 349 l 1
 262 496 l 1
 341 496 l 1
 341 349 l 1
 538 349 l 1
 538 270 l 1
 341 270 l 1
 341 124 l 1
 262 124 l 1
EndSplineSet
EndChar

StartChar: uni00B2
Encoding: 178 178 94
Width: 384
GlyphClass: 1
Flags: W
HStem: 403 58<168 335> 676 21G<119 185.464> 736 50<203.653 302.14>
VStem: 312 70<619.787 725.672>
LayerCount: 2
Fore
SplineSet
382 689 m 0
 382 611.018690534 305.032847694 529.016303965 168 461 c 1
 347 461 l 1
 335 403 l 1
 59 403 l 1
 71 457 l 1
 248.363600584 555.201315577 312 615.140994696 312 684 c 0
 312 715.100068587 289.894303313 736 257 736 c 0
 220.799746023 736 191.928662135 713.791473932 179 676 c 1
 119 695 l 1
 142.796988226 753.500929388 192.438425754 786 258 786 c 0
 334.850580745 786 382 749.11698655 382 689 c 0
EndSplineSet
EndChar

StartChar: uni00B3
Encoding: 179 179 95
Width: 394
GlyphClass: 1
Flags: W
HStem: 396 51<171.033 280.442> 483 20G<87 156.556> 572 54<205 285.802> 736 50<199.863 308.141>
VStem: 87 64<466.126 487.859> 298 69<465.048 558.225> 317 68<642.243 726.224>
LayerCount: 2
Fore
SplineSet
367 519 m 0xfc
 367 446.102010741 307.121987164 396 220 396 c 0
 154.883285027 396 105.966033487 429.101899538 87 486 c 1
 151 503 l 1
 162.111604213 466.634749848 187.356282589 447 223 447 c 0
 268.72762939 447 298 472.759686137 298 513 c 0xfc
 298 553.030870306 271.957635505 572 217 572 c 2
 194 572 l 1
 205 626 l 1
 221 626 l 1
 291.158473967 630.009055655 317 645.083279175 317 682 c 0
 317 716.889913516 296.120461063 736 258 736 c 0
 220.075431306 736 196.035911533 720.07381815 178 683 c 1
 120 701 l 1
 145.953131114 755.900854281 195.882302249 786 261 786 c 0
 340.128915148 786 385 750.899232011 385 689 c 0
 385 649.852809801 360.83547645 618.936434083 317 602 c 1xfa
 348.949651378 587.023600916 367 557.060022204 367 519 c 0xfc
EndSplineSet
EndChar

StartChar: acute
Encoding: 180 180 96
Width: 271
GlyphClass: 1
Flags: W
HStem: 572 135
VStem: 113 184
LayerCount: 2
Fore
SplineSet
259 707 m 0
 282 707 297 692 297 669 c 0
 297 647.086590875 288.354256377 639.234844115 199 580 c 2
 187 572 l 1
 113 572 l 1
 128 589 l 2
 148.245447051 611.674900697 215.385132198 680.714765612 234 698 c 0
 240.760666424 703.794856935 249.663841605 707 259 707 c 0
EndSplineSet
EndChar

StartChar: uni03BC
Encoding: 956 956 97
Width: 543
GlyphClass: 1
Flags: W
HStem: -162 21G<-26 66.1748> -12 69<152.9 282.298> 0 21G<344.529 415.283> 475 20G<109.738 202 426.769 517>
VStem: -26 88<-162 -74> 114 88<407 495> 346 65<0 32.6887> 431 86<409 495>
DStem2: -26 -162 62 -162 0.207912 0.978148<18.2962 228.735 329.957 671.751> 291.615 -162 376.566 -162 0.207912 0.978148<277.125 671.623>
LayerCount: 2
Fore
SplineSet
195 -12 m 0xdf
 154.874911897 -12 120.950345581 9.10861904116 105 44 c 1
 62 -162 l 1
 -26 -162 l 1
 114 495 l 1
 202 495 l 1
 138 196 l 2
 133.957333029 174.775998403 132 156.833778969 132 141 c 0
 132 82.7823934565 160.2378595 57 224 57 c 0xdf
 299.882068049 57 350.961055701 116.816182908 376 235 c 2
 431 495 l 1
 517 495 l 1
 411 0 l 1
 346 0 l 1xbf
 341 68 l 1
 298.55473232 9.76114434619 258.840643888 -12 195 -12 c 0xdf
EndSplineSet
EndChar

StartChar: paragraph
Encoding: 182 182 98
Width: 522
GlyphClass: 1
Flags: W
HStem: -162 21G<91 178.252 268 355.226> 600 68<336 429 512 553>
VStem: 91 83<-162 -79> 268 83<-162 -79>
DStem2: 91 -162 174 -162 0.207912 0.978148<17.2567 467.729> 268 -162 351 -162 0.207912 0.978148<17.2567 778.822>
LayerCount: 2
Fore
SplineSet
74 438 m 0
 74 556.965813679 186.965215648 668 308 668 c 2
 568 668 l 1
 553 600 l 1
 512 600 l 1
 351 -162 l 1
 268 -162 l 1
 429 600 l 1
 336 600 l 1
 174 -162 l 1
 91 -162 l 1
 188 294 l 1
 118.591190425 310.094796423 74 366.420510644 74 438 c 0
EndSplineSet
EndChar

StartChar: periodcentered
Encoding: 183 183 99
Width: 235
GlyphClass: 1
Flags: W
HStem: 183 129<69.7473 165.07>
VStem: 53 129<199.93 295.253>
LayerCount: 2
Fore
SplineSet
182 248 m 0
 182 212 153 183 117 183 c 0
 81.7766548885 183 53 212.226290121 53 248 c 0
 53 283 82 312 117 312 c 0
 152.773709879 312 182 283.223345111 182 248 c 0
EndSplineSet
EndChar

StartChar: cedilla
Encoding: 184 184 100
Width: 294
GlyphClass: 1
Flags: W
HStem: -181 41<-10.4677 106.203> -82 39<60.915 112.393>
VStem: 113 63<-131.879 -83.6402>
DStem2: 30 -57 87 -45 0.638336 0.769758<45.6222 106.527>
LayerCount: 2
Fore
SplineSet
176 -96 m 0
 176 -144.070817014 126.905909677 -181 63 -181 c 0
 38 -181 9 -175 -24 -163 c 1
 -1 -126 l 1
 20.0048699946 -135.547668179 38.1322209786 -140 56 -140 c 0
 87.3340053791 -140 113 -123.789898134 113 -104 c 0
 113 -90.0855921853 100.136557887 -82 78 -82 c 0
 60 -82 61 -87 43 -87 c 0
 32.4337374367 -87 25 -80.3922333896 25 -71 c 0
 25 -66.3785440263 26.4450338664 -62.3324492005 30 -57 c 2
 98 25 l 1
 128 4 l 1
 87 -45 l 1
 96.0820425478 -43.486326242 101.674794331 -43 110 -43 c 0
 151.548303311 -43 176 -62.635453402 176 -96 c 0
EndSplineSet
EndChar

StartChar: uni00B9
Encoding: 185 185 101
Width: 257
GlyphClass: 1
Flags: W
HStem: 682 48<126 198.488>
VStem: 139 69<403 472>
DStem2: 139 403 208 403 0.207912 0.978148<14.3459 285.378>
LayerCount: 2
Fore
SplineSet
126 730 m 1
 184 730 214 744 231 779 c 1
 288 779 l 1
 208 403 l 1
 139 403 l 1
 199 682 l 1
 116 682 l 1
 126 730 l 1
EndSplineSet
EndChar

StartChar: ordmasculine
Encoding: 186 186 102
Width: 383
GlyphClass: 1
Flags: W
HStem: 399 53<172.338 265.188> 639 53<185.807 278.669>
VStem: 87 69<467.71 607.7> 295 69<483.193 624.518>
LayerCount: 2
Fore
SplineSet
156 529 m 0
 156 481.258019305 178.798456601 452 216 452 c 0
 262.986487309 452 295 496.981011503 295 563 c 0
 295 609.933354484 272.052648277 639 235 639 c 0
 188.158977064 639 156 594.221677506 156 529 c 0
364 567 m 0
 364 466.818111726 301.833397584 399 210 399 c 0
 134.306175896 399 87 446.690778952 87 523 c 0
 87 623.980520281 148.982247791 692 241 692 c 0
 316.884039549 692 364 644.117926371 364 567 c 0
EndSplineSet
EndChar

StartChar: guillemotright
Encoding: 187 187 103
Width: 555
GlyphClass: 1
Flags: W
VStem: 9 104<40 144> 217 104<40 144>
DStem2: 9 40 113 40 0.633619 0.773645<65.8964 285.661> 182 461 93 461 0.44036 -0.897821<0 183.087> 217 40 321 40 0.633619 0.773645<65.8964 285.661> 390 461 301 461 0.44036 -0.897821<0 183.087>
LayerCount: 2
Fore
SplineSet
9 40 m 1
 190 261 l 1
 93 461 l 1
 182 461 l 1
 285 251 l 1
 113 40 l 1
 9 40 l 1
217 40 m 1
 398 261 l 1
 301 461 l 1
 390 461 l 1
 493 251 l 1
 321 40 l 1
 217 40 l 1
EndSplineSet
EndChar

StartChar: onequarter
Encoding: 188 188 104
Width: 824
GlyphClass: 1
Flags: W
HStem: 0 21G<100 202.012 574 648.186> 86 57<492 592 674 727> 571 47<122 194.488> 647 21G<218.5 284 553.988 656>
VStem: 100 88<0 88> 136 68<292 360> 568 88<580 668> 574 70<0 70>
DStem2: 73.9335 0 141.933 0 0.207912 0.978148<312.661 583.693 636.658 684.249> 100 0 188 0 0.573791 0.819001<50.4936 815.627> 411 140 492 143 0.708606 0.705604<59.5139 264.571> 574 0 644 0 0.207912 0.978148<14.5538 87.8631 160.666 295.575>
LayerCount: 2
Fore
SplineSet
492 143 m 1xf0
 604 143 l 1
 636 289 l 1
 492 143 l 1xf0
574 0 m 1xf1
 592 86 l 1
 399 86 l 1
 411 140 l 1
 647 375 l 1
 724 375 l 1
 674 143 l 1
 739 143 l 1
 727 86 l 1
 662 86 l 1
 644 0 l 1
 574 0 l 1xf1
122 618 m 1
 180 618 210 632 227 667 c 1
 284 667 l 1
 204 292 l 1
 136 292 l 1xf4
 195 571 l 1
 112 571 l 1
 122 618 l 1
100 0 m 1xfa
 568 668 l 1
 656 668 l 1
 188 0 l 1
 100 0 l 1xfa
EndSplineSet
LCarets2: 2 0 0
Ligature2: "'frac' Diagonal Fractions lookup 10 subtable" one slash four
EndChar

StartChar: onehalf
Encoding: 189 189 105
Width: 802
GlyphClass: 1
Flags: W
HStem: 0 58<520 687> 333 49<555.479 653.898> 571 47<122 192.979> 647 21G<218.5 284 546.988 649>
VStem: 93 88<0 88> 135 69<292 361> 561 88<580 668> 664 71<215.392 322.399>
DStem2: 72.9335 0 141.933 0 0.207912 0.978148<312.869 583.693 636.866 684.457> 93 0 181 0 0.573791 0.819001<50.4936 815.627>
LayerCount: 2
Fore
SplineSet
735 286 m 0xf3
 735 207.797549876 658.641527078 126.82205301 520 58 c 1
 699 58 l 1
 687 0 l 1
 411 0 l 1
 422 54 l 1
 602.114315627 154.622522697 664 212.416591574 664 280 c 0
 664 311.116161385 640.877453539 333 608 333 c 0
 573.257900521 333 544.097553211 310.277651446 531 273 c 1
 471 292 l 1
 493.900302992 349.748590153 543.710813756 382 610 382 c 0
 688.06251136 382 735 345.952008724 735 286 c 0xf3
122 618 m 1
 180 618 210 632 227 667 c 1
 284 667 l 1
 204 292 l 1
 135 292 l 1xf7
 194 571 l 1
 112 571 l 1
 122 618 l 1
93 0 m 1xfb
 561 668 l 1
 649 668 l 1
 181 0 l 1
 93 0 l 1xfb
EndSplineSet
LCarets2: 2 0 0
Ligature2: "'frac' Diagonal Fractions lookup 10 subtable" one slash two
EndChar

StartChar: threequarters
Encoding: 190 190 106
Width: 906
GlyphClass: 1
Flags: W
HStem: 0 21G<193 295.012 656 730.419> 86 57<574 675 756 809> 291 51<166.033 275.442> 467 54<200 280.802> 631 50<194.863 303.141> 648 20G<646.988 749>
VStem: 82 64<361.126 382.859> 193 88<0 88> 293 69<360.048 453.225> 312 68<537.243 621.224> 656 70<0 70> 661 88<580 668>
DStem2: 193 0 281 0 0.573791 0.819001<50.4936 815.627> 493 140 574 143 0.710097 0.704104<59.6301 264.683> 656 0 726 0 0.207912 0.978148<14.5538 88.071 160.666 295.575>
LayerCount: 2
Fore
SplineSet
574 143 m 1xf3
 687 143 l 1
 718 289 l 1
 574 143 l 1xf3
656 0 m 1xf320
 675 86 l 1
 482 86 l 1
 493 140 l 1
 730 375 l 1
 806 375 l 1
 756 143 l 1
 821 143 l 1
 809 86 l 1
 745 86 l 1
 726 0 l 1
 656 0 l 1xf320
193 0 m 1
 661 668 l 1
 749 668 l 1xf710
 281 0 l 1
 193 0 l 1
362 414 m 0xfb80
 362 341.102010741 302.121987164 291 215 291 c 0
 149.883285027 291 100.966033487 324.101899538 82 381 c 1
 146 398 l 1
 157.111604213 361.634749848 182.356282589 342 218 342 c 0
 263.72762939 342 293 367.759686137 293 408 c 0xfb80
 293 448.030870306 266.957635505 467 212 467 c 2
 189 467 l 1
 200 521 l 1
 216 521 l 1
 286.158473967 525.009055655 312 540.083279175 312 577 c 0
 312 611.889913516 291.120461063 631 253 631 c 0
 215.075431306 631 191.035911533 615.07381815 173 578 c 1
 115 596 l 1
 140.953131114 650.900854281 190.882302249 681 256 681 c 0
 335.128915148 681 380 645.899232011 380 584 c 0
 380 544.852809801 355.83547645 513.936434083 312 497 c 1xfb40
 343.949651378 482.023600916 362 452.060022204 362 414 c 0xfb80
EndSplineSet
Ligature2: "'frac' Diagonal Fractions lookup 10 subtable" three slash four
EndChar

StartChar: less
Encoding: 60 60 107
Width: 613
GlyphClass: 1
Flags: W
HStem: 0 21G<466.587 511> 476 20G<466.587 511>
VStem: 38 105<160.5 335.5>
DStem2: 143 248 38 213 0.911813 -0.410605<0 400.423>
LayerCount: 2
Fore
SplineSet
511 0 m 1
 38 213 l 1
 38 283 l 1
 511 496 l 1
 511 406 l 1
 143 248 l 1
 511 90 l 1
 511 0 l 1
EndSplineSet
EndChar

StartChar: equal
Encoding: 61 61 108
Width: 658
GlyphClass: 1
Flags: W
HStem: 121 79<63 559> 307 79<63 559>
LayerCount: 2
Fore
SplineSet
63 121 m 1
 63 200 l 1
 559 200 l 1
 559 121 l 1
 63 121 l 1
63 307 m 1
 63 386 l 1
 559 386 l 1
 559 307 l 1
 63 307 l 1
EndSplineSet
EndChar

StartChar: greater
Encoding: 62 62 109
Width: 613
GlyphClass: 1
Flags: W
HStem: 0 21G<83 127.413> 476 20G<83 127.413>
VStem: 451 105<160.5 335.5>
DStem2: 83 90 83 0 0.911813 0.410605<0 400.423>
LayerCount: 2
Fore
SplineSet
83 0 m 1
 83 90 l 1
 451 248 l 1
 83 406 l 1
 83 496 l 1
 556 283 l 1
 556 213 l 1
 83 0 l 1
EndSplineSet
EndChar

StartChar: question
Encoding: 63 63 110
Width: 527
GlyphClass: 1
Flags: W
HStem: -12 129<139.85 235.895> 500 21G<101.833 178.488> 609 70<234.797 402.48>
VStem: 123 130<4.85028 100.15> 433 91<473.14 579.344>
LayerCount: 2
Fore
SplineSet
332 679 m 0
 449.020548736 679 524 621.984375601 524 533 c 0
 524 379 344 365 292 292 c 0
 274 266 274 266 255 190 c 1
 170 190 l 1
 175.840162618 216.28073178 176.19697764 218.166754041 177 227 c 0
 197.99540954 320.979452227 237.977253317 367.98840794 342 421 c 0
 404.707608285 452.851483573 433 485.807456341 433 527 c 0
 433 575.942322156 391.073189076 609 329 609 c 0
 244.917410812 609 190.97548022 572.928402242 166 500 c 1
 89 524 l 1
 125.182913587 624.508093296 210.612160871 679 332 679 c 0
253 53 m 0
 253 17 224 -12 188 -12 c 0
 151.218493337 -12 123 15.7843626702 123 52 c 0
 123 88 152 117 188 117 c 0
 223.273832153 117 253 87.7311578121 253 53 c 0
EndSplineSet
EndChar

StartChar: at
Encoding: 64 64 111
Width: 784
GlyphClass: 1
Flags: W
HStem: -12 60<296.073 517.611> 155 73<304.421 400.701> 155 64<525.962 632.97> 446 73<361.556 473.934> 619 61<307.427 517.168>
VStem: 65 62<217.38 437.757> 213 81<237.217 374.045> 682 62<273.788 462.556>
LayerCount: 2
Fore
SplineSet
294 287 m 0xdf
 294 251.412424381 314.634679115 228 346 228 c 0
 394.846944531 228 439.959085854 274.798576512 453 339 c 0
 457.955530632 359.6480443 475 439.447150887 475 442 c 0
 454.789358098 445.191153985 447.509743959 446 439 446 c 0
 353.138317888 446 294 381.151775557 294 287 c 0xdf
127 334 m 0
 127 165.705155567 244.293599079 48 412 48 c 0
 460.610012877 48 505.517320148 60.3079286592 547 85 c 1
 547 16 l 1
 506.518620201 -2.75966380933 462.627023295 -12 414 -12 c 0
 204.098256004 -12 65 125.90256899 65 334 c 0
 65 525 220 680 411 680 c 0
 595.764388916 680 744 540.222276635 744 366 c 0
 744 238.723033824 673.767881579 155 567 155 c 0xbf
 508.599418603 155 462.938864499 183.285299002 454 225 c 1
 420.811010243 180.748013657 373.728928127 155 326 155 c 0xdf
 258.099968374 155 213 202.893771725 213 275 c 0
 213 415.943519241 313.944667629 519 452 519 c 0
 490.526436165 519 530.524189901 512.162777139 569 499 c 1
 528 303 l 2
 521.452481028 275.87456426 520 267.704358476 520 258 c 0
 520 236.665686266 544.460180984 219 574 219 c 0xbf
 638.755231939 219 682 278.661763343 682 368 c 0
 682 506.001845023 559.998007973 619 411 619 c 0
 253.777132557 619 127 491.776469089 127 334 c 0
EndSplineSet
EndChar

StartChar: colon
Encoding: 58 58 112
Width: 208
GlyphClass: 1
Flags: W
HStem: -12 129<5.74728 101.07> 375 129<87.7473 183.07>
VStem: -11 129<4.74728 100.07> 71 129<391.93 487.253>
LayerCount: 2
Fore
SplineSet
118 52 m 0xe0
 118 16.7766548885 88.7737098788 -12 53 -12 c 0
 18 -12 -11 17 -11 52 c 0
 -11 87.7737098788 17.7766548885 117 53 117 c 0
 89 117 118 88 118 52 c 0xe0
200 440 m 0xd0
 200 404 171 375 135 375 c 0
 99.7766548885 375 71 404.226290121 71 440 c 0
 71 475 100 504 135 504 c 0
 170.773709879 504 200 475.223345111 200 440 c 0xd0
EndSplineSet
EndChar

StartChar: bracketleft
Encoding: 91 91 114
Width: 317
GlyphClass: 1
Flags: W
HStem: -161 74<79 188> 593 75<224 348>
DStem2: -20 -161 63.2708 -161 0.207912 0.978148<92.9662 788.254>
LayerCount: 2
Fore
SplineSet
-20 -161 m 1
 156 668 l 1
 363 668 l 1
 348 593 l 1
 224 593 l 1
 79 -87 l 1
 204 -87 l 1
 188 -161 l 1
 -20 -161 l 1
EndSplineSet
EndChar

StartChar: backslash
Encoding: 92 92 115
Width: 519
GlyphClass: 1
Flags: W
HStem: 0 21G<347.216 442> 648 20G<95 189.784>
DStem2: 182 668 95 668 0.362716 -0.9319<0 685.259>
LayerCount: 2
Fore
SplineSet
355 0 m 1
 95 668 l 1
 182 668 l 1
 442 0 l 1
 355 0 l 1
EndSplineSet
EndChar

StartChar: bracketright
Encoding: 93 93 116
Width: 317
GlyphClass: 1
Flags: W
HStem: -161 74<-47 78> 593 75<113 223>
DStem2: 62.2708 -161 145 -161 0.207912 0.978148<75.6532 770.941>
LayerCount: 2
Fore
SplineSet
-63 -161 m 1
 -47 -87 l 1
 78 -87 l 1
 223 593 l 1
 98 593 l 1
 113 668 l 1
 320 668 l 1
 145 -161 l 1
 -63 -161 l 1
EndSplineSet
EndChar

StartChar: asciicircum
Encoding: 94 94 117
Width: 552
GlyphClass: 1
Flags: W
HStem: 569 99<182.5 357.5>
DStem2: 47 311 136 311 0.460099 0.887867<40.9488 331.672> 308 668 270 569 0.460099 -0.887867<70.4151 361.138>
LayerCount: 2
Fore
SplineSet
47 311 m 1
 232 668 l 1
 308 668 l 1
 493 311 l 1
 404 311 l 1
 270 569 l 1
 136 311 l 1
 47 311 l 1
EndSplineSet
EndChar

StartChar: underscore
Encoding: 95 95 118
Width: 413
GlyphClass: 1
Flags: W
HStem: -79 79<-32 344>
LayerCount: 2
Fore
SplineSet
-32 -79 m 1
 -32 0 l 1
 344 0 l 1
 344 -79 l 1
 -32 -79 l 1
EndSplineSet
EndChar

StartChar: grave
Encoding: 96 96 119
Width: 272
GlyphClass: 1
Flags: W
HStem: 571 136.014
VStem: 134 144
LayerCount: 2
Fore
SplineSet
134 669 m 0
 134 692 149 707 172 707 c 0
 173.244282055 707 174.477138632 707.014472271 175.721420687 707.014472271 c 0
 193.439846854 707.014472271 193.519140221 706.910486655 268 586 c 1
 278 571 l 1
 210 571 l 1
 196 586 l 1
 142.919570218 641.083464869 134 653.024179837 134 669 c 0
EndSplineSet
EndChar

StartChar: exclam
Encoding: 33 33 120
Width: 284
GlyphClass: 1
Flags: W
HStem: -12 129<43.6691 139.07> 648 20G<172.723 268>
VStem: 27 129<4.92953 100.07> 177 91<577 668>
LayerCount: 2
Fore
SplineSet
156 52 m 0
 156 16.7766548885 126.773709879 -12 91 -12 c 0
 55.7766548885 -12 27 17.2262901212 27 53 c 0
 27 89.2156373298 55.2184933369 117 92 117 c 0
 127.223345111 117 156 87.7737098788 156 52 c 0
95 195 m 1
 140 495 l 1
 177 668 l 1
 268 668 l 1
 232 495 l 1
 149 195 l 1
 95 195 l 1
EndSplineSet
EndChar

StartChar: quotedbl
Encoding: 34 34 121
Width: 334
GlyphClass: 1
Flags: W
HStem: 447 221<109 161 250 302>
VStem: 109 52<447 557.5> 250 52<447 557.5>
LayerCount: 2
Fore
SplineSet
109 447 m 1
 95 668 l 1
 175 668 l 1
 161 447 l 1
 109 447 l 1
250 447 m 1
 236 668 l 1
 316 668 l 1
 302 447 l 1
 250 447 l 1
EndSplineSet
EndChar

StartChar: numbersign
Encoding: 35 35 122
Width: 634
GlyphClass: 1
Flags: W
HStem: 0 21G<136 220.791 341 425.791> 172 81<48 161 254 365 459 571> 415 81<82 195 288 399 493 605> 648 20G<227.209 312 432.209 517>
VStem: 136 82<0 82> 230 82<586 668> 341 82<0 82> 435 82<586 668>
DStem2: 136 0 218 0 0.139346 0.990244<11.4263 173.806 266.974 419.173 512.341 674.581> 341 0 423 0 0.139346 0.990244<11.4263 173.666 266.974 419.033 512.341 674.581>
LayerCount: 2
Fore
SplineSet
254 253 m 1
 377 253 l 1
 399 415 l 1
 276 415 l 1
 254 253 l 1
136 0 m 1
 161 172 l 1
 37 172 l 1
 48 253 l 1
 172 253 l 1
 195 415 l 1
 71 415 l 1
 82 496 l 1
 206 496 l 1
 230 668 l 1
 312 668 l 1
 288 496 l 1
 411 496 l 1
 435 668 l 1
 517 668 l 1
 493 496 l 1
 616 496 l 1
 605 415 l 1
 481 415 l 1
 459 253 l 1
 582 253 l 1
 571 172 l 1
 447 172 l 1
 423 0 l 1
 341 0 l 1
 365 172 l 1
 242 172 l 1
 218 0 l 1
 136 0 l 1
EndSplineSet
EndChar

StartChar: dollar
Encoding: 36 36 123
Width: 610
GlyphClass: 1
Flags: W
HStem: -6 78<275 381.594> 599 80<403 434.301> 609 81<232.551 336>
VStem: 88 95<450.414 563.597> 190 52<-80 -28> 366 52<698 750> 448 98<131.367 248.585>
DStem2: 190 -80 242 -80 0.207912 0.978148<10.8114 87.076 169.649 403.469 493.86 703.321 785.733 848.455>
LayerCount: 2
Fore
SplineSet
448 191 m 0x9e
 448 244.420313607 415.285041587 274.233138613 324 304 c 1
 275 75 l 1
 283.855419364 73.0321290302 293.832666656 72 304 72 c 0
 380.11767972 72 448 128.097195231 448 191 c 0x9e
336 608 m 1
 331.717718749 608.85645625 329.133931253 609 318 609 c 0xbe
 238.908631992 609 183 565.929646465 183 505 c 0
 183 457.83620854 215.269433207 427.913643203 293 403 c 1
 336 608 l 1
546 204 m 0
 546 89 432 -6 294 -6 c 0
 270.740852298 -6 265.753049234 -5.72289982979 258 -4 c 1
 242 -80 l 1
 190 -80 l 1
 208 4 l 1
 123.879906566 24.0285936747 62.9629592726 77.1082728955 37 153 c 1
 128 179 l 1
 142.848964573 135.443037251 176.504283942 103.175566104 225 86 c 1
 275 319 l 1
 133.806963549 362.058869272 88 407.130961748 88 503 c 0
 88 605.07490018 191.090896572 690 315 690 c 0xbe
 327.668949879 690 339.64624202 689.054424305 353 687 c 1
 366 750 l 1
 418 750 l 1
 403 679 l 1
 480.050607778 661.764995629 537.347539133 620.224720397 563 563 c 1
 471 537 l 1
 455.646258142 566.683900926 426.086610406 588.245055745 386 599 c 1xde
 341 388 l 1
 494.812720571 342.055940609 546 296.112236146 546 204 c 0
EndSplineSet
EndChar

StartChar: percent
Encoding: 37 37 124
Width: 1000
GlyphClass: 1
Flags: W
HStem: -12 74<679.6 807.605> 0 21G<231 333.012> 277 74<698.383 826.066> 317 74<191.6 319.605> 606 74<210.383 338.066> 648 20G<684.988 787>
VStem: 82 74<425.749 552.385> 231 88<0 88> 373 75<445.339 572.108> 570 74<96.749 223.385> 699 88<580 668> 861 75<116.339 243.108>
DStem2: 231 0 319 0 0.573791 0.819001<50.4936 815.627>
LayerCount: 2
Fore
SplineSet
644 159 m 0xa3f0
 644 103.285419126 685.711042004 62 742 62 c 0
 806.954551424 62 861 116.953775442 861 183 c 0
 861 237.134087706 819.861771356 277 764 277 c 0
 699.96609843 277 644 221.966669877 644 159 c 0xa3f0
936 190 m 0
 936 81 843 -12 734 -12 c 0
 640.932088953 -12 570 58.0670634778 570 150 c 0
 570 258.730322126 662.728730998 351 772 351 c 0
 864.847875325 351 936 281.149438581 936 190 c 0
156 488 m 0
 156 432.285419126 197.711042004 391 254 391 c 0
 318.954551424 391 373 445.953775442 373 512 c 0
 373 566.134087706 331.861771356 606 276 606 c 0x1bf0
 211.96609843 606 156 550.966669877 156 488 c 0
231 0 m 1x47f0
 699 668 l 1
 787 668 l 1
 319 0 l 1
 231 0 l 1x47f0
448 519 m 0
 448 410 355 317 246 317 c 0
 152.932088953 317 82 387.067063478 82 479 c 0
 82 587.730322126 174.728730998 680 284 680 c 0x1bf0
 376.847875325 680 448 610.149438581 448 519 c 0
EndSplineSet
EndChar

StartChar: ampersand
Encoding: 38 38 125
Width: 691
GlyphClass: 1
Flags: W
HStem: -12 78<137.487 309.264> 0 21G<492.116 619> 609 70<301.79 435.869>
VStem: 15 86<101.448 238.466> 182 88<448.563 578.033> 454 83<486.191 589.895>
DStem2: 351 362 263 333 0.595015 -0.803714<0 174.997 276.567 383.767>
LayerCount: 2
Fore
SplineSet
101 165 m 0xbc
 101 102.783611637 142.242231229 66 212 66 c 0
 275.44436126 66 331.396314677 89.5117251061 400 145 c 1
 263 333 l 1
 158.897056568 299.967335257 101 239.925943261 101 165 c 0xbc
373 609 m 0
 309.673785219 609 270 574.718768112 270 520 c 0
 270 486.70130861 277.889145405 467.166281892 312 416 c 1
 404.804447932 446.934815977 454 489.894312149 454 540 c 0
 454 582.796514225 423.239386264 609 373 609 c 0
443 86 m 1
 365.371046024 18.3234760211 291.41889532 -12 204 -12 c 0xbc
 88.4306805024 -12 15 55.6028487165 15 162 c 0
 15 260.086973364 96.1115815733 349.035422722 222 389 c 1
 195.500421325 433.845440834 182 475.696746942 182 513 c 0
 182 612.624642274 257.571943435 679 371 679 c 0
 471.822902532 679 537 629.135594106 537 552 c 0
 537 470.590844749 481.346660327 413.740659061 351 362 c 1
 456 222 l 1
 487.398591564 259.285827483 513.704364908 309.014549695 529 360 c 1
 616 360 l 1
 596.954937598 295.848210856 556.872675702 223.842023556 503 157 c 1
 619 0 l 1
 507 0 l 1x7c
 443 86 l 1
EndSplineSet
EndChar

StartChar: quotesingle
Encoding: 39 39 126
Width: 193
GlyphClass: 1
Flags: W
HStem: 447 221<109 161>
VStem: 109 52<447 557.5>
LayerCount: 2
Fore
SplineSet
109 447 m 1
 95 668 l 1
 175 668 l 1
 161 447 l 1
 109 447 l 1
EndSplineSet
EndChar

StartChar: parenleft
Encoding: 40 40 127
Width: 301
GlyphClass: 1
Flags: W
HStem: -162 21G<71.7381 170> 648 20G<182.226 337>
VStem: 29 80<-38.1769 290.917> 258 79<589 668>
LayerCount: 2
Fore
SplineSet
170 -162 m 1
 93 -162 l 1
 50.4761431661 -64.0962365918 29 34.8953608146 29 133 c 0
 29 318.554994997 106.452608793 499.503229513 258 668 c 1
 337 668 l 1
 182.340128707 479.414737585 109 305.392765521 109 127 c 0
 109 32.3760214105 129.267715929 -63.6464360238 170 -162 c 1
EndSplineSet
EndChar

StartChar: parenright
Encoding: 41 41 128
Width: 302
GlyphClass: 1
Flags: W
HStem: -162 21G<-53 103.144> 648 20G<115 213.298>
VStem: -53 81<-162 -81> 176 80<217.154 543.935>
LayerCount: 2
Fore
SplineSet
28 -162 m 1
 -53 -162 l 1
 101.618327971 26.5346063646 176 203.556489578 176 383 c 0
 176 477.780287885 155.666580889 572.780688651 115 668 c 1
 192 668 l 1
 234.596579281 570.919423965 256 472.931888484 256 375 c 0
 256 189.35509605 178.287736475 6.32226485146 28 -162 c 1
EndSplineSet
EndChar

StartChar: asterisk
Encoding: 42 42 129
Width: 439
GlyphClass: 1
Flags: W
HStem: 373 294
VStem: 106 289
DStem2: 135 615 106 566 0.866499 -0.499179<0 105.506> 119 442 157 399 0.743762 0.668444<0 105.737> 186.827 373 245.377 373 0.207912 0.978148<193.222 300.407> 289 493 236 470 0.413095 -0.910688<0 105.565> 283 550 289 493 0.993653 0.112489<0 105.571>
LayerCount: 2
Fore
SplineSet
280 373 m 1
 236 470 l 1
 157 399 l 1
 119 442 l 1
 198 513 l 1
 106 566 l 1
 135 615 l 1
 227 562 l 1
 249 667 l 1
 305 655 l 1
 283 550 l 1
 388 561 l 1
 395 505 l 1
 289 493 l 1
 332 396 l 1
 280 373 l 1
EndSplineSet
EndChar

StartChar: plus
Encoding: 43 43 130
Width: 619
GlyphClass: 1
Flags: W
HStem: 0 21G<250 330> 208 80<42 250 330 538> 476 20G<250 330>
VStem: 250 80<0 208 288 496>
LayerCount: 2
Fore
SplineSet
250 0 m 1
 250 208 l 1
 42 208 l 1
 42 288 l 1
 250 288 l 1
 250 496 l 1
 330 496 l 1
 330 288 l 1
 538 288 l 1
 538 208 l 1
 330 208 l 1
 330 0 l 1
 250 0 l 1
EndSplineSet
EndChar

StartChar: comma
Encoding: 44 44 131
Width: 209
GlyphClass: 1
Flags: W
HStem: -134 250
VStem: -44 61<-134 -73> -11 129<3.1785 99.4019>
DStem2: -44 -134 17 -134 0.516281 0.856419<31.4931 146.29>
LayerCount: 2
Fore
SplineSet
52 116 m 0xa0
 89.2850430137 116 118 87.7201181195 118 51 c 0xa0
 118 37.973665961 115.026334039 29.7960845682 102 7 c 2
 17 -134 l 1
 -44 -134 l 1xc0
 32 -9 l 1
 3.0670901464 1.97455201343 -11 21.9301915234 -11 52 c 0
 -11 87.7780455158 16.7809864454 116 52 116 c 0xa0
EndSplineSet
EndChar

StartChar: hyphen
Encoding: 45 45 132
Width: 372
GlyphClass: 1
Flags: W
HStem: 208 81<49 323>
VStem: 31 310
LayerCount: 2
Fore
SplineSet
31 208 m 1
 49 289 l 1
 341 289 l 1
 323 208 l 1
 31 208 l 1
EndSplineSet
EndChar

StartChar: period
Encoding: 46 46 133
Width: 208
GlyphClass: 1
Flags: W
HStem: -12 129<15.7473 111.07>
VStem: -1 129<4.74728 100.07>
LayerCount: 2
Fore
SplineSet
128 52 m 0
 128 16.7766548885 98.7737098788 -12 63 -12 c 0
 28 -12 -1 17 -1 52 c 0
 -1 87.7737098788 27.7766548885 117 63 117 c 0
 99 117 128 88 128 52 c 0
EndSplineSet
EndChar

StartChar: slash
Encoding: 47 47 134
Width: 371
GlyphClass: 1
Flags: W
HStem: 0 21G<-50 49.0359> 648 20G<339.964 439>
VStem: -50 87<0 87> 352 87<581 668>
DStem2: -50 0 37 0 0.515627 0.856813<44.8596 779.633>
LayerCount: 2
Fore
SplineSet
-50 0 m 1
 352 668 l 1
 439 668 l 1
 37 0 l 1
 -50 0 l 1
EndSplineSet
EndChar

StartChar: braceleft
Encoding: 123 123 135
Width: 322
GlyphClass: 1
Flags: W
HStem: -162 71<123.656 192> 220 67<37 73.2991> 596 72<261.076 353>
VStem: 34 89<-89.2465 43.1484> 79 87<52.6172 214.268>
DStem2: 11.8798 -162 99.0923 -162 0.207912 0.978148<122.291 339.133 477.768 792.181>
LayerCount: 2
Fore
SplineSet
149 -162 m 2xf0
 66.3267972406 -162 34 -139.230690639 34 -81 c 0xf0
 34 -62.9857925873 36.2594191019 -44.9104397719 41 -25 c 2
 73 125 l 2
 77.0573484096 144.272404946 79 159.166067139 79 171 c 0
 79 206 63 220 23 220 c 1
 37 287 l 1
 90.0052633138 287 113.001489233 311.007049037 128 382 c 2
 163 545 l 2
 184.02399796 642.110847721 218.12190584 668 325 668 c 2
 368 668 l 1
 353 596 l 1
 311 596 l 2
 269.087237469 596 258.022977015 585.108618616 247 533 c 2
 214 380 l 2
 199.045008114 307.219039488 167.184441124 270.048378 106 254 c 1
 106 253 l 1
 147.008138569 240.99761798 166 215.991667096 166 174 c 0xe8
 166 160.331223544 164.100632937 145.452848215 160 127 c 2
 128 -26 l 2
 124.57267069 -41.4229818947 123 -52.4316767252 123 -61 c 0
 123 -83.9286402423 132.899903661 -91 165 -91 c 2
 207 -91 l 1
 192 -162 l 1
 149 -162 l 2xf0
EndSplineSet
EndChar

StartChar: bar
Encoding: 124 124 136
Width: 289
GlyphClass: 1
Flags: W
HStem: -161 21G<96 177> 648 20G<96 177>
VStem: 96 81<-161 668>
LayerCount: 2
Fore
SplineSet
96 -161 m 1
 96 668 l 1
 177 668 l 1
 177 -161 l 1
 96 -161 l 1
EndSplineSet
EndChar

StartChar: braceright
Encoding: 125 125 137
Width: 322
GlyphClass: 1
Flags: W
HStem: -163 72<-47 44.9235> 218 67<233.121 269> 596 71<114 182.478>
VStem: 140 87<291.015 452.484> 184 88<461.016 593.27>
DStem2: 30.3049 -163 116.856 -163 0.207912 0.978148<74.5321 386.937 528.565 744.748>
LayerCount: 2
Fore
SplineSet
-62 -163 m 1xf0
 -47 -91 l 1
 -5 -91 l 2
 36.9127625312 -91 47.9770229851 -80.1086186157 59 -28 c 2
 92 125 l 2
 107.950961348 197.776261152 139.814659727 234.950575927 200 251 c 1
 200 252 l 1
 158.642741884 264.801056083 140 289.347332898 140 331 c 0xf0
 140 344.16718427 142.049844719 360.224301235 146 378 c 2
 181 542 l 2
 183 552 184 560 184 566 c 0
 184 588.163140894 172.767168615 596 141 596 c 2
 99 596 l 1
 114 667 l 1
 157 667 l 2
 240.187619732 667 272 644.869648509 272 587 c 0xe8
 272 569.132220979 269.77383409 551.004869995 265 530 c 2
 233 380 l 2
 229 362 227 347 227 335 c 0
 227 299.641870553 243.398895019 285 283 285 c 1
 269 218 l 1
 216.973680331 218 192.9924177 192.964615935 178 123 c 2
 143 -40 l 2
 121.97600204 -137.110847721 87.8780941598 -163 -19 -163 c 2
 -62 -163 l 1xf0
EndSplineSet
EndChar

StartChar: asciitilde
Encoding: 126 126 138
Width: 539
GlyphClass: 1
Flags: W
HStem: 195 73<276.395 412.656> 249 74<112.892 248.634>
LayerCount: 2
Fore
SplineSet
500 297 m 1x80
 485 234 433 195 364 195 c 0x80
 289 195 239 249 164 249 c 0
 129.019997307 249 106.003432956 231.018309101 100 199 c 1
 25 221 l 1
 39.8986092601 284.56739951 91.5188667814 323 162 323 c 0x40
 239 323 286 268 363 268 c 0
 396.265181831 268 420.047283251 287.25217734 426 319 c 1
 500 297 l 1x80
EndSplineSet
EndChar

StartChar: exclamdown
Encoding: 161 161 139
Width: 283
GlyphClass: 1
Flags: W
HStem: -161 21G<0 95.2775> 390 129<128.93 224.253>
VStem: 0 91<-161 -70> 112 129<406.93 502.253>
LayerCount: 2
Fore
SplineSet
0 -161 m 1
 37 12 l 1
 119 311 l 1
 174 311 l 1
 128 12 l 1
 91 -161 l 1
 0 -161 l 1
241 455 m 0
 241 419.226290121 212.223345111 390 177 390 c 0
 141 390 112 419 112 455 c 0
 112 490.223345111 141.226290121 519 177 519 c 0
 212 519 241 490 241 455 c 0
EndSplineSet
EndChar

StartChar: cent
Encoding: 162 162 140
Width: 492
GlyphClass: 1
Flags: W
HStem: -12 73<240 315.754> 428 75<212.476 267 332 365.943>
VStem: 25 91<108.561 311.87> 157 51<-87 -36> 297 50<521 571>
DStem2: 157 -87 208 -87 0.207912 0.978148<10.6035 80.8082 162.023 526.616 611.535 672.729>
LayerCount: 2
Fore
SplineSet
267 428 m 1
 177.100690146 414.015662912 116 320.139105866 116 196 c 0
 116 128.121567548 140.912007166 85.0305281262 190 68 c 1
 267 428 l 1
240 61 m 1
 290.173213328 62.0034642666 331.106471058 84.1476856616 362 127 c 1
 433 98 l 1
 391.207448132 28.345746887 316.460029659 -10.9949996776 224 -12 c 1
 208 -87 l 1
 157 -87 l 1
 174 -8 l 1
 79.8022908878 9.03575590328 25 82.2280772903 25 191 c 0
 25 365.697781893 132.739872889 495.987860735 283 503 c 1
 297 571 l 1
 347 571 l 1
 332 501 l 1
 401.233835301 491.1094521 450.673662211 454.697687686 480 392 c 1
 397 364 l 1
 386.028718172 396.913845483 357.102478194 419.981606478 318 427 c 1
 240 61 l 1
EndSplineSet
EndChar

StartChar: sterling
Encoding: 163 163 141
Width: 585
GlyphClass: 1
Flags: W
HStem: -12 78<284.032 475.808> 25 77<112.886 281.765> 317 51<86 172 276 457> 608 71<298.219 467.386>
VStem: 153 90<370.677 555.815> 192 90<190.734 316.37>
LayerCount: 2
Fore
SplineSet
178 25 m 0x74
 136.188969304 25 90.2502905629 13.1137684377 35 -12 c 1
 22 55 l 1
 121.164597284 90.058190959 192 177.144068416 192 264 c 0xb4
 192 282.074463925 189.277215745 300.112909618 184 317 c 1
 75 317 l 1
 86 368 l 1
 172 368 l 1
 158.320041841 413.92557382 153 446.125827068 153 483 c 0
 153 604.066531772 242.079071924 679 386 679 c 0
 495.942314796 679 569.988973091 632.043582545 591 549 c 1
 508 526 l 1
 485.958834723 587.114140087 453.865928027 608 382 608 c 0
 294.019530246 608 243 561.017986536 243 480 c 0xb8
 243 452.136107836 245.906382091 437.339980828 265 368 c 1
 468 368 l 1
 457 317 l 1
 276 317 l 1
 279.965591239 307.086021902 282 292.167024322 282 273 c 0
 282 230.71200718 268.817987226 194.791022371 242 164 c 0
 215.906615902 133.892249118 184.875407396 108.932364015 150 90 c 1
 171.345684891 98.1316894822 191.331955899 102 212 102 c 0x74
 285 102 299 66 372 66 c 0
 406.100075201 66 443.128558221 74.0496702216 487 91 c 1
 497 18 l 1
 448.013652012 -2.5742661551 406.854614222 -12 366 -12 c 0xb4
 282 -12 262 25 178 25 c 0x74
EndSplineSet
EndChar

StartChar: currency
Encoding: 164 164 142
Width: 666
GlyphClass: 1
Flags: W
HStem: 103 75<264.471 413.328> 463 76<265.4 413.571>
VStem: 121 76<246.768 394.466> 481 76<246.351 395.571>
DStem2: 138 558 102 522 0.7063 -0.707913<0.0580521 96.6186 523.79 619.483> 102 119 138 84 0.7063 0.707913<0.649861 96.855 524.026 620.075>
LayerCount: 2
Fore
SplineSet
197 321 m 0
 197 242.22522958 260.776102101 178 339 178 c 0
 417.72396207 178 481 241.721643831 481 321 c 0
 481 400 418 463 339 463 c 0
 261 463 197 399 197 321 c 0
339 103 m 0
 289.978258539 103 242.982714619 119.013296447 204 149 c 1
 138 84 l 1
 102 119 l 1
 168 185 l 1
 136.576857293 227.573290119 121 272.64674952 121 321 c 0
 121 369.585947323 137.741084044 417.672039789 168 456 c 1
 102 522 l 1
 138 558 l 1
 204 492 l 1
 242.983420102 522.986821106 288.978721179 539 339 539 c 0
 391.021278735 539 437.015125216 522.987327521 474 492 c 1
 540 558 l 1
 576 522 l 1
 510 456 l 1
 540.987327521 419.015125216 557 373.021278735 557 321 c 0
 557 270.594065207 540.359832575 222.443793509 510 185 c 1
 576 119 l 1
 540 84 l 1
 474 149 l 1
 437.015756469 119.012775515 390.02174137 103 339 103 c 0
EndSplineSet
EndChar

StartChar: yen
Encoding: 165 165 143
Width: 598
GlyphClass: 1
Flags: W
HStem: 0 21G<178 279.186> 86 51<58 196 304 439> 223 51<87 218 352 468> 648 20G<90 192.195 538.484 668>
VStem: 90 96<572 668> 554 114<554 668>
DStem2: 186 668 90 668 0.308977 -0.95107<0 354.855> 178 0 275 0 0.207912 0.978148<20.1674 87.8631 160.203 227.899> 291 329 352 274 0.62566 0.780096<0 429.001>
LayerCount: 2
Fore
SplineSet
178 0 m 1
 196 86 l 1
 47 86 l 1
 58 137 l 1
 207 137 l 1
 225 223 l 1
 76 223 l 1
 87 274 l 1
 218 274 l 1
 90 668 l 1
 186 668 l 1
 291 329 l 1
 554 668 l 1
 668 668 l 1
 352 274 l 1
 479 274 l 1
 468 223 l 1
 322 223 l 1
 304 137 l 1
 450 137 l 1
 439 86 l 1
 293 86 l 1
 275 0 l 1
 178 0 l 1
EndSplineSet
EndChar

StartChar: brokenbar
Encoding: 166 166 144
Width: 289
GlyphClass: 1
Flags: W
HStem: -161 21G<96 177> 648 20G<96 177>
VStem: 96 81<-161 149 358 668>
LayerCount: 2
Fore
SplineSet
96 -161 m 1
 96 149 l 1
 177 149 l 1
 177 -161 l 1
 96 -161 l 1
96 358 m 1
 96 668 l 1
 177 668 l 1
 177 358 l 1
 96 358 l 1
EndSplineSet
EndChar

StartChar: section
Encoding: 167 167 145
Width: 526
GlyphClass: 1
Flags: W
HStem: -174 72<70.1375 216.166> 612 68<291.321 437.08>
VStem: 39 86<225.937 328.748> 178 87<492.585 585.857> 251 89<-68.601 34.6279> 397 90<189.506 293.107>
LayerCount: 2
Fore
SplineSet
260 391 m 1xe4
 184.137321485 376.027102925 125 326.088920337 125 277 c 0
 125 252.279693161 138.689241846 229.241700787 166 208 c 0
 170 205 245 145 254 138 c 2
 266 129 l 1
 350.649992762 154.892938963 397 193.812792368 397 239 c 0
 397 279.741469519 374.731386756 304.448252097 260 391 c 1xe4
340 2 m 0xec
 340 -98.2244902357 251.738752831 -174 135 -174 c 0
 41.6551768052 -174 -26.0624650352 -128.728093376 -43 -55 c 1
 43 -32 l 1
 49.0015593444 -76.0114351925 85.0142848634 -102 140 -102 c 0
 204.875049722 -102 251 -67.0946322217 251 -18 c 0xec
 251 18.0909880203 232.796659111 40.1556436435 152 102 c 0
 60.3215020287 172.751884304 39 201.809506538 39 256 c 0
 39 345.066103126 104.080810376 412.017051731 213 435 c 1
 190.057656943 457.942343057 178 487.914233172 178 522 c 0
 178 612.883009139 257.860723303 680 366 680 c 0
 452.656546794 680 519.932236982 642.231191473 537 584 c 1
 454 561 l 1
 448.993855846 592.038093757 414.941192255 612 367 612 c 0
 306.458170124 612 265 582.328956676 265 539 c 0xf4
 265 514.11097554 280.829388496 492.12571374 319 464 c 0
 324.910289014 459.77836499 425.543775994 379.456224006 428 377 c 0
 469.62576912 344.294038549 487 313.373797152 487 272 c 0
 487 183.120648067 430.15914573 121.053048577 313 82 c 1
 330.904382302 60.1168660757 340 33.1668877104 340 2 c 0xec
EndSplineSet
EndChar

StartChar: dieresis
Encoding: 168 168 146
Width: 427
GlyphClass: 1
Flags: W
HStem: 590 107<139.742 226.324 352.079 437.324>
VStem: 129 108<600.676 685.987> 341 107<600.742 686.685>
LayerCount: 2
Fore
SplineSet
448 644 m 0
 448 614 424 590 394 590 c 0
 364.777456182 590 341 614.226087431 341 644 c 0
 341 674 364 697 394 697 c 0
 424.783323729 697 448 674.213262178 448 644 c 0
237 644 m 0
 237 614 213 590 183 590 c 0
 153 590 129 614 129 644 c 0
 129 673.222543818 153.226087431 697 183 697 c 0
 213.783323729 697 237 674.213262178 237 644 c 0
EndSplineSet
EndChar

StartChar: copyright
Encoding: 169 169 147
Width: 814
GlyphClass: 1
Flags: W
HStem: -12 62<312.267 519.733> 150 59<359.428 482.409> 473 58<358.222 477.159> 618 62<312.267 519.733>
VStem: 70 62<230.267 437.733> 244 76<251.291 430.969> 700 62<230.267 437.733>
LayerCount: 2
Fore
SplineSet
567 230 m 1
 538.181377602 178.325228803 485.425638956 150 418 150 c 0
 307.718583624 150 244 220.31016124 244 342 c 0
 244 460.062507514 310.058194061 531 420 531 c 0
 485.85982762 531 536.940218183 502.11315844 565 449 c 1
 498 424 l 1
 481.201661703 456.608539048 454.440092801 473 418 473 c 0
 355.954190643 473 320 424.938785977 320 342 c 0
 320 257.928557406 356.052621247 209 418 209 c 0
 456.744849065 209 485.900246467 224.80714317 501 254 c 1
 567 230 l 1
132 334 m 0
 132 176 258 50 416 50 c 0
 574 50 700 176 700 334 c 0
 700 492 574 618 416 618 c 0
 258 618 132 492 132 334 c 0
762 334 m 0
 762 143 607 -12 416 -12 c 0
 225 -12 70 143 70 334 c 0
 70 525 225 680 416 680 c 0
 607 680 762 525 762 334 c 0
EndSplineSet
EndChar

StartChar: questiondown
Encoding: 191 191 148
Width: 527
GlyphClass: 1
Flags: W
HStem: -175 70<107.971 272.981> 388 129<274.968 370.07>
VStem: -14 91<-74.9918 33.7094> 255 85<240.533 316> 259 128<404.669 500.15>
LayerCount: 2
Fore
SplineSet
178 -175 m 0xf0
 62.1369513095 -175 -14 -117.104193275 -14 -29 c 0
 -14 47.5603074455 31.7743695364 102.369092022 138 153 c 0
 211.651661565 188.830538059 245.957120507 236.623613336 255 316 c 1
 340 316 l 1
 330.957700248 234.619302236 294.744465938 165.814157045 240 126 c 0
 180 83 151 81 105 40 c 0
 86.2756720685 23.246653956 77 2.37639180196 77 -23 c 0
 77 -71.0480868901 120.060962969 -105 181 -105 c 0
 265.082589188 -105 319.02451978 -68.9284022418 344 4 c 1
 421 -20 l 1
 386.111174199 -119.682359433 299.387389309 -175 178 -175 c 0xf0
387 452 m 0xe8
 387 416.776654889 357.773709879 388 322 388 c 0
 286.780986445 388 259 416.221954484 259 452 c 0
 259 489.071456023 286.069204162 517 322 517 c 0
 358 517 387 488 387 452 c 0xe8
EndSplineSet
EndChar

StartChar: germandbls
Encoding: 223 223 149
Width: 605
GlyphClass: 1
Flags: W
HStem: -13 77<239 380.149> 0 21G<14 104.248> 329 77<305 404.604> 610 70<279.558 450.876>
VStem: 14 86<0 86> 454 95<134.324 284.346> 483 87<462.514 580.986>
DStem2: 11.2368 -13 97.2368 -13 0.207912 0.978148<31.1708 603.012>
LayerCount: 2
Fore
SplineSet
570 534 m 0x7a
 570 452.652353602 517.66443586 387.932037642 439 372 c 1
 517.182563336 342.932123888 549 297.80921371 549 216 c 0
 549 210 548 203 548 197 c 0
 541.018932914 66.354315956 434.457422916 -13 266 -13 c 2
 252 -13 l 2
 244.392304845 -13 242.381197846 -12.8452994616 239 -12 c 1
 233 67 l 1
 248.826556995 65.0216803756 264.83288288 64 280 64 c 0
 390.863675571 64 454 119.879275644 454 218 c 0xbc
 454 290.85768812 406.201787188 325.994122703 303 329 c 1
 289 329 l 1
 305 406 l 1
 320 406 l 1
 419.876723428 409.995068937 483 454.917155332 483 522 c 0
 483 577.853300679 443.18192925 610 374 610 c 0
 270.848039152 610 219.964724638 564.833911836 196 452 c 2
 100 0 l 1
 14 0 l 1
 110 452 l 1
 146.868767413 617.41122677 220.438027174 680 378 680 c 0
 496.678277485 680 570 624.244940171 570 534 c 0x7a
EndSplineSet
EndChar

StartChar: AE
Encoding: 198 198 150
Width: 987
GlyphClass: 1
Flags: W
HStem: 0 81<549 891> 145 81<267 466> 303 80<613 862> 586 81<656 1015>
VStem: -52 112<0 112>
DStem2: -52 0 60 0 0.686079 0.727527<76.8408 274.267 383.28 383.28> 435.179 0 531.783 0 0.207912 0.978148<102.895 148.239 231.004 329.815 411.602 540.897>
AnchorPoint: "Anchor-1" 738 667 basechar 0
LayerCount: 2
Fore
SplineSet
267 226 m 1
 483 226 l 1
 548 529 l 1
 267 226 l 1
-52 0 m 1
 577 667 l 1
 1032 667 l 1
 1015 586 l 1
 656 586 l 1
 613 383 l 1
 879 383 l 1
 862 303 l 1
 596 303 l 1
 549 81 l 1
 908 81 l 1
 891 0 l 1
 435 0 l 1
 466 145 l 1
 194 145 l 1
 60 0 l 1
 -52 0 l 1
EndSplineSet
EndChar

StartChar: florin
Encoding: 402 402 151
Width: 330
GlyphClass: 1
Flags: W
HStem: -173 78<-58.1011 22.9274> 428 68<69 138 237 325> 635 71<275.413 368>
DStem2: 10.3291 -173 96.3049 -173 0.207912 0.978148<81.9337 614.411 701.508 838.67>
LayerCount: 2
Fore
SplineSet
-56 -90 m 1
 -36.276503541 -93.9446992918 -29.1004587252 -95 -22 -95 c 0
 12.9859170828 -95 30.9955693751 -75.0205419883 42 -24 c 2
 138 428 l 1
 54 428 l 1
 69 496 l 1
 153 496 l 1
 165 555 l 1
 192.032244425 680.149279744 221.135704315 706 335 706 c 2
 384 706 l 1
 368 635 l 1
 328 635 l 2
 285.459708021 635 262.875424924 615.426954649 253 570 c 2
 237 496 l 1
 339 496 l 1
 325 428 l 1
 224 428 l 1
 125 -38 l 1
 106.019922317 -133.899339874 68.0778002687 -173 -6 -173 c 0
 -25.1737595633 -173 -45.3234649554 -170.557611468 -72 -165 c 1
 -56 -90 l 1
EndSplineSet
EndChar

StartChar: integral
Encoding: 8747 8747 152
Width: 306
GlyphClass: 1
Flags: W
HStem: -173 112<-14.3325 59.1726> 569 112<231.864 305.332>
VStem: -30 99<-126.451 -69.4714> 104 84<-97.2529 604.687> 221 100<577.438 634.759>
LayerCount: 2
Fore
SplineSet
188 44 m 0
 188 -102.421360869 144.742124404 -173 55 -173 c 0
 0.0806169043978 -173 -30 -151.05884414 -30 -111 c 0
 -30 -83 -8 -61 20 -61 c 0
 47.931406157 -61 69 -82.9285364489 69 -112 c 2
 69 -120 l 2
 69 -122 71 -115 67 -127 c 1
 92.9044654737 -122.018372024 104 -93.2299581183 104 -31 c 0
 104 185 103 248 103 464 c 0
 103 609.105282335 147.064504375 681 236 681 c 0
 290.919383096 681 321 659.05884414 321 619 c 0
 321 591 299 569 271 569 c 0
 243 569 221 591 221 619 c 0
 221 624.834577184 221.940737465 629.851843661 224 635 c 1
 198.033364527 630.006416255 187 601.081109251 187 538 c 0
 187 322 188 260 188 44 c 0
EndSplineSet
EndChar

StartChar: approxequal
Encoding: 8776 8776 153
Width: 605
GlyphClass: 1
Flags: W
HStem: 97 73<308.395 444.656> 151 74<144.892 280.634> 283 73<310.558 444.294> 337 74<145.864 281.442>
VStem: 57 75<120.947 137.432 306.947 323.589> 458 74<184.681 201.081 370.681 387.081>
LayerCount: 2
Fore
SplineSet
532 199 m 1x8c
 517 136 465 97 396 97 c 0x8c
 321 97 271 151 196 151 c 0
 161.019997307 151 138.003432956 133.018309101 132 101 c 1
 57 123 l 1
 71.8986092601 186.56739951 123.518866781 225 194 225 c 0x4c
 271 225 318 170 395 170 c 0
 428.265181831 170 452.047283251 189.25217734 458 221 c 1
 532 199 l 1x8c
532 385 m 1
 517 322 465 283 396 283 c 0x2c
 321 283 271 337 196 337 c 0
 161.019997307 337 138.003432956 319.018309101 132 287 c 1
 57 309 l 1
 74.0950670619 373.357899527 125.391654961 411 196 411 c 0x1c
 273 411 319 356 396 356 c 0x2c
 428.452384521 356 452.081984706 375.437251765 458 407 c 1
 532 385 l 1
EndSplineSet
EndChar

StartChar: notequal
Encoding: 8800 8800 154
Width: 658
GlyphClass: 1
Flags: W
HStem: 0 21G<97 211.05> 121 79<73 182 337 569> 307 80<73 312 468 569> 476 20G<430.872 544>
VStem: 97 100<0 100> 445 99<397 496>
DStem2: 97 0 197 0 0.574348 0.818611<57.4348 147.872 301.566 374.798 529.886 605.904>
LayerCount: 2
Fore
SplineSet
97 0 m 1
 182 121 l 1
 73 121 l 1
 73 200 l 1
 238 200 l 1
 312 307 l 1
 73 307 l 1
 73 387 l 1
 368 387 l 1
 445 496 l 1
 544 496 l 1
 468 387 l 1
 569 387 l 1
 569 307 l 1
 412 307 l 1
 337 200 l 1
 569 200 l 1
 569 121 l 1
 282 121 l 1
 197 0 l 1
 97 0 l 1
EndSplineSet
EndChar

StartChar: lessequal
Encoding: 8804 8804 155
Width: 651
GlyphClass: 1
Flags: W
HStem: 0 80<63 536> 100 90<446 536> 414 91<445 536>
VStem: 63 105<214.5 389.5>
LayerCount: 2
Fore
SplineSet
63 0 m 1
 63 80 l 1
 536 80 l 1
 536 0 l 1
 63 0 l 1
536 100 m 1
 63 267 l 1
 63 337 l 1
 536 505 l 1
 536 414 l 1
 168 302 l 1
 536 190 l 1
 536 100 l 1
EndSplineSet
EndChar

StartChar: greaterequal
Encoding: 8805 8805 156
Width: 686
GlyphClass: 1
Flags: W
HStem: 0 80<98 571> 100 90<98 188> 414 91<98 189>
VStem: 466 105<214.5 389.5>
LayerCount: 2
Fore
SplineSet
98 0 m 1
 98 80 l 1
 571 80 l 1
 571 0 l 1
 98 0 l 1
98 100 m 1
 98 190 l 1
 466 302 l 1
 98 414 l 1
 98 505 l 1
 571 337 l 1
 571 267 l 1
 98 100 l 1
EndSplineSet
EndChar

StartChar: lozenge
Encoding: 9674 9674 157
Width: 561
GlyphClass: 1
Flags: W
VStem: 58 87<271.5 358.5> 426 87<271.5 358.5>
DStem2: 58 315 145 315 0.506632 0.862163<44.077 321.569> 145 315 58 315 0.506632 -0.862163<0 277.492> 286 703 286 554 0.504977 -0.863133<128.607 405.592> 286 76 286 -73 0.504977 0.863133<0 276.986>
LayerCount: 2
Fore
SplineSet
286 76 m 1
 426 315 l 1
 286 554 l 1
 145 315 l 1
 286 76 l 1
286 -73 m 1
 58 315 l 1
 286 703 l 1
 513 315 l 1
 286 -73 l 1
EndSplineSet
EndChar

StartChar: summation
Encoding: 8721 8721 158
Width: 763
GlyphClass: 1
Flags: W
HStem: -161 81<224 604> 587 81<224 604>
DStem2: 224 587 123 587 0.594187 -0.804327<0 353.998> 123 -80 224 -80 0.593035 0.805177<59.8965 414.816>
LayerCount: 2
Fore
SplineSet
123 -161 m 1
 123 -80 l 1
 369 254 l 1
 123 587 l 1
 123 668 l 1
 604 668 l 1
 604 587 l 1
 224 587 l 1
 469 254 l 1
 224 -80 l 1
 604 -80 l 1
 604 -161 l 1
 123 -161 l 1
EndSplineSet
EndChar

StartChar: minus
Encoding: 8722 8722 159
Width: 619
GlyphClass: 1
Flags: W
HStem: 209 79<42 538>
LayerCount: 2
Fore
SplineSet
42 209 m 1
 42 288 l 1
 538 288 l 1
 538 209 l 1
 42 209 l 1
EndSplineSet
EndChar

StartChar: uni2215
Encoding: 8725 8725 160
Width: 444
GlyphClass: 1
Flags: W
HStem: 0 21G<-47 55.012> 648 20G<406.988 509>
VStem: -47 88<0 88> 421 88<580 668>
DStem2: -47 0 41 0 0.573791 0.819001<50.4936 815.627>
LayerCount: 2
Fore
SplineSet
-47 0 m 1
 421 668 l 1
 509 668 l 1
 41 0 l 1
 -47 0 l 1
EndSplineSet
EndChar

StartChar: uni2219
Encoding: 8729 8729 161
Width: 237
GlyphClass: 1
Flags: W
HStem: 191 129<62.8503 158.159>
VStem: 46 129<208.357 303.15>
LayerCount: 2
Fore
SplineSet
175 256 m 0
 175 220.726167847 145.731157812 191 111 191 c 0
 74.2184933369 191 46 218.78436267 46 255 c 0
 46 291 75 320 111 320 c 0
 146 320 175 291 175 256 c 0
EndSplineSet
EndChar

StartChar: radical
Encoding: 8730 8730 162
Width: 513
GlyphClass: 1
Flags: W
HStem: -161 21G<257.157 367.639> 145 80<39 145> 649 20G<423.516 515>
VStem: 427 88<581 669>
DStem2: 201 225 145 145 0.365088 -0.930973<54.033 281.519> 304 -37 364 -161 0.17899 0.983851<0 716.615>
LayerCount: 2
Fore
SplineSet
265 -161 m 1
 145 145 l 1
 39 145 l 1
 39 225 l 1
 201 225 l 1
 304 -37 l 1
 427 669 l 1
 515 669 l 1
 364 -161 l 1
 265 -161 l 1
EndSplineSet
EndChar

StartChar: infinity
Encoding: 8734 8734 163
Width: 780
GlyphClass: 1
Flags: W
HStem: 104 76<154.525 278.984 487.234 610.475> 330 76<153.872 280.069 484.846 611.128>
VStem: 49 81<204.672 306.691> 635 81<204.672 306.691>
LayerCount: 2
Fore
SplineSet
431 256 m 1
 476.229853718 200.719067678 509.216790416 180 552 180 c 0
 598.980264794 180 635 212.981926212 635 256 c 0
 635 299.941876707 600.067586443 330 549 330 c 0
 508.242834489 330 475.264620048 309.318746876 431 256 c 1
130 256 m 0
 130 212.981926212 166.019735206 180 213 180 c 0
 256.842262812 180 291.844423232 201.804624524 335 256 c 1
 288.908617611 310.107274978 256.918965211 330 216 330 c 0
 164.932413557 330 130 299.941876707 130 256 c 0
556 104 m 0
 495.186018915 104 442.181319372 132.80024137 383 198 c 1
 323.671967785 132.638608577 270.660075313 104 209 104 c 0
 114.131540496 104 49 165.874963472 49 256 c 0
 49 344.777226036 116.753203187 406 215 406 c 0
 274.573840227 406 326.594981062 378.441181343 383 317 c 1
 438.249728696 378.276971826 490.269343359 406 550 406 c 0
 648.246796813 406 716 344.777226036 716 256 c 0
 716 165.874963472 650.868459504 104 556 104 c 0
EndSplineSet
EndChar

StartChar: uni03A9
Encoding: 937 937 164
Width: 773
GlyphClass: 1
Flags: W
HStem: 0 173<259.785 311 426 477.215> 0 81<75 226 511 662> 606 74<273.167 463.11>
VStem: 75 73<289.478 480.372> 226 85<81 143.167> 426 85<81 143.209> 589 73<289.392 480.27>
LayerCount: 2
Fore
SplineSet
148 385 m 0xbe
 148 285.419867515 213.588537108 200.114530908 311 173 c 1
 311 0 l 1xbe
 75 0 l 1
 75 81 l 1
 226 81 l 1
 226 130 l 1
 132.329419107 182.814263695 75 279.628845631 75 385 c 0
 75 549.056317716 205.055928506 680 368 680 c 0
 530.72381855 680 662 548.277300926 662 385 c 0
 662 279.129103416 605.114830971 183.064745122 511 130 c 1
 511 81 l 1
 662 81 l 1
 662 0 l 1x7e
 426 0 l 1
 426 173 l 1
 523.411462892 200.114530908 589 285.419867515 589 385 c 0
 589 507 490 606 368 606 c 0
 246.775939411 606 148 506.775079046 148 385 c 0xbe
EndSplineSet
EndChar

StartChar: estimated
Encoding: 8494 8494 165
Width: 628
GlyphClass: 1
Flags: W
HStem: -12 32<223.62 390.382> 248 31<156 460> 472 32<226.278 390.467>
VStem: 50 106<149.642 248 279 351.2> 460 106<279 347.883>
LayerCount: 2
Fore
SplineSet
308 472 m 0
 251.050836661 472 197.036647637 451.033966102 156 413 c 1
 156 279 l 1
 460 279 l 1
 460 413 l 1
 418.963352363 451.033966102 364.949163339 472 308 472 c 0
511 87 m 1
 462.055540866 24.071409685 388.090933128 -12 308 -12 c 0
 160.854448906 -12 50 103.151132972 50 256 c 0
 50 389.806253398 168.798333158 504 308 504 c 0
 451.05469151 504 566 389.945740413 566 248 c 1
 156 248 l 1
 156 78 l 1
 197.786491931 40.1931739674 250.706534052 20 308 20 c 0
 372.591519329 20 433.719128392 47.687211164 478 97 c 1
 511 87 l 1
EndSplineSet
EndChar

StartChar: partialdiff
Encoding: 8706 8706 166
Width: 595
GlyphClass: 1
Flags: W
HStem: -12 73<214.895 361.926> 430 74<214.842 362.651> 598 82<140 306.106>
VStem: 51 89<146.824 344.974> 437 91<145.225 344.736>
LayerCount: 2
Fore
SplineSet
140 246 m 0
 140 136.869094689 201.105378966 61 289 61 c 0
 377 61 437 136 437 246 c 0
 437 355.702873796 377.239268053 430 289 430 c 0
 200.866805586 430 140 354.835622632 140 246 c 0
528 277 m 0
 528 93.1004056165 441.083055563 -12 289 -12 c 0
 146.968990809 -12 51 92.0336118849 51 246 c 0
 51 399.966388115 146.968990809 504 289 504 c 0
 342.833447361 504 393.9160917 483.102554588 421 450 c 1
 387.95466176 554.14288415 311.79737275 598 164 598 c 2
 140 598 l 1
 140 680 l 1
 414.196068066 680 528 561.796431522 528 277 c 0
EndSplineSet
EndChar

StartChar: uni0394
Encoding: 916 916 167
Width: 759
GlyphClass: 1
Flags: W
HStem: 0 78<116 518> 660 20G<307.412 326.618>
DStem2: -9 0 116 78 0.4323 0.90173<124.372 589.991> 317 680 317 498 0.433377 -0.901213<164.021 629.639>
LayerCount: 2
Fore
SplineSet
116 78 m 1
 518 78 l 1
 317 498 l 1
 116 78 l 1
-9 0 m 1
 317 680 l 1
 644 0 l 1
 -9 0 l 1
EndSplineSet
EndChar

StartChar: product
Encoding: 8719 8719 168
Width: 761
GlyphClass: 1
Flags: W
HStem: -161 21G<133 214 530 612> 587 81<214 530>
VStem: 133 81<-161 587> 530 82<-161 587>
LayerCount: 2
Fore
SplineSet
133 -161 m 1
 133 668 l 1
 612 668 l 1
 612 -161 l 1
 530 -161 l 1
 530 587 l 1
 214 587 l 1
 214 -161 l 1
 133 -161 l 1
EndSplineSet
EndChar

StartChar: pi
Encoding: 960 960 169
Width: 590
GlyphClass: 1
Flags: W
HStem: 0 75<430.5 488> 416 80<63 129 212 406 492 576>
VStem: 41 83<0 83> 338 90<44.3786 194.633>
DStem2: 41 0 124 0 0.207912 0.978148<17.2567 425.206> 318.43 0 404.242 0 0.207912 0.978148<121.709 425.116>
LayerCount: 2
Fore
SplineSet
437 0 m 2
 366.347351076 0 338 19.7572446894 338 69 c 0
 338 82 340 98 345 125 c 2
 406 416 l 1
 212 416 l 1
 124 0 l 1
 41 0 l 1
 129 416 l 1
 46 416 l 1
 63 496 l 1
 594 496 l 1
 576 416 l 1
 492 416 l 1
 434 140 l 1
 428 104 428 104 428 101 c 0
 428 82.0454232837 439.923024019 75 472 75 c 2
 504 75 l 1
 488 0 l 1
 437 0 l 2
EndSplineSet
EndChar

StartChar: hungarumlaut
Encoding: 733 733 170
Width: 394
GlyphClass: 1
Flags: W
HStem: 572 136<249 272>
VStem: 103 329
LayerCount: 2
Fore
SplineSet
396 708 m 0
 416.921113642 708 432 692.083397733 432 670 c 0
 432 648.091678692 422.371077155 639.248790365 334 580 c 2
 322 572 l 1
 249 572 l 1
 264 589 l 1
 323.331251675 653.725001827 360.658868451 692.461207916 370 699 c 0
 377.857774981 704.893331236 386.832595856 708 396 708 c 0
250 708 m 0
 272 708 287 693 287 671 c 0
 287 647.676774316 276.796795173 638.202369834 189 580 c 2
 177 572 l 1
 103 572 l 1
 114 583 l 2
 115 584 212 689 224 699 c 0
 231.857774981 704.893331236 240.832595856 708 250 708 c 0
EndSplineSet
EndChar

StartChar: tilde
Encoding: 732 732 171
Width: 420
GlyphClass: 1
Flags: W
HStem: 575 63<280.953 385.874> 617 63<167.197 282.535>
LayerCount: 2
Fore
SplineSet
424 680 m 0x40
 441.210191144 680 454 666.783864182 454 649 c 0
 454 633.664912232 439.407390904 614.555543178 412 594 c 0
 395.901499406 581.926124555 371.8423299 575 346 575 c 0x80
 284 575 279 617 217 617 c 0
 187.573469764 617 166.829760899 603.616962022 155 577 c 1
 90 577 l 1
 114.995743403 642.988762583 160.990290873 680 218 680 c 0x40
 278 680 286 638 346 638 c 0x80
 383 638 387 680 424 680 c 0x40
EndSplineSet
EndChar

StartChar: endash
Encoding: 8211 8211 172
Width: 497
GlyphClass: 1
Flags: W
HStem: 208 79<40 438>
LayerCount: 2
Fore
SplineSet
40 208 m 1
 40 287 l 1
 438 287 l 1
 438 208 l 1
 40 208 l 1
EndSplineSet
EndChar

StartChar: emdash
Encoding: 8212 8212 173
Width: 817
GlyphClass: 1
Flags: W
HStem: 208 79<40 758>
LayerCount: 2
Fore
SplineSet
40 208 m 1
 40 287 l 1
 758 287 l 1
 758 208 l 1
 40 208 l 1
EndSplineSet
EndChar

StartChar: trademark
Encoding: 8482 8482 174
Width: 928
GlyphClass: 1
Flags: W
HStem: 292 92<592 756> 608 60<133 251 318 436>
VStem: 251 67<292 608> 473 67<292 571> 808 67<292 571>
DStem2: 581 668 540 571 0.311204 -0.950343<79.4239 298.839> 674 384 710 292 0.311204 0.950343<0 219.415>
LayerCount: 2
Fore
SplineSet
251 292 m 1
 251 608 l 1
 133 608 l 1
 133 668 l 1
 436 668 l 1
 436 608 l 1
 318 608 l 1
 318 292 l 1
 251 292 l 1
473 292 m 1
 473 668 l 1
 581 668 l 1
 674 384 l 1
 767 668 l 1
 875 668 l 1
 875 292 l 1
 808 292 l 1
 808 571 l 1
 710 292 l 1
 638 292 l 1
 540 571 l 1
 540 292 l 1
 473 292 l 1
EndSplineSet
EndChar

StartChar: Euro
Encoding: 8364 8364 175
Width: 697
GlyphClass: 1
Flags: W
HStem: -12 79<294.678 474.03> 240 51<43 117.681 208 332> 376 51<72 129 238 435> 499 21G<592.472 661.621> 600 79<365.601 541.635>
VStem: 116 92<160.077 240 291 374.58>
LayerCount: 2
Fore
SplineSet
631 139 m 1
 572.013466495 40.0225963228 480.02649154 -12 364 -12 c 0
 258.678054266 -12 183.884368799 32.2586487396 146 117 c 0
 129 156 119 197 116 240 c 1
 4 240 l 1
 43 291 l 1
 116 291 l 1
 118.110525919 322.65788878 122.339733781 350.310401728 129 376 c 1
 33 376 l 1
 72 427 l 1
 144 427 l 1
 198.969070375 585.910585265 317.916655869 679 466 679 c 0
 582.039738366 679 660.009583877 625.966456432 688 528 c 1
 603 499 l 1
 581.943466721 564.174983958 529.80210674 600 456 600 c 0
 360.693413192 600 280.862323878 536.647805269 238 427 c 1
 474 427 l 1
 435 376 l 1
 221 376 l 1
 213.662322824 345.601051699 209.871264982 322.583914802 207 291 c 1
 370 291 l 1
 332 240 l 1
 208 240 l 1
 218.982781932 133.167484846 282.855440713 67 375 67 c 0
 456.382839333 67 510.214834275 97.3362623431 556 169 c 1
 631 139 l 1
EndSplineSet
EndChar

StartChar: uni2113
Encoding: 8467 8467 176
Width: 451
GlyphClass: 1
Flags: W
HStem: -12 73<179.992 292.816> 609 70<281.169 363.438>
VStem: 83 89<69.809 185.045> 367 80<485.193 604.847>
DStem2: 39 227 98 188 0.839193 0.543834<0 28.3028 213.3 335.561> 55.4887 -12 142.353 -12 0.207912 0.978148<146.883 204.468 381.03 648.679>
LayerCount: 2
Fore
SplineSet
367 567 m 0
 367 595.342510858 353.667689171 609 326 609 c 0
 287.760435558 609 268.91315226 584.578168122 255 517 c 2
 218 343 l 1
 300.562530033 393.731193153 367 493.610342634 367 567 c 0
345 42 m 1
 305.697492635 8.74403222989 249.611775866 -12 199 -12 c 0
 120.05998824 -12 83 19.9482657241 83 88 c 2
 83 98 l 2
 83 113.025943376 84.8522995464 124.139740654 98 188 c 1
 20 138 l 1
 39 227 l 1
 117 278 l 1
 166 506 l 2
 177.891471861 560.502579362 195.787185314 603.722415628 219 634 c 0
 241.851851468 663.806762785 279.66613076 679 331 679 c 0
 404.268083145 679 447 637.741597519 447 567 c 0
 447 453.686509255 374.512405104 361.69422015 198 251 c 1
 177 151 l 2
 173.254410209 131.023521113 172 121.490003527 172 113 c 0
 172 77.8394358237 189.163271128 61 225 61 c 0
 254.231245737 61 284.2892188 73.2110515569 321 100 c 1
 345 42 l 1
EndSplineSet
EndChar

StartChar: Lslash
Encoding: 321 321 177
Width: 572
GlyphClass: 1
Flags: W
HStem: 0 82<158 500> 484 20G<389.778 422.89> 648 20G<182.745 283>
VStem: 187 96<572 668>
DStem2: 18 287 3 214 0.883367 0.468681<0 64.3605 234.827 415.537> 45 0 140.57 0 0.207912 0.978148<103.702 272.038 346.562 351.225 424.978 682.926>
LayerCount: 2
Fore
SplineSet
45 0 m 1
 102 266 l 1
 3 214 l 1
 18 287 l 1
 117 339 l 1
 187 668 l 1
 283 668 l 1
 226 396 l 1
 427 504 l 1
 412 431 l 1
 210 324 l 1
 158 82 l 1
 517 82 l 1
 500 0 l 1
 45 0 l 1
EndSplineSet
EndChar

StartChar: lslash
Encoding: 322 322 178
Width: 273
GlyphClass: 1
Flags: W
HStem: 0 75<133.376 196> 648 20G<158.767 249>
VStem: 40 91.9969<77.0176 191.469> 163 86<582 668>
DStem2: 18 303 79 272 0.884496 0.466547<0 39.4913 195.007 262.258> 20.4304 0 107.242 0 0.207912 0.978148<126.41 278.233 419.875 683.044>
AnchorPoint: "Anchor-1" 205 668 basechar 0
AnchorPoint: "Anchor-0" 97 0 basechar 0
LayerCount: 2
Fore
SplineSet
140 0 m 2
 67.9705848554 0 40 19.0199977017 40 68 c 0
 40 82.8697506263 42.2687157098 101.343578549 47 125 c 2
 79 272 l 1
 3 232 l 1
 18 303 l 1
 94 342 l 1
 163 668 l 1
 249 668 l 1
 191 393 l 1
 291 447 l 1
 276 376 l 1
 176 323 l 1
 137 140 l 1
 132.237968328 110.237302052 131.996942494 108.959865131 131.996942494 105.351833213 c 0
 131.996942494 104.945462668 132 104.509527625 132 104 c 0
 132 83.0464824304 143.93099119 75 175 75 c 2
 212 75 l 1
 196 0 l 1
 140 0 l 2
EndSplineSet
EndChar

StartChar: oslash
Encoding: 248 248 179
Width: 548
GlyphClass: 1
Flags: W
HStem: -12 74<163.733 312.133> 430 74<211.622 368.676>
VStem: 27 89<149.344 315.076> 413 90<183.509 346.794>
DStem2: -10 26 25 -11 0.728741 0.68479<0.168716 80.6986 179.694 524.387 618.703 705.326>
AnchorPoint: "Anchor-1" 321 496 basechar 0
LayerCount: 2
Fore
SplineSet
238 62 m 0
 338.867682215 62 413 162.819952187 413 300 c 0
 413 318 411 334 407 348 c 1
 145 102 l 1
 165.805664545 75.2498598712 196.611588745 62 238 62 c 0
290 430 m 0
 186.320302587 430 116 335.43131721 116 196 c 0
 116 172.159681274 117.274950199 160.175149403 121 149 c 1
 384 395 l 1
 363.11030251 418.873939988 333.228884193 430 290 430 c 0
503 297 m 0
 503 124.661636354 382.702378355 -12 231 -12 c 0
 169.236142354 -12 118.138427346 6.86157265381 82 43 c 1
 25 -11 l 1
 -10 26 l 1
 52 84 l 1
 35.2707746295 113.522162419 27 151.236894729 27 198 c 0
 27 374.141327253 144.127430321 504 303 504 c 0
 356.905699461 504 406.936860249 485.059631987 443 451 c 1
 504 509 l 1
 539 472 l 1
 475 411 l 1
 493.716831604 379.476915194 503 341.681158152 503 297 c 0
EndSplineSet
EndChar

StartChar: Oslash
Encoding: 216 216 180
Width: 725
GlyphClass: 1
Flags: W
HStem: -12 79<238.442 421.582> 600 79<323.669 503.918>
VStem: 53 95<182.079 402.445> 594 95<264.816 496.155>
DStem2: 4 32 39 -4 0.728976 0.684539<0.870751 109.116 217.175 735.241 837.101 945.161>
AnchorPoint: "Anchor-1" 438 668 basechar 0
LayerCount: 2
Fore
SplineSet
187 134 m 1
 219.02135378 90.9713058577 268.037307549 67 324 67 c 0
 478.878068089 67 594 206.851828396 594 395 c 0
 594 436.246067375 587.624261018 470.809283961 575 498 c 1
 187 134 l 1
418 600 m 0
 263.915398584 600 148 457.896307662 148 269 c 0
 148 239.201810535 152.613570318 210.202225676 162 181 c 1
 547 542 l 1
 514.227226484 580.73145961 471.371334927 600 418 600 c 0
689 402 m 0
 689 163.119035591 529.108706635 -12 311 -12 c 0
 228.9512124 -12 162.973265931 16.0320808834 118 70 c 1
 39 -4 l 1
 4 32 l 1
 89 112 l 1
 64.9340205874 156.120962256 53 208.16655204 53 269 c 0
 53 505.727576876 212.748721807 679 431 679 c 0
 505.993150838 679 568.995798225 654.004384461 615 606 c 1
 693 679 l 1
 728 642 l 1
 647 566 l 1
 674.926364202 520.120973096 689 465.166776172 689 402 c 0
EndSplineSet
EndChar

StartChar: Thorn
Encoding: 222 222 181
Width: 583
GlyphClass: 1
Flags: W
HStem: 155 81<151 400.752> 438 81<211 436.687>
VStem: 13 86<-8 78> 155 86<573 659> 460 102<288.722 415.372>
DStem2: 13 -8 99 -8 0.207912 0.978148<17.8804 184.595 267.36 473.886 556.65 681.948>
LayerCount: 2
Fore
SplineSet
460 366 m 0
 460 417.832214069 423.305833932 438 329 438 c 2
 194 438 l 1
 151 236 l 1
 287 236 l 2
 406.384941773 236 460 276.288772078 460 366 c 0
338 519 m 2
 488.960995469 519 562 473.024555184 562 378 c 0
 562 293.862696331 521.899058679 219.951157425 460 190 c 0
 410.330043832 166.685530778 343.889454549 155 261 155 c 2
 134 155 l 1
 99 -8 l 1
 13 -8 l 1
 155 659 l 1
 241 659 l 1
 211 519 l 1
 338 519 l 2
EndSplineSet
EndChar

StartChar: ae
Encoding: 230 230 182
Width: 870
GlyphClass: 1
Flags: W
HStem: -12 68<116.228 257.944 504.684 651.465> 225 67<167.527 359 456 748.965> 432 72<202.834 360.235 543.613 700.317>
VStem: 6 94<72.1837 176.974> 749 88<292.182 383.674>
AnchorPoint: "Anchor-1" 458 496 basechar 0
LayerCount: 2
Fore
SplineSet
100 120 m 0
 100 79.9466504952 128.062481049 56 175 56 c 0
 267.506648326 57.005507047 337.119541471 120.565105136 359 224 c 1
 169.865357064 224 100 195.945957009 100 120 c 0
749 310 m 2
 749 384.387538498 700.607006342 432 625 432 c 0
 543.403147965 432 475.094539141 375.412986773 456 292 c 1
 748 292 l 1
 748.82739606 293.65479212 749 295.38083152 749 302 c 2
 749 310 l 2
382 100 m 1
 335.890041402 28.8302812945 256.781371394 -12 165 -12 c 0
 64.853797128 -12 6 36.1194567713 6 118 c 0
 6 243.900299396 105.793057 292 367 292 c 1
 373.466502464 313.247079525 377 336.214813508 377 357 c 0
 377 410.071453356 347.916695582 435 286 435 c 0
 227.408417533 435 182.15494212 407.345098359 160 358 c 1
 84 382 l 1
 119.058237087 459.128121592 191.147484366 504 280 504 c 0
 365.333656958 504 421.097181822 479.813410903 446 432 c 1
 495.892299376 479.896607401 559.833243631 504 637 504 c 0
 758.975610826 504 837 424.025001097 837 299 c 0
 837 274.833048918 833.958974239 249.82905933 828 225 c 1
 443 225 l 1
 442.140175425 221.5607017 442 219.598245749 442 211 c 2
 442 198 l 2
 442 111.865623101 491.132305114 62 576 62 c 0
 625.663824435 62 667.788022624 78.7811846443 699 111 c 1
 777 87 l 1
 727.053779749 22.0699136742 654.095984811 -12 565 -12 c 0
 479.678286218 -12 413.880006484 28.2699854109 382 100 c 1
EndSplineSet
EndChar

StartChar: eth
Encoding: 240 240 183
Width: 569
GlyphClass: 1
Flags: W
HStem: -12 71<168.842 319.222> 370 75<188.465 347.426> 604 75<237 349.053>
VStem: 24 83<120.705 285.394> 441 86<339.565 510.229>
DStem2: 273 509 301 473 0.771281 0.636494<0 109.342 205.333 265.77>
LayerCount: 2
Fore
SplineSet
107 196 m 0
 107 116.922206705 164.076627045 59 242 59 c 0
 336.223576269 59 400 131.253037012 400 238 c 0
 400 318.333635814 350.682106913 370 274 370 c 0
 175.071828103 370 107 299.074861737 107 196 c 0
527 383 m 0
 527 144.830482445 409.873437161 -12 232 -12 c 0
 116.556816592 -12 24 81.4467859824 24 198 c 0
 24 339.786650022 128.787384998 445 270 445 c 0
 345.839692942 445 414.953357773 401.131446275 437 339 c 1
 439.740384862 356.355770791 441 375.564901649 441 400 c 0
 441 464.968088966 425.015237754 515.983287625 394 550 c 1
 301 473 l 1
 273 509 l 1
 357 579 l 1
 326.173010107 595.905123489 289.260373219 604 243 604 c 0
 236 604 228 603 221 603 c 1
 237 679 l 1
 257 679 l 2
 328.272995611 679 382.16375232 664.885754195 425 635 c 1
 478 679 l 1
 507 643 l 1
 460 605 l 1
 502.893626528 559.113794876 527 479.238945463 527 383 c 0
EndSplineSet
EndChar

StartChar: thorn
Encoding: 254 254 184
Width: 557
GlyphClass: 1
Flags: W
HStem: -161 21G<-26 64.3137> -12 72<193.256 327.657> 432 72<240.043 373.755> 648 20G<145.754 236>
VStem: -26 86<-161 -75> 150 86<582 668> 419 91<176.32 384.139>
DStem2: -26 -161 60 -161 0.207912 0.978148<17.8804 278.743 630.404 847.477>
LayerCount: 2
Fore
SplineSet
141 218 m 0
 141 118.379831327 185.708605003 60 262 60 c 0
 349.148755637 60 419 163.219673199 419 292 c 0
 419 381.045459955 378.964289965 432 309 432 c 0
 217.074754904 432 141 335.095252682 141 218 c 0
510 291 m 0
 510 115.191793962 407.155150097 -12 265 -12 c 0
 193.009433689 -12 135.002621308 28.9914807492 115 94 c 1
 60 -161 l 1
 -26 -161 l 1
 150 668 l 1
 236 668 l 1
 188 438 l 1
 220.939901505 480.92168984 269.893892754 504 328 504 c 0
 440.894388416 504 510 423.123652377 510 291 c 0
EndSplineSet
EndChar

StartChar: multiply
Encoding: 215 215 185
Width: 593
GlyphClass: 1
Flags: W
HStem: 193 115<230.5 345.5>
DStem2: 134 462 77 404 0.707107 -0.707107<0.707107 217.789 299.813 516.188> 77 97 134 39 0.707107 0.707107<0 217.082 298.399 515.481>
LayerCount: 2
Fore
SplineSet
134 39 m 1
 77 97 l 1
 231 250 l 1
 77 404 l 1
 134 462 l 1
 288 308 l 1
 442 462 l 1
 499 404 l 1
 346 250 l 1
 499 97 l 1
 442 39 l 1
 288 193 l 1
 134 39 l 1
EndSplineSet
EndChar

StartChar: divide
Encoding: 247 247 186
Width: 619
GlyphClass: 1
Flags: W
HStem: 14 129<251.93 347.603> 208 81<52 548> 354 129<251.85 347.603>
VStem: 235 129<30.8503 126.331 370.397 466.15>
CounterMasks: 1 e0
LayerCount: 2
Fore
SplineSet
364 79 m 0
 364 42.2184933369 336.21563733 14 300 14 c 0
 264 14 235 43 235 79 c 0
 235 114.223345111 264.226290121 143 300 143 c 0
 336 143 364 115 364 79 c 0
52 208 m 1
 52 289 l 1
 548 289 l 1
 548 208 l 1
 52 208 l 1
364 418 m 0
 364 382 336 354 300 354 c 0
 263.218493337 354 235 381.78436267 235 418 c 0
 235 454 264 483 300 483 c 0
 336.21563733 483 364 454.781506663 364 418 c 0
EndSplineSet
EndChar

StartChar: OE
Encoding: 338 338 187
Width: 1070
GlyphClass: 1
Flags: W
HStem: -12 80<240.639 421.372> 0 82<631 974> 304 80<696 944> 587 81<739 1098> 601 79<323.511 503.449>
VStem: 53 95<165.037 403>
LayerCount: 2
Fore
SplineSet
148 269 m 0xac
 148 146.900550521 217.087049212 68 324 68 c 0
 477.909101612 68 594 209.888875808 594 398 c 0
 594 520.630922486 524.320405702 601 418 601 c 0
 263.74087688 601 148 458.681588429 148 269 c 0xac
551 80 m 1
 485.912329504 17.9163758345 407.869609936 -12 311 -12 c 0
 153.998220636 -12 53 98.0019379797 53 269 c 0
 53 507.059526843 212.054741735 680 431 680 c 0xac
 528.971546671 680 607.987215856 636.02295335 652 557 c 1
 676 668 l 1
 1115 668 l 1
 1098 587 l 1
 739 587 l 1
 696 384 l 1
 961 384 l 1
 944 304 l 1
 678 304 l 1
 631 82 l 1
 991 82 l 1
 974 0 l 1
 534 0 l 1x74
 551 80 l 1
EndSplineSet
EndChar

StartChar: oe
Encoding: 339 339 188
Width: 910
GlyphClass: 1
Flags: W
HStem: -12 70<159.549 298.711 542.264 696.465> 226 67<497 790> 430 74<214.593 369.696 579.75 744.764>
VStem: 26 88<108.38 311.709> 412 71<191.853 226> 790 87<293.844 385.108>
LayerCount: 2
Fore
SplineSet
223 58 m 0
 324.293905922 58 412 169.372817877 412 298 c 0
 412 386 372 430 292 430 c 0
 187.987012652 430 114 333.983146502 114 199 c 0
 114 112.16506775 155.872286416 58 223 58 c 0
790 312 m 2
 790 386.643242827 742.375404968 432 664 432 c 0
 582.240857959 432 514.05029147 375.242582383 497 293 c 1
 789 293 l 1
 789.82739606 294.65479212 790 296.38083152 790 303 c 2
 790 312 l 2
424 86 m 1
 375.809944152 21.7465922025 309.694171674 -12 232 -12 c 0
 103.124972406 -12 26 65.873758546 26 196 c 0
 26 371.178868391 144.159058639 504 300 504 c 0
 379.086759355 504 432.038331668 472.926622236 467 406 c 1
 513.011050338 468.014893934 589.020407029 504 674 504 c 0
 798.806996975 504 877 426.192184182 877 302 c 0
 877 277.16638418 874.040609254 252.175973432 868 226 c 1
 484 226 l 1
 483.140175425 222.5607017 483 220.598245749 483 212 c 2
 483 200 l 2
 483 111.902230216 531.094178397 62 616 62 c 0
 667.663802579 62 709.809437986 78.7897246746 739 111 c 1
 817 87 l 1
 766.945756012 22.9305676951 693.909114468 -12 610 -12 c 0
 521.468721286 -12 465.218850275 17.6370288121 424 86 c 1
EndSplineSet
EndChar

StartChar: Aring
Encoding: 197 197 192
Width: 627
GlyphClass: 2
Flags: W
HStem: 0 21G<-52 67.3699 459.123 565> 146 80<184 430> 779 58<362.168 446.074>
VStem: 295 57<686.674 768.805> 456 57<686.402 769.034> 462 103<0 103>
DStem2: -52 0 56 0 0.505685 0.862718<54.614 222.543 314.316 314.316>
AnchorPoint: "Anchor-2" 513 10 basechar 0
AnchorPoint: "Anchor-1" 427 837 basechar 0
AnchorPoint: "Anchor-0" 261 0 basechar 0
LayerCount: 2
Fore
SplineSet
513 728 m 0xf8
 513 689.50840295 493.598735607 653.749209754 462 634 c 1
 565 0 l 1
 462 0 l 1xf4
 441 146 l 1
 139 146 l 1
 56 0 l 1
 -52 0 l 1
 329 650 l 1
 307.175314624 670.832654222 295 698.76425836 295 728 c 0
 295 787.950458218 344.949533375 837 406 837 c 0
 465.940378514 837 513 789.060759421 513 728 c 0xf8
184 226 m 1
 430 226 l 1
 381 573 l 1
 184 226 l 1
352 728 m 0
 352 699.278315609 374.715145327 677 404 677 c 0
 433.284854673 677 456 699.278315609 456 728 c 0xf8
 456 756.721684391 433.284854673 779 404 779 c 0
 374.715145327 779 352 756.721684391 352 728 c 0
EndSplineSet
EndChar

StartChar: Ccedilla
Encoding: 199 199 203
Width: 661
GlyphClass: 2
Flags: W
HStem: -181 41<180.532 297.203> -82 39<251.915 303.393> -12 79<306 426.455> 498 21G<555.485 625.333> 600 80<319.867 500.901>
VStem: 53 96<165.442 399.108> 304 63<-131.879 -83.6402>
AnchorPoint: "Anchor-1" 420 668 basechar 0
AnchorPoint: "Anchor-0" 257 -181 basechar 0
LayerCount: 2
Fore
SplineSet
367 -96 m 0
 367 -144.070817014 317.905909677 -181 254 -181 c 0
 229 -181 200 -175 167 -163 c 1
 190 -126 l 1
 211.004869995 -135.547668179 229.132220979 -140 247 -140 c 0
 278.334005379 -140 304 -123.789898134 304 -104 c 0
 304 -90.0855921853 291.136557887 -82 269 -82 c 0
 251 -82 252 -87 234 -87 c 0
 223.433737437 -87 216 -80.3922333896 216 -71 c 0
 216 -66.3785440263 217.445033866 -62.3324492005 221 -57 c 2
 262 -8 l 1
 129.632075319 12.0557461637 53 111.420781626 53 263 c 0
 53 497.281315949 214.248143239 680 421 680 c 0
 542.204030027 680 624.052054325 626.833761995 655 528 c 1
 566 498 l 1
 544.969547219 563.094258607 488.887293142 600 411 600 c 0
 265.810928449 600 149 453.76341782 149 272 c 0
 149 148.766950834 219.199918765 67 325 67 c 0
 410.033657445 67 467.019383029 98.0288767579 516 171 c 1
 595 140 l 1
 533.841183766 40.7422490636 436.684409176 -12 315 -12 c 2
 306 -12 l 1
 278 -45 l 1
 287.082042548 -43.486326242 292.674794331 -43 301 -43 c 0
 342.548303311 -43 367 -62.635453402 367 -96 c 0
EndSplineSet
EndChar

StartChar: ccedilla
Encoding: 231 231 204
Width: 495
GlyphClass: 2
Flags: W
HStem: -181 41<80.5323 197.203> -82 39<151.915 203.393> -12 74<206 318.945> 430 74<218.191 366.563>
VStem: 26 92<111.089 310.486> 204 63<-131.879 -83.6402>
AnchorPoint: "Anchor-1" 301 496 basechar 0
AnchorPoint: "Anchor-0" 195 0 basechar 0
LayerCount: 2
Fore
SplineSet
267 -96 m 0
 267 -144.070817014 217.905909677 -181 154 -181 c 0
 129 -181 100 -175 67 -163 c 1
 90 -126 l 1
 111.004869995 -135.547668179 129.132220979 -140 147 -140 c 0
 178.334005379 -140 204 -123.789898134 204 -104 c 0
 204 -90.0855921853 191.136557887 -82 169 -82 c 0
 151 -82 152 -87 134 -87 c 0
 123.433737437 -87 116 -80.3922333896 116 -71 c 0
 116 -66.3785440263 117.445033866 -62.3324492005 121 -57 c 2
 164 -5 l 1
 75.8414624515 16.0378328241 26 87.1883263237 26 192 c 0
 26 372.044119839 141.038459627 504 298 504 c 0
 387.166744331 504 449.063403277 466.862004632 483 393 c 1
 400 364 l 1
 387.030735238 403.905430037 345.121274388 430 294 430 c 0
 191.135156452 430 118 333.179025834 118 197 c 0
 118 108.548219759 160.410600225 62 241 62 c 0
 291.516550252 62 332.689291352 83.582485254 365 127 c 1
 436 99 l 1
 391.972255829 27.9552309967 314.941450124 -12 222 -12 c 2
 206 -12 l 1
 178 -45 l 1
 187.082042548 -43.486326242 192.674794331 -43 201 -43 c 0
 242.548303311 -43 267 -62.635453402 267 -96 c 0
EndSplineSet
EndChar

StartChar: Eth
Encoding: 208 208 249
AltUni2: 000110.ffffffff.0 000189.ffffffff.0
Width: 710
GlyphClass: 1
Flags: W
HStem: 0 79<163 387.679> 303 80<39 114 228 351> 588 80<271 485.834>
VStem: 580 95<273.735 502.769>
DStem2: 50 0 146.208 0 0.207912 0.978148<100.768 309.685 411.639 621.099>
LayerCount: 2
Fore
SplineSet
163 79 m 1
 249 79 l 2
 434.853686853 79 544.978719287 162.872315724 572 325 c 0
 577.498299457 360.189116528 580 385.831547089 580 407 c 0
 580 532.623068868 511.46722335 588 356 588 c 2
 271 588 l 1
 228 383 l 1
 368 383 l 1
 351 303 l 1
 211 303 l 1
 163 79 l 1
50 0 m 1
 114 303 l 1
 22 303 l 1
 39 383 l 1
 131 383 l 1
 192 668 l 1
 376 668 l 2
 577.147665258 668 675 584.874605269 675 414 c 0
 675 382.786344057 672.312962714 350.877776283 667 319 c 0
 633.018475423 115.110852539 477.131678254 0 235 0 c 2
 50 0 l 1
EndSplineSet
EndChar

StartChar: one.tf
Encoding: 1114115 -1 251
Width: 639
GlyphClass: 1
Flags: W
HStem: 8 77<53 232 317 459> 513 67<159 302.48> 657 20G<367.482 442>
VStem: 384 58<645.317 677>
DStem2: 215.633 8 300.633 8 0.207912 0.978148<96.3927 516.079>
LayerCount: 2
Fore
SplineSet
159 580 m 1
 283.866018261 580 350.964532238 608.926914914 384 677 c 1
 442 677 l 1
 317 85 l 1
 475 85 l 1
 459 8 l 1
 37 8 l 1
 53 85 l 1
 232 85 l 1
 322 513 l 1
 144 513 l 1
 159 580 l 1
EndSplineSet
Substitution2: "'pnum' Proportional Numbers lookup 13 subtable" one
Substitution2: "'aalt' Access All Alternates lookup 0 subtable" one
EndChar

StartChar: Aogonek
Encoding: 260 260 262
Width: 627
GlyphClass: 2
Flags: W
HStem: -173 57<458.423 531.125> 0 21G<-52 67.3699> 146 80<184 430> 648 20G<328.263 459.263>
VStem: 380 77<-112.438 -51.1213>
DStem2: -52 0 56 0 0.506117 0.862465<54.6606 222.588>
AnchorPoint: "Anchor-2" 513 10 basechar 0
AnchorPoint: "Anchor-1" 387 668 basechar 0
AnchorPoint: "Anchor-0" 261 0 basechar 0
LayerCount: 2
Fore
SplineSet
184 226 m 1
 430 226 l 1
 381 573 l 1
 184 226 l 1
457 -89 m 0
 457 -104.902563943 473.851662161 -116 498 -116 c 0
 511.16718427 -116 526.199378876 -112.925232922 542 -107 c 1
 531 -161 l 1
 504.767336641 -169.071588726 482.833707027 -173 464 -173 c 0
 412.798333662 -173 380 -146.839424341 380 -106 c 0
 380 -60 421 -19 486 0 c 1
 462 0 l 1
 441 146 l 1
 139 146 l 1
 56 0 l 1
 -52 0 l 1
 340 668 l 1
 456 668 l 1
 565 0 l 1
 495.849530662 -25.0545178761 457 -57.0694088845 457 -89 c 0
EndSplineSet
EndChar

StartChar: aogonek
Encoding: 261 261 263
Width: 521
GlyphClass: 2
Flags: W
HStem: -173 57<301.423 374.125> -12 69<117.784 256.524> 436 68<206.052 355.551>
VStem: 5 94<76.4813 182.108> 223 77<-112.438 -51.1213> 377 85<309.457 414.016>
AnchorPoint: "Anchor-2" 408 0 basechar 0
AnchorPoint: "Anchor-1" 311 496 basechar 0
AnchorPoint: "Anchor-0" 208 0 basechar 0
LayerCount: 2
Fore
SplineSet
99 125 m 0
 99 83.2679108944 130.676010196 57 181 57 c 0
 272.359590287 57 342.06653543 122.399212578 359 224 c 2
 362 241 l 1
 153.264112479 221.025273921 99 197.091292752 99 125 c 0
300 -89 m 0
 300 -104.902563943 316.851662161 -116 341 -116 c 0
 354.16718427 -116 369.199378876 -112.925232922 385 -107 c 1
 374 -161 l 1
 347.767336641 -169.071588726 325.833707027 -173 307 -173 c 0
 255.798333662 -173 223 -146.839424341 223 -106 c 0
 223 -60 264 -19 329 0 c 1
 325 63 l 1
 278.266920644 10.30099562 227.420650631 -12 154 -12 c 0
 65.0310054521 -12 5 39.9731523713 5 117 c 0
 5 220.021127866 97.0393637131 279.004100387 289 299 c 0
 320 302 347 305 370 308 c 1
 375.514718626 335.573593129 377 345.970562748 377 357 c 0
 377 409.690673025 346.361290106 436 285 436 c 0
 226.265941707 436 182.109404648 409.22792635 158 359 c 1
 83 382 l 1
 120.159762555 461.341114645 189.393035508 504 281 504 c 0
 401.122408581 504 462 455.903339376 462 361 c 0
 462 284 413 173 408 0 c 1
 338.849530662 -25.0545178761 300 -57.0694088845 300 -89 c 0
EndSplineSet
EndChar

StartChar: Eogonek
Encoding: 280 280 268
Width: 565
GlyphClass: 2
Flags: W
HStem: -173 57<331.423 404.125> 0 81<127 359 389.47 469> 304 80<192 439> 587 81<235 594>
VStem: 253 77<-112.438 -51.1213>
DStem2: -22.7723 -173 73.0106 -173 0.207912 0.978148<279.589 507.696 589.482 796.986>
AnchorPoint: "Anchor-2" 438 0 basechar 0
AnchorPoint: "Anchor-1" 381 668 basechar 0
AnchorPoint: "Anchor-0" 230 0 basechar 0
LayerCount: 2
Fore
SplineSet
330 -89 m 0
 330 -104.902563943 346.851662161 -116 371 -116 c 0
 384.16718427 -116 399.199378876 -112.925232922 415 -107 c 1
 404 -161 l 1
 377.767336641 -169.071588726 355.833707027 -173 337 -173 c 0
 285.798333662 -173 253 -146.839424341 253 -106 c 0
 253 -60 294 -19 359 0 c 1
 14 0 l 1
 156 668 l 1
 611 668 l 1
 594 587 l 1
 235 587 l 1
 192 384 l 1
 457 384 l 1
 439 304 l 1
 175 304 l 1
 127 81 l 1
 486 81 l 1
 469 0 l 1
 438 0 l 1
 368.849530662 -25.0545178761 330 -57.0694088845 330 -89 c 0
EndSplineSet
EndChar

StartChar: eogonek
Encoding: 281 281 269
Width: 542
GlyphClass: 2
Flags: W
HStem: -163 57<230.423 303.125> 225 68<128 421.965> 432 72<214.649 374.204>
VStem: 27 88<117.149 224.046> 152 77<-102.438 -41.2069> 422 87<293.224 383.974>
AnchorPoint: "Anchor-2" 337 10 basechar 0
AnchorPoint: "Anchor-1" 321 496 basechar 0
AnchorPoint: "Anchor-0" 218 0 basechar 0
LayerCount: 2
Fore
SplineSet
422 310 m 2
 422 385.076017096 373.922148664 432 297 432 c 0
 214.542631041 432 145.900940316 375.543224788 128 293 c 1
 421 293 l 1
 421.866106581 294.732213162 422 295.937253933 422 302 c 2
 422 310 l 2
115 197 m 2
 115 111.368052947 163.636674385 62 248 62 c 0
 299.419220986 62 340.249686347 78.2657951438 371 111 c 1
 449 87 l 1
 410.711534817 37.6280317373 356.560369973 3.91803507974 298 -7 c 1
 251.0392236 -29.9808054723 229 -52.9782561855 229 -79 c 0
 229 -94.9025639426 245.851662161 -106 270 -106 c 0
 283.16718427 -106 298.199378876 -102.925232922 314 -97 c 1
 303 -151 l 1
 276.767336641 -159.071588726 254.833707027 -163 236 -163 c 0
 184.798333662 -163 152 -136.839424341 152 -96 c 0
 152 -63.8878399116 173.12857381 -32.9235507078 210 -11 c 1
 95.9142007448 0.0082788755054 27 79.0901485826 27 199 c 0
 27 379.810325618 141.824551395 504 309 504 c 0
 432.264832482 504 509 425.730129132 509 300 c 0
 509 276 506 251 500 225 c 1
 116 225 l 1
 115.140175425 221.5607017 115 219.598245749 115 211 c 2
 115 197 l 2
EndSplineSet
EndChar

StartChar: Iogonek
Encoding: 302 302 276
Width: 414
GlyphClass: 2
Flags: W
HStem: -173 57<89.4232 162.125> 0 75<20 113 209 285> 593 75<146 223 318 412>
VStem: 11 77<-112.438 -51.1213>
DStem2: 60.286 -173 156.286 -173 0.207912 0.978148<273.5 783.091>
AnchorPoint: "Anchor-2" 196 0 basechar 0
AnchorPoint: "Anchor-1" 287 668 basechar 0
AnchorPoint: "Anchor-0" 150 0 basechar 0
LayerCount: 2
Fore
SplineSet
88 -89 m 0
 88 -104.902563943 104.851662161 -116 129 -116 c 0
 142.16718427 -116 157.199378876 -112.925232922 173 -107 c 1
 162 -161 l 1
 135.767336641 -169.071588726 113.833707027 -173 95 -173 c 0
 43.7983336622 -173 11 -146.839424341 11 -106 c 0
 11 -60 52 -19 117 0 c 1
 4 0 l 1
 20 75 l 1
 113 75 l 1
 223 593 l 1
 130 593 l 1
 146 668 l 1
 427 668 l 1
 412 593 l 1
 318 593 l 1
 209 75 l 1
 301 75 l 1
 285 0 l 1
 196 0 l 1
 126.849530662 -25.0545178761 88 -57.0694088845 88 -89 c 0
EndSplineSet
EndChar

StartChar: iogonek
Encoding: 303 303 277
Width: 270
GlyphClass: 2
Flags: W
HStem: -173 57<25.4232 98.1246> 428 68<71 137> 591 125<182.2 276.631>
VStem: -53 77<-112.438 -51.1213> 167 125<606.2 700.631>
DStem2: 9.22771 -173 95.2277 -173 0.207912 0.978148<180.157 614.432>
AnchorPoint: "Anchor-2" 132 0 basechar 0
AnchorPoint: "Anchor-1" 203 691 basechar 0
AnchorPoint: "Anchor-0" 71 0 basechar 0
LayerCount: 2
Fore
SplineSet
292 653 m 0
 292 618.77750275 263.774473012 591 229 591 c 0
 195 591 167 619 167 653 c 0
 167 687.774473012 194.77750275 716 229 716 c 0
 264 716 292 688 292 653 c 0
24 -89 m 0
 24 -104.902563943 40.8516621612 -116 65 -116 c 0
 78.16718427 -116 93.199378876 -112.925232922 109 -107 c 1
 98 -161 l 1
 71.7673366406 -169.071588726 49.8337070273 -173 31 -173 c 0
 -20.2016663378 -173 -53 -146.839424341 -53 -106 c 0
 -53 -60 -12 -19 53 0 c 1
 46 0 l 1
 137 428 l 1
 57 428 l 1
 71 496 l 1
 237 496 l 1
 132 0 l 1
 62.8495306619 -25.0545178761 24 -57.0694088845 24 -89 c 0
EndSplineSet
EndChar

StartChar: uni0326
Encoding: 806 806 282
Width: 0
GlyphClass: 4
Flags: W
HStem: -241 36<-41 -0.944233>
VStem: 37 67<-175.783 -80.7831>
AnchorPoint: "Anchor-3" 1 -251 basemark 0
AnchorPoint: "Anchor-3" 73 0 mark 0
AnchorPoint: "Anchor-0" 73 0 mark 0
LayerCount: 2
Fore
SplineSet
65 -46 m 1
 90.0555353126 -62.0355426001 104 -87.064068962 104 -116 c 0
 104 -185.913813737 40.1000239349 -241 -41 -241 c 1
 -66 -205 l 1
 -57 -205 l 2
 -4.88884346324 -205 37 -168.904294463 37 -124 c 0
 37 -100.921810743 25.9292080708 -83.9696606018 5 -75 c 1
 65 -46 l 1
EndSplineSet
EndChar

StartChar: Uogonek
Encoding: 370 370 291
Width: 693
GlyphClass: 2
Flags: W
HStem: -173 57<245.423 318.125> 648 20G<152.722 253 596.707 697>
VStem: 61 98<108.187 318.938> 157 96<572 668> 167 77<-112.438 -51.218> 601 96<572 668>
DStem2: -22.2881 -173 74.4123 -173 0.207912 0.978148<390.115 859.898> 421.412 -173 517.712 -173 0.207912 0.978148<324.012 859.961>
AnchorPoint: "Anchor-2" 352 0 basechar 0
AnchorPoint: "Anchor-1" 415 668 basechar 0
AnchorPoint: "Anchor-0" 294 0 basechar 0
LayerCount: 2
Fore
SplineSet
244 -89 m 0xec
 244 -104.902563943 260.851662161 -116 285 -116 c 0
 298.16718427 -116 313.199378876 -112.925232922 329 -107 c 1
 318 -161 l 1
 291.767336641 -169.071588726 269.833707027 -173 251 -173 c 0
 199.798333662 -173 167 -146.839424341 167 -106 c 0
 167 -67.9615298321 197.04847397 -30.9787926381 245 -10 c 1
 120.369961488 0.967443389071 61 60.6600677111 61 175 c 0xec
 61 205.872954899 65.5008571219 242.226031653 74 280 c 2
 157 668 l 1
 253 668 l 1xd4
 169 272 l 2
 162.378064237 242.67428448 159 213.622932038 159 186 c 0
 159 104.22710307 198.743398335 69 291 69 c 0
 421.965519819 69 483.991571664 124.961282331 516 272 c 2
 601 668 l 1
 697 668 l 1
 614 280 l 2
 573.114574982 84.5477243024 490.461594429 1.0337752021 326 -11 c 1
 271.307490486 -34.8658223334 244 -60.8412401127 244 -89 c 0xec
EndSplineSet
EndChar

StartChar: uogonek
Encoding: 371 371 292
Width: 540
GlyphClass: 2
Flags: W
HStem: -173 57<301.423 374.125> -11 73<142.746 269.941> 476 20G<106.768 197 423.692 513>
VStem: 40 86<78.4354 263.312> 111 86<410 496> 223 77<-112.438 -50.552> 428 85<411 496>
DStem2: -30.9213 -173 54.6536 -173 0.207912 0.978148<336.688 683.888> 285.064 -173 371.228 -173 0.207912 0.978148<302.622 684.099>
AnchorPoint: "Anchor-2" 408 0 basechar 0
AnchorPoint: "Anchor-1" 308 496 basechar 0
AnchorPoint: "Anchor-0" 217 0 basechar 0
LayerCount: 2
Fore
SplineSet
300 -89 m 0xf6
 300 -104.902563943 316.851662161 -116 341 -116 c 0
 354.16718427 -116 369.199378876 -112.925232922 385 -107 c 1
 374 -161 l 1
 347.767336641 -169.071588726 325.833707027 -173 307 -173 c 0
 255.798333662 -173 223 -146.839424341 223 -106 c 0
 223 -56.9499875143 264.080427976 -19.9776023358 343 2 c 1
 337 70 l 1
 293.129349246 12.1705058248 246.216226342 -11 173 -11 c 0
 123.737146555 -11 89.8941356668 2.14291684983 70 29 c 0
 50 56 40 89 40 128 c 0xf6
 40 152 43 177 49 203 c 2
 111 496 l 1
 197 496 l 1xee
 135 205 l 2
 129.054422048 178.244899216 126 155.167043743 126 137 c 0
 126 86.1751697035 150.819840896 62 203 62 c 0
 289.348044604 62 347.100166123 121.460764168 372 236 c 2
 428 496 l 1
 513 496 l 1
 408 0 l 1
 338.849530662 -25.0545178761 300 -57.0694088845 300 -89 c 0xf6
EndSplineSet
EndChar

StartChar: Hbar
Encoding: 294 294 301
Width: 710
GlyphClass: 1
Flags: W
HStem: 0 21G<23 123.276 469 569.246> 304 80<201 533> 504 79<72 130 243 576 689 745> 648 20G<160.765 261 606.765 707>
VStem: 23 96<0 96> 469 96<0 96>
DStem2: 23 0 119 0 0.207912 0.978148<19.9595 330.831 412.617 515.233 616.001 682.926> 469 0 565 0 0.207912 0.978148<19.9595 310.663 392.657 515.233 616.001 682.926>
LayerCount: 2
Fore
SplineSet
201 384 m 1
 551 384 l 1
 576 504 l 1
 226 504 l 1
 201 384 l 1
23 0 m 1
 130 504 l 1
 55 504 l 1
 72 583 l 1
 147 583 l 1
 165 668 l 1
 261 668 l 1
 243 583 l 1
 593 583 l 1
 611 668 l 1
 707 668 l 1
 689 583 l 1
 762 583 l 1
 745 504 l 1
 672 504 l 1
 565 0 l 1
 469 0 l 1
 533 304 l 1
 184 304 l 1
 119 0 l 1
 23 0 l 1
EndSplineSet
EndChar

StartChar: hbar
Encoding: 295 295 302
Width: 580
GlyphClass: 1
Flags: W
HStem: 0 21G<39 129.202 365 454.306> 430 74<282.406 415.187> 548 67<88 155 256 403> 648 20G<176.849 267>
VStem: 39 86<0 86> 365 85<0 85> 433 88<230.688 412.664>
DStem2: 39 0 125 0 0.207912 0.978148<17.8804 398.518 454.469 560.143 646.678 682.926> 365 0 450 0 0.207912 0.978148<17.6725 357.571>
LayerCount: 2
Fore
SplineSet
216 427 m 1xfa
 261.250386998 482.306028553 309.427908004 504 387 504 c 0
 475.181250675 504 521 456.813526815 521 366 c 0xfa
 521 343 518 317 512 288 c 2
 450 0 l 1
 365 0 l 1xfc
 424 280 l 2
 430 309 433 333 433 352 c 0
 433 407.223138054 408.763082801 430 350 430 c 0
 262.652847218 430 202.905172919 369.553522493 179 257 c 2
 125 0 l 1
 39 0 l 1
 155 548 l 1
 74 548 l 1
 88 615 l 1
 170 615 l 1
 181 668 l 1
 267 668 l 1
 256 615 l 1
 417 615 l 1
 403 548 l 1
 242 548 l 1
 216 427 l 1xfa
EndSplineSet
EndChar

StartChar: dcroat
Encoding: 273 273 318
Width: 602
GlyphClass: 1
Flags: W
HStem: -12 72<161.924 295.573> 0 21G<359.361 442.52> 432 72<210.072 348.665> 548 67<308 456 556 623> 648 20G<476.849 567>
VStem: 27 90<110.459 318.19> 398 44<0 281>
DStem2: 336.852 -12 421.968 -12 0.207912 0.978148<419.16 572.535 658.862 695.11>
LayerCount: 2
Fore
SplineSet
280 432 m 0xbe
 186.978539784 432 117 331.969326566 117 199 c 0
 117 113.779690772 159.172563268 60 226 60 c 0
 324.031676248 60 398 155.040695054 398 281 c 0
 398 376.987288528 355.009934081 432 280 432 c 0xbe
356 61 m 1
 317.128424849 11.1646472417 269.212510691 -12 205 -12 c 0xbe
 96.7522572095 -12 27 70.2919888426 27 198 c 0
 27 372.659968356 131.728652684 504 271 504 c 0
 344.910401427 504 403.975712329 463.078934931 424 398 c 1
 456 548 l 1
 294 548 l 1
 308 615 l 1
 470 615 l 1
 481 668 l 1
 567 668 l 1
 564 654 l 2
 562 644 559 631 556 615 c 1
 637 615 l 1
 623 548 l 1
 541 548 l 1
 534.723920471 522.895681883 457.74795542 147.529739951 452 114 c 0
 446.22234097 84.1487616791 443.040869209 47.879983598 442 0 c 1
 361 0 l 1x7e
 356 61 l 1
EndSplineSet
EndChar

StartChar: Scedilla
Encoding: 350 350 323
Width: 609
GlyphClass: 2
Flags: W
HStem: -181 41<162.532 279.203> -82 39<233.915 285.393> -12 79<288 383.511> 601 79<231.16 412.836>
VStem: 87 95<441.179 557.62> 286 63<-131.879 -83.6402> 446 98<122.817 243.951>
AnchorPoint: "Anchor-1" 359 668 basechar 0
AnchorPoint: "Anchor-0" 239 -181 basechar 0
LayerCount: 2
Fore
SplineSet
349 -96 m 0
 349 -144.070817014 299.905909677 -181 236 -181 c 0
 211 -181 182 -175 149 -163 c 1
 172 -126 l 1
 193.004869995 -135.547668179 211.132220979 -140 229 -140 c 0
 260.334005379 -140 286 -123.789898134 286 -104 c 0
 286 -90.0855921853 273.136557887 -82 251 -82 c 0
 233 -82 234 -87 216 -87 c 0
 205.433737437 -87 198 -80.3922333896 198 -71 c 0
 198 -66.3785440263 199.445033866 -62.3324492005 203 -57 c 2
 242 -9 l 1
 141.558443733 4.05740231474 65.8689580412 61.3756536152 36 147 c 1
 127 172 l 1
 150.03433985 106.902952598 213.119007767 67 293 67 c 0
 381.961541869 67 446 115.970585629 446 184 c 0
 446 245.236145227 412.517181652 271.137948099 287 307 c 0
 134.907749833 351.026703996 87 396.059988839 87 495 c 0
 87 604.141388507 184.18103202 680 324 680 c 0
 434.048004569 680 527.014822016 630.966868436 561 555 c 1
 469 529 l 1
 446.997719212 572.004457905 386.993055709 601 320 601 c 0
 235.796008139 601 182 560.847906969 182 498 c 0
 182 440.058459044 212.85850773 418.042447681 353 376 c 0
 494.938786836 334.018105302 544 288.039272023 544 197 c 0
 544 77.9941405669 434.992762733 -11.0000492331 288 -12 c 1
 260 -45 l 1
 269.082042548 -43.486326242 274.674794331 -43 283 -43 c 0
 324.548303311 -43 349 -62.635453402 349 -96 c 0
EndSplineSet
Substitution2: "'locl' Localized Forms in Latin lookup 8 subtable" uni0218
Substitution2: "'aalt' Access All Alternates lookup 0 subtable" uni0218
EndChar

StartChar: scedilla
Encoding: 351 351 324
Width: 479
GlyphClass: 2
Flags: W
HStem: -181 41<92.5323 209.203> -82 39<163.915 215.393> -12 68<218 289.681> 435 69<157.45 317.143>
VStem: 49 85<325.426 412.113> 216 63<-131.879 -83.6402> 325 88<87.3265 181.207>
AnchorPoint: "Anchor-1" 260 496 basechar 0
AnchorPoint: "Anchor-0" 169 -181 basechar 0
LayerCount: 2
Fore
SplineSet
279 -96 m 0
 279 -144.070817014 229.905909677 -181 166 -181 c 0
 141 -181 112 -175 79 -163 c 1
 102 -126 l 1
 123.004869995 -135.547668179 141.132220979 -140 159 -140 c 0
 190.334005379 -140 216 -123.789898134 216 -104 c 0
 216 -90.0855921853 203.136557887 -82 181 -82 c 0
 163 -82 164 -87 146 -87 c 0
 135.433737437 -87 128 -80.3922333896 128 -71 c 0
 128 -66.3785440263 129.445033866 -62.3324492005 133 -57 c 2
 172 -10 l 1
 91.399491598 -1.04438795533 39.1448222401 38.6304535942 10 113 c 1
 96 142 l 1
 104.960520508 90.2281037298 152.720665248 56 216 56 c 0
 279.123505996 56 325 90.0917065536 325 137 c 0
 325 177.059351039 300.861073452 194.038426492 207 220 c 0
 87.0984489333 252.972926543 49 287.936692969 49 365 c 0
 49 446.754080978 127.661658513 504 240 504 c 0
 333.112774165 504 410.025390445 462.926246804 431 402 c 1
 351 374 l 1
 338.962432722 410.112701833 290.819790367 435 233 435 c 0
 173.29967462 435 134 409.19718333 134 370 c 0
 134 329.0116267 153.969066028 316.008513937 263 286 c 0
 373.099303929 254.972014347 413 216.93335076 413 143 c 0
 413 50.2050283298 337.263767245 -9.99556693706 218 -12 c 1
 190 -45 l 1
 199.082042548 -43.486326242 204.674794331 -43 213 -43 c 0
 254.548303311 -43 279 -62.635453402 279 -96 c 0
EndSplineSet
Substitution2: "'locl' Localized Forms in Latin lookup 8 subtable" uni0219
Substitution2: "'aalt' Access All Alternates lookup 0 subtable" uni0219
EndChar

StartChar: uni0162
Encoding: 354 354 329
Width: 558
GlyphClass: 2
Flags: W
HStem: -181 41<103.532 220.203> -82 39<174.915 226.393> 587 81<90 293 389 611>
VStem: 227 63<-131.879 -83.6402>
DStem2: 130.527 -181 227.527 -181 0.207912 0.978148<205.211 784.997>
AnchorPoint: "Anchor-1" 356 668 basechar 0
AnchorPoint: "Anchor-0" 146 -251 basechar 0
LayerCount: 2
Fore
SplineSet
290 -96 m 0
 290 -144.070817014 240.905909677 -181 177 -181 c 0
 152 -181 123 -175 90 -163 c 1
 113 -126 l 1
 134.004869995 -135.547668179 152.132220979 -140 170 -140 c 0
 201.334005379 -140 227 -123.789898134 227 -104 c 0
 227 -90.0855921853 214.136557887 -82 192 -82 c 0
 174 -82 175 -87 157 -87 c 0
 146.433737437 -87 139 -80.3922333896 139 -71 c 0
 139 -66.3785440263 140.445033866 -62.3324492005 144 -57 c 2
 191 -0 l 1
 169 0 l 1
 293 587 l 1
 73 587 l 1
 90 668 l 1
 628 668 l 1
 611 587 l 1
 389 587 l 1
 266 0 l 1
 239 0 l 1
 201 -45 l 1
 210.082042548 -43.486326242 215.674794331 -43 224 -43 c 0
 265.548303311 -43 290 -62.635453402 290 -96 c 0
EndSplineSet
Substitution2: "'locl' Localized Forms in Latin lookup 8 subtable" uni021A
Substitution2: "'aalt' Access All Alternates lookup 0 subtable" uni021A
EndChar

StartChar: acutecomb.case
Encoding: 1114124 -1 332
Width: 0
GlyphClass: 4
Flags: W
HStem: 744 120
VStem: 135 198
AnchorPoint: "Anchor-4" 251 864 basemark 0
AnchorPoint: "Anchor-4" 185 668 mark 0
AnchorPoint: "Anchor-1" 185 668 mark 0
LayerCount: 2
Fore
SplineSet
297 864 m 0
 317 864 333 848 333 828 c 0
 333 805.163874889 320.414076365 794.196141436 263 767 c 0
 252 762 242 756 233 752 c 2
 216 744 l 1
 135 744 l 1
 140.165278485 749.165278485 256.652004209 844.239003156 271 855 c 0
 279.820891111 860.880594074 288.832508231 864 297 864 c 0
EndSplineSet
EndChar

StartChar: caron.alt
Encoding: 1114126 -1 335
Width: 206
GlyphClass: 1
Flags: W
HStem: 495 183
VStem: 155 74<603.5 672.433>
LayerCount: 2
Fore
SplineSet
197 678 m 0
 216.100111359 678 229 665.906354399 229 648 c 0
 229 642.832051206 224.751923191 632.565865584 217 619 c 2
 145 495 l 1
 96 495 l 1
 97 497 149 638 155 649 c 0
 161.145248059 665.387328158 179.411876244 678 197 678 c 0
EndSplineSet
EndChar

StartChar: uni2074
Encoding: 8308 8308 345
Width: 397
GlyphClass: 1
Flags: W
HStem: 489 57<169 269 351 404>
VStem: 251 70<403 473>
DStem2: 88 543 169 546 0.708606 0.705604<59.5139 264.571> 251 403 321 403 0.207912 0.978148<14.5538 87.8631 160.666 295.575>
LayerCount: 2
Fore
SplineSet
169 546 m 1
 281 546 l 1
 313 692 l 1
 169 546 l 1
251 403 m 1
 269 489 l 1
 76 489 l 1
 88 543 l 1
 324 778 l 1
 401 778 l 1
 351 546 l 1
 416 546 l 1
 404 489 l 1
 339 489 l 1
 321 403 l 1
 251 403 l 1
EndSplineSet
EndChar

StartChar: gravecomb.case
Encoding: 1114131 -1 348
Width: 0
GlyphClass: 4
Flags: W
HStem: 744 120<219.118 239.599>
VStem: 168 153
AnchorPoint: "Anchor-4" 261 864 basemark 0
AnchorPoint: "Anchor-4" 239 668 mark 0
AnchorPoint: "Anchor-1" 239 668 mark 0
LayerCount: 2
Fore
SplineSet
168 828 m 0
 168 848 184 864 204 864 c 0
 217 864 227 859 236 848 c 0
 314 753 314 753 321 744 c 1
 248 744 l 1
 177.182332175 796.607410385 168 806.248859168 168 828 c 0
EndSplineSet
EndChar

StartChar: uni030B
Encoding: 779 779 349
Width: 4
GlyphClass: 4
Flags: W
HStem: 572 136<217 240>
VStem: 71 329
AnchorPoint: "Anchor-4" 254 708 basemark 0
AnchorPoint: "Anchor-4" 189 496 mark 0
AnchorPoint: "Anchor-1" 189 496 mark 0
LayerCount: 2
Fore
SplineSet
364 708 m 0
 384.921113642 708 400 692.083397733 400 670 c 0
 400 648.091678692 390.371077155 639.248790365 302 580 c 2
 290 572 l 1
 217 572 l 1
 232 589 l 1
 291.331251675 653.725001827 328.658868451 692.461207916 338 699 c 0
 345.857774981 704.893331236 354.832595856 708 364 708 c 0
218 708 m 0
 240 708 255 693 255 671 c 0
 255 647.676774316 244.796795173 638.202369834 157 580 c 2
 145 572 l 1
 71 572 l 1
 82 583 l 2
 83 584 180 689 192 699 c 0
 199.857774981 704.893331236 208.832595856 708 218 708 c 0
EndSplineSet
Substitution2: "'case' Case-Sensitive Forms lookup 15 subtable" uni030B.case
Substitution2: "Single Substitution lookup 7 subtable" uni030B.case
Substitution2: "Single Substitution lookup 6 subtable" uni030B.case
Substitution2: "Single Substitution lookup 4 subtable" uni030B.case
Substitution2: "Single Substitution lookup 3 subtable" uni030B.case
Substitution2: "'aalt' Access All Alternates lookup 0 subtable" uni030B.case
EndChar

StartChar: dotlessi
Encoding: 305 305 351
Width: 248
GlyphClass: 2
Flags: W
HStem: 0 21G<46 136.234> 428 68<71 137>
VStem: 46 86<0 86>
DStem2: 46 0 132 0 0.207912 0.978148<17.8804 437.567>
AnchorPoint: "Anchor-2" 132 0 basechar 0
AnchorPoint: "Anchor-1" 167 496 basechar 0
AnchorPoint: "Anchor-0" 71 0 basechar 0
LayerCount: 2
Fore
SplineSet
46 0 m 1
 137 428 l 1
 57 428 l 1
 71 496 l 1
 237 496 l 1
 132 0 l 1
 46 0 l 1
EndSplineSet
EndChar

StartChar: uni00B5
Encoding: 181 181 356
Width: 554
GlyphClass: 2
Flags: W
HStem: -162 21G<-28 62.0404> -11 73<142.552 266.598> 476 20G<106.775 197 423.692 513>
VStem: -28 86<-162 -76> 111 86<410 496> 428 85<411 496>
DStem2: -28 -162 58 -162 0.207912 0.978148<17.8804 159.016 326.284 672.521> 287.402 -162 372.634 -162 0.207912 0.978148<291.376 672.853>
AnchorPoint: "Anchor-2" 435 10 basechar 0
LayerCount: 2
Fore
SplineSet
173 -11 m 0
 128.957131994 -11 99.9815341698 0.02332525926 81 24 c 1
 81.862407082 13.6511150159 82 7.32184078837 82 -22 c 0
 82 -39.403987974 80.7846380758 -51.8614476966 78 -63 c 2
 58 -162 l 1
 -28 -162 l 1
 111 496 l 1
 197 496 l 1
 135 205 l 2
 128.943262093 177.744679421 126 155.83372828 126 138 c 0
 126 85.8440342175 150.15777151 62 203 62 c 0
 289.348044604 62 347.100166123 121.460764168 372 236 c 2
 428 496 l 1
 513 496 l 1
 433 122 l 2
 430.940737465 112.733318591 430 105.834577184 430 100 c 0
 430 82.0156211872 438.97999512 75 462 75 c 0
 479 75 480 78 494 80 c 1
 478 7 l 1
 448.191847623 1.03836952469 439.143198908 0 417 0 c 0
 372.369149389 0 345.025118008 26.614857211 342 73 c 1
 299.894334473 17.861628476 241.827486705 -11 173 -11 c 0
EndSplineSet
EndChar

StartChar: uni0328.case
Encoding: 1114134 -1 358
Width: 0
GlyphClass: 4
Flags: W
HStem: -173 57<34.4232 107.125> -20 20G<29.5 141>
VStem: -44 77<-112.438 -51.1213>
AnchorPoint: "Anchor-2" 141 0 mark 0
LayerCount: 2
Fore
SplineSet
33 -89 m 0
 33 -104.902563943 49.8516621612 -116 74 -116 c 0
 87.16718427 -116 102.199378876 -112.925232922 118 -107 c 1
 107 -161 l 1
 80.7673366406 -169.071588726 58.8337070273 -173 40 -173 c 0
 -11.2016663378 -173 -44 -146.839424341 -44 -106 c 0
 -44 -60 -3 -19 62 0 c 1
 141 0 l 1
 71.8495306619 -25.0545178761 33 -57.0694088845 33 -89 c 0
EndSplineSet
EndChar

StartChar: uni0163
Encoding: 355 355 363
Width: 324
GlyphClass: 2
Flags: W
HStem: -181 41<-5.46773 111.203> -82 39<65.915 117.393> 0 75<151.451 222> 428 68<63 132 232 313>
VStem: 60 91<53.1769 193.57> 118 63<-131.879 -83.6402> 173 86<534 620>
DStem2: 1.83213 -181 87.7308 -181 0.207912 0.978148<310.265 622.755 710.061 819.084> 91 10 92 -45 0.64131 0.767282<-41.5592 0>
AnchorPoint: "Anchor-1" 215 496 basechar 0
AnchorPoint: "Anchor-0" 37 -251 basechar 0
LayerCount: 2
Fore
SplineSet
181 -96 m 0xf4
 181 -144.070817014 131.905909677 -181 68 -181 c 0
 43 -181 14 -175 -19 -163 c 1
 4 -126 l 1
 25.0048699946 -135.547668179 43.1322209786 -140 61 -140 c 0
 92.3340053791 -140 118 -123.789898134 118 -104 c 0xf4
 118 -90.0855921853 105.136557887 -82 83 -82 c 0
 65 -82 66 -87 48 -87 c 0
 37.4337374367 -87 30 -80.3922333896 30 -71 c 0
 30 -66.3785440263 31.4450338664 -62.3324492005 35 -57 c 2
 91 10 l 1
 69.7448004845 20.1215235788 60 38.3537309369 60 68 c 0
 60 83.3410863197 62.724101051 103.620505255 69 135 c 2
 132 428 l 1
 49 428 l 1
 63 496 l 1
 146 496 l 1
 173 620 l 1
 259 620 l 1
 232 496 l 1
 327 496 l 1
 313 428 l 1
 218 428 l 1
 160 159 l 2
 153.249742265 128.141678926 151 114.393253973 151 104 c 0xfa
 151 81.0348663543 159.948250112 75 194 75 c 2
 238 75 l 1
 222 0 l 1
 160 0 l 2
 140.819347292 0 137.102934953 0.128152149636 131 1 c 1
 92 -45 l 1
 101.082042548 -43.486326242 106.674794331 -43 115 -43 c 0
 156.548303311 -43 181 -62.635453402 181 -96 c 0xf4
EndSplineSet
Substitution2: "'locl' Localized Forms in Latin lookup 8 subtable" uni021B
Substitution2: "'aalt' Access All Alternates lookup 0 subtable" uni021B
EndChar

StartChar: tildecomb
Encoding: 771 771 365
Width: 4
GlyphClass: 4
Flags: W
HStem: 575 63<282.953 387.874> 617 63<169.197 284.535>
AnchorPoint: "Anchor-4" 289 680 basemark 0
AnchorPoint: "Anchor-4" 250 496 mark 0
AnchorPoint: "Anchor-1" 250 496 mark 0
LayerCount: 2
Fore
SplineSet
426 680 m 0x40
 443.210191144 680 456 666.783864182 456 649 c 0
 456 633.664912232 441.407390904 614.555543178 414 594 c 0
 397.901499406 581.926124555 373.8423299 575 348 575 c 0x80
 286 575 281 617 219 617 c 0
 189.573469764 617 168.829760899 603.616962022 157 577 c 1
 92 577 l 1
 116.995743403 642.988762583 162.990290873 680 220 680 c 0x40
 280 680 288 638 348 638 c 0x80
 385 638 389 680 426 680 c 0x40
EndSplineSet
Substitution2: "'case' Case-Sensitive Forms lookup 15 subtable" tildecomb.case
Substitution2: "Single Substitution lookup 7 subtable" tildecomb.case
Substitution2: "Single Substitution lookup 6 subtable" tildecomb.case
Substitution2: "Single Substitution lookup 4 subtable" tildecomb.case
Substitution2: "Single Substitution lookup 3 subtable" tildecomb.case
Substitution2: "'aalt' Access All Alternates lookup 0 subtable" tildecomb.case
EndChar

StartChar: zero.alt1
Encoding: 1114137 -1 367
Width: 654
Flags: W
HStem: -12 75<223.128 380.471> 605 75<288.162 449.161>
VStem: 65 93<173.422 421.619> 514 93<247.421 501.848>
DStem2: 167 172 205 98 0.592656 0.805456<0 465.738>
LayerCount: 2
Fore
SplineSet
302 63 m 0
 430.085972371 63 514 201.14148888 514 412 c 0
 514 446.96217657 510.217393019 478.254652508 503 503 c 1
 205 98 l 1
 229.07770354 74.9255341073 262.128469495 63 302 63 c 0
371 605 m 0
 242.047546626 605 158 468.077470989 158 258 c 0
 158 224.833125519 161.029962593 195.880149626 167 172 c 1
 462 574 l 1
 439.191577978 594.825080976 409.323267296 605 371 605 c 0
65 254 m 0
 65 510.976190953 189.982394014 680 380 680 c 0
 523.954720288 680 607 583.052867297 607 415 c 0
 607 157.992038163 481.994145238 -12 293 -12 c 0
 149 -12 65 86 65 254 c 0
EndSplineSet
Substitution2: "'zero' Slashed Zero lookup 0-1" zero
Substitution2: "'aalt' Access All Alternates lookup 0 subtable" zero
Substitution2: "'tnum' Tabular Numbers lookup 14 subtable" zero
EndChar

StartChar: copyleft
Encoding: 127279 127279 368
Width: 814
Flags: W
HStem: -12 62<312.267 519.733> 150 59<349.591 472.572> 473 58<354.841 473.778> 618 62<312.267 519.733>
VStem: 70 62<230.267 437.733> 512 76<251.291 430.969> 700 62<230.267 437.733>
LayerCount: 2
Fore
SplineSet
588 342 m 0
 588 220.31016124 524.281416376 150 414 150 c 0
 346.574361044 150 293.818622398 178.325228803 265 230 c 1
 331 254 l 1
 346.099753533 224.80714317 375.255150935 209 414 209 c 0
 475.947378753 209 512 257.928557406 512 342 c 0
 512 424.938785977 476.045809357 473 414 473 c 0
 377.559907199 473 350.798338297 456.608539048 334 424 c 1
 267 449 l 1
 295.059781817 502.11315844 346.14017238 531 412 531 c 0
 521.941805939 531 588 460.062507514 588 342 c 0
132 334 m 0
 132 176 258 50 416 50 c 0
 574 50 700 176 700 334 c 0
 700 492 574 618 416 618 c 0
 258 618 132 492 132 334 c 0
762 334 m 0
 762 143 607 -12 416 -12 c 0
 225 -12 70 143 70 334 c 0
 70 525 225 680 416 680 c 0
 607 680 762 525 762 334 c 0
EndSplineSet
EndChar

StartChar: f_i
Encoding: 64257 64257 369
Width: 527
Flags: W
HStem: 0 21G<37 127.252 303 393.234> 428 68<59 128 228 394> 591 125<439.2 533.631> 635 71<265.641 359>
VStem: 37 86<0 86> 303 86<0 86> 424 125<606.2 700.631>
DStem2: 37 0 123 0 0.207912 0.978148<17.8804 437.567 524.872 658.745> 303 0 389 0 0.207912 0.978148<17.8804 437.567>
LayerCount: 2
Fore
SplineSet
549 653 m 0xee
 549 618.77750275 520.774473012 591 486 591 c 0
 452 591 424 619 424 653 c 0
 424 687.774473012 451.77750275 716 486 716 c 0
 521 716 549 688 549 653 c 0xee
303 0 m 1
 394 428 l 1
 214 428 l 1
 123 0 l 1
 37 0 l 1
 128 428 l 1
 44 428 l 1
 59 496 l 1
 142 496 l 1
 154 549 l 2
 183.028875752 677.127451594 214.108243144 706 323 706 c 2
 374 706 l 1
 359 635 l 1
 335 635 l 2xde
 275.083295278 635 256.018114118 620.07942344 243 563 c 2
 228 496 l 1
 494 496 l 1
 389 0 l 1
 303 0 l 1
EndSplineSet
LCarets2: 1 302
Ligature2: "'liga' Standard Ligatures lookup 0-1" f i
EndChar

StartChar: f_f
Encoding: 64256 64256 370
Width: 586
Flags: W
HStem: 0 21G<37 127.252 303 393.252> 428 68<59 128 228 394 494 581> 635 71<265.641 359 531.641 625>
VStem: 37 86<0 86> 303 86<0 86>
DStem2: 37 0 123 0 0.207912 0.978148<17.8804 437.567 524.872 658.745> 303 0 389 0 0.207912 0.978148<17.8804 437.567 524.872 658.745>
LayerCount: 2
Fore
SplineSet
303 0 m 1
 394 428 l 1
 214 428 l 1
 123 0 l 1
 37 0 l 1
 128 428 l 1
 44 428 l 1
 59 496 l 1
 142 496 l 1
 154 549 l 2
 183.028875752 677.127451594 214.108243144 706 323 706 c 2
 374 706 l 1
 359 635 l 1
 335 635 l 2
 275.083295278 635 256.018114118 620.07942344 243 563 c 2
 228 496 l 1
 408 496 l 1
 420 549 l 2
 449.028875752 677.127451594 480.108243144 706 589 706 c 2
 640 706 l 1
 625 635 l 1
 601 635 l 2
 541.083295278 635 522.018114118 620.07942344 509 563 c 2
 494 496 l 1
 596 496 l 1
 581 428 l 1
 480 428 l 1
 389 0 l 1
 303 0 l 1
EndSplineSet
LCarets2: 1 302
Ligature2: "'liga' Standard Ligatures lookup 0-1" f f
EndChar

StartChar: f_f_i
Encoding: 64259 64259 371
Width: 793
Flags: W
HStem: 0 21G<37 127.252 303 393.252 569 659.234> 428 68<59 128 228 394 494 660> 591 125<705.2 799.631> 635 71<265.641 359 531.641 625>
VStem: 37 86<0 86> 303 86<0 86> 569 86<0 86> 690 125<606.2 700.631>
DStem2: 37 0 123 0 0.207912 0.978148<17.8804 437.567 524.872 658.745> 303 0 389 0 0.207912 0.978148<17.8804 437.567 524.872 658.745> 569 0 655 0 0.207912 0.978148<17.8804 437.567>
LayerCount: 2
Fore
SplineSet
815 653 m 0xef
 815 618.77750275 786.774473012 591 752 591 c 0
 718 591 690 619 690 653 c 0
 690 687.774473012 717.77750275 716 752 716 c 0
 787 716 815 688 815 653 c 0xef
569 0 m 1
 660 428 l 1
 480 428 l 1
 389 0 l 1
 303 0 l 1
 394 428 l 1
 214 428 l 1
 123 0 l 1
 37 0 l 1
 128 428 l 1
 44 428 l 1
 59 496 l 1
 142 496 l 1
 154 549 l 2
 183.028875752 677.127451594 214.108243144 706 323 706 c 2
 374 706 l 1
 359 635 l 1
 335 635 l 2
 275.083295278 635 256.018114118 620.07942344 243 563 c 2
 228 496 l 1
 408 496 l 1
 420 549 l 2
 449.028875752 677.127451594 480.108243144 706 589 706 c 2
 640 706 l 1
 625 635 l 1
 601 635 l 2xdf
 541.083295278 635 522.018114118 620.07942344 509 563 c 2
 494 496 l 1
 760 496 l 1
 655 0 l 1
 569 0 l 1
EndSplineSet
LCarets2: 2 304 568
Ligature2: "'liga' Standard Ligatures lookup 0-1" f f i
EndChar

StartChar: f_f_l
Encoding: 64260 64260 373
Width: 845
Flags: W
HStem: 0 75<705.364 768> 428 68<59 128 228 394 494 581> 635 71<265.641 359 531.641 625> 648 20G<730.764 821>
VStem: 37 86<0 86> 303 86<0 86> 613 91<42.5681 191.188> 735 86<582 668>
DStem2: 37 0 123 0 0.207912 0.978148<17.8804 437.567 524.872 658.745> 303 0 389 0 0.207912 0.978148<17.8804 437.567 524.872 658.745> 593.43 0 679.242 0 0.207912 0.978148<124.761 682.837>
LayerCount: 2
Fore
SplineSet
303 0 m 1xef
 394 428 l 1
 214 428 l 1
 123 0 l 1
 37 0 l 1
 128 428 l 1
 44 428 l 1
 59 496 l 1
 142 496 l 1
 154 549 l 2
 183.028875752 677.127451594 214.108243144 706 323 706 c 2
 374 706 l 1
 359 635 l 1
 335 635 l 2
 275.083295278 635 256.018114118 620.07942344 243 563 c 2
 228 496 l 1
 408 496 l 1
 420 549 l 2
 449.028875752 677.127451594 480.108243144 706 589 706 c 2
 640 706 l 1
 625 635 l 1
 601 635 l 2
 541.083295278 635 522.018114118 620.07942344 509 563 c 2
 494 496 l 1
 596 496 l 1
 581 428 l 1
 480 428 l 1
 389 0 l 1
 303 0 l 1xef
704 104 m 0
 704 83.0464824304 715.93099119 75 747 75 c 2
 784 75 l 1
 768 0 l 1
 712 0 l 2
 639.798346096 0 613 18.1362544289 613 67 c 0
 613 86.2336991531 615.292451256 105.228295276 620 125 c 2
 735 668 l 1
 821 668 l 1xdf
 709 140 l 1
 704 105 704 105 704 104 c 0
EndSplineSet
LCarets2: 2 302 592
Ligature2: "'liga' Standard Ligatures lookup 0-1" f f l
EndChar

StartChar: dong
Encoding: 8363 8363 374
Width: 602
Flags: W
HStem: -129 67<-13 476> -12 72<161.924 295.573> 0 21G<359.361 442.52> 432 72<210.072 348.665> 548 67<308 456 556 623> 648 20G<476.849 567>
VStem: 27 90<110.459 318.19> 398 44<0 281>
DStem2: 336.852 -12 421.968 -12 0.207912 0.978148<419.16 572.535 658.862 695.11>
LayerCount: 2
Fore
SplineSet
-27 -129 m 1x9f
 -13 -62 l 1
 490 -62 l 1
 476 -129 l 1
 -27 -129 l 1x9f
EndSplineSet
Refer: 318 273 N 1 0 0 1 0 0 2
EndChar

StartChar: uni0237
Encoding: 567 567 410
Width: 258
Flags: W
HStem: -161 75<-138 -3.54934> 476 20G<128.735 219>
VStem: 133 86<410 496>
DStem2: -6.98484 -161 79.0779 -161 0.207912 0.978148<88.9287 671.747>
AnchorPoint: "Anchor-1" 176 496 basechar 0
LayerCount: 2
Fore
SplineSet
-85 -161 m 0
 -103.633357109 -161 -111.409469465 -160.774605439 -154 -159 c 1
 -138 -86 l 1
 -106 -86 l 2
 -6.11611070341 -86 12.9801978651 -72.0990106744 30 13 c 1
 133 496 l 1
 219 496 l 1
 115 8 l 1
 86.0049360759 -133.975830249 54.0236700983 -161 -85 -161 c 0
EndSplineSet
EndChar

StartChar: uni2010
Encoding: 8208 8208 425
Width: 332
Flags: W
HStem: 208 81<49 283>
VStem: 31 270
LayerCount: 2
Fore
SplineSet
31 208 m 1
 49 289 l 1
 301 289 l 1
 283 208 l 1
 31 208 l 1
EndSplineSet
EndChar

StartChar: Ldot
Encoding: 319 319 432
Width: 541
HStem: 0 81<127 469> 250 128<315.386 413.447> 648 20G<151.749 252>
VStem: 156 96<572 668> 300 129<266.146 361.603>
DStem2: 14 0 109.783 0 0.207912 0.978148<102.724 682.926>
LayerCount: 2
Fore
SplineSet
429 314 m 0
 429 277.284171684 401.289513134 250 364 250 c 0
 328 250 300 278 300 314 c 0
 300 350 328 378 364 378 c 0
 400.781506663 378 429 350.21563733 429 314 c 0
EndSplineSet
Refer: 26 76 N 1 0 0 1 0 0 3
EndChar

StartChar: ldot
Encoding: 320 320 433
Width: 370
Flags: W
HStem: 0 75<119.364 182> 250 129<247.747 343.07> 648 20G<144.764 235>
VStem: 27 90.9969<77.0176 189.5> 149 86<582 668> 231 129<266.93 362.253>
DStem2: 7.43043 0 93.2421 0 0.207912 0.978148<126.202 682.837>
LayerCount: 2
Fore
SplineSet
360 315 m 0xf4
 360 279 331 250 295 250 c 0
 259.776654889 250 231 279.226290121 231 315 c 0
 231 350 260 379 295 379 c 0
 330.773709879 379 360 350.223345111 360 315 c 0xf4
EndSplineSet
Refer: 52 108 N 1 0 0 1 0 0 2
EndChar

StartChar: uni030C.alt
Encoding: 1114138 -1 455
Width: 0
GlyphClass: 1
Flags: W
HStem: 495 183<48.6391 69>
VStem: 46 74<575.156 674.688>
LayerCount: 2
Fore
SplineSet
82 678 m 0
 104 678 120 662 120 640 c 0
 120 631 115 623 111 609 c 1
 69 495 l 1
 20 495 l 1
 22 506 38 626 46 649 c 0
 49.9879108006 665.948620903 64.9482434733 678 82 678 c 0
EndSplineSet
EndChar

StartChar: uni031B
Encoding: 795 795 456
Width: 324
Flags: W
HStem: 427 74<0 187.986>
VStem: 205 79<517.336 616>
LayerCount: 2
Fore
SplineSet
134 501 m 2
 181.012987901 501 205 527.014083544 205 578 c 2
 205 616 l 1
 284 616 l 1
 284 575 l 2
 284 476.342559308 237.32460606 427 144 427 c 2
 0 427 l 1
 0 501 l 1
 134 501 l 2
EndSplineSet
EndChar

StartChar: Ohorn
Encoding: 416 416 457
Width: 727
Flags: W
HStem: -12 79<219.164 400.647> 591 79<311.056 491.412 608 686.499>
VStem: 34 98<161.16 389.154> 579 96<269.029 497.904> 713 79<695.792 765>
AnchorPoint: "Anchor-0" 311 0 basechar 0
AnchorPoint: "Anchor-1" 438 658 basechar 0
AnchorPoint: "Anchor-2" 589 10 basechar 0
LayerCount: 2
Fore
SplineSet
675 405 m 0
 675 173.727570038 505.751854641 -12 295 -12 c 0
 136.909079554 -12 34 92.0919425373 34 252 c 0
 34 483.989528887 203.990430539 670 416 670 c 2
 629 670 l 2
 675.818357648 670 703.964878349 695.800977309 713 747 c 1
 717 765 l 1
 796 765 l 1
 792 744 l 2
 774.900939794 649.452255332 713.391195525 599.977026246 608 596 c 1
 651.880199989 550.125245466 675 484.216561853 675 405 c 0
402 591 m 0
 251.862361033 591 132 445.833362749 132 264 c 0
 132 142.84176205 200.142090776 67 309 67 c 0
 458.408750239 67 579 213.496036747 579 395 c 0
 579 515.85032382 511.135241409 591 402 591 c 0
EndSplineSet
EndChar

StartChar: ohorn
Encoding: 417 417 458
Width: 570
Flags: W
HStem: -12 74<168.173 309.915> 420 74<226.845 369.123 463 534.133>
VStem: 25 91<115.128 298.703> 419 92<184.76 367.399> 560 78<520.451 589>
AnchorPoint: "Anchor-0" 221 0 basechar 0
AnchorPoint: "Anchor-1" 321 486 basechar 0
AnchorPoint: "Anchor-2" 448 10 basechar 0
LayerCount: 2
Fore
SplineSet
300 420 m 0
 200.270134128 420 116 318.326251216 116 198 c 0
 116 115.474610698 163.576675695 62 237 62 c 0
 335 62 419 164 419 283 c 0
 419 365.44589592 371.613588427 420 300 420 c 0
25 187 m 0
 25 356.005226512 154.004885965 494 312 494 c 2
 475 494 l 2
 522.14946722 494 551.02839627 520.160912198 560 571 c 2
 563 589 l 1
 642 589 l 1
 638 568 l 1
 622.05626022 475.327012529 563.354741843 426.017737092 463 421 c 1
 491.853695093 398.116034926 511 350.250272659 511 301 c 0
 511 127.055552142 383.051121352 -12 223 -12 c 0
 102.803950471 -12 25 66.1968997159 25 187 c 0
EndSplineSet
EndChar

StartChar: Uhorn
Encoding: 431 431 459
Width: 710
Flags: W
HStem: -12 81<195.819 392.056> 648 20G<123.452 221>
VStem: 49 95<119.948 349.094> 127 94<574 668>
DStem2: 58 279 151 272 0.174069 0.984733<-58.0607 395.072> 501 272 596 279 0.174069 0.984733<-126.441 349.743>
AnchorPoint: "Anchor-0" 294 0 basechar 0
AnchorPoint: "Anchor-1" 415 668 basechar 0
AnchorPoint: "Anchor-2" 360 0 basechar 0
LayerCount: 2
Fore
SplineSet
596 279 m 2xe0
 560.012627137 77.0708522677 462.065298183 -12 276 -12 c 0
 120.220730435 -12 49 49.8082990996 49 185 c 0xe0
 49 212.833585096 51.9638008225 243.788838131 58 279 c 2
 127 668 l 1
 221 668 l 1xd0
 151 272 l 2
 146.209109203 243.254655216 144 221.794737247 144 204 c 0
 144 111.766970752 190.251686888 69 290 69 c 0
 410.758748047 69 475.94990205 131.719451481 501 272 c 2
 571 668 l 1
 634 668 l 2
 686.657861694 668 717.934386403 697.612879778 728 757 c 2
 731 775 l 1
 810 775 l 1
 807 754 l 1
 789.028290237 654.157167981 740.140436334 604.015779363 651 594 c 1
 596 279 l 2xe0
EndSplineSet
EndChar

StartChar: uhorn
Encoding: 432 432 460
Width: 564
Flags: W
HStem: -12 74<150.87 269.611> 0 21G<348.778 417.551> 477 20G<100.467 188>
VStem: 42 88<84.7475 269.156> 104 84<413 497> 351 63<0 39.4211> 571 74<527.291 599>
DStem2: 370 224 490 428 0.174835 0.984598<-108.521 227.541>
AnchorPoint: "Anchor-0" 217 0 basechar 0
AnchorPoint: "Anchor-1" 308 496 basechar 0
AnchorPoint: "Anchor-2" 414 0 basechar 0
LayerCount: 2
Fore
SplineSet
214 62 m 0xb6
 296.074089855 62 352.016227381 120.0937582 370 224 c 2
 418 497 l 1
 485 497 l 2
 532.166813123 497 561.035180326 525.197009827 571 581 c 2
 574 599 l 1
 649 599 l 1
 645 578 l 1
 627.058996927 477.33103831 582.304083239 434.019831516 490 428 c 1
 414 0 l 1
 351 0 l 1x76
 343 72 l 1
 300 16 244 -12 175 -12 c 0
 86.3355597825 -12 42 31.6688596354 42 119 c 0xb6
 42 137.334808288 44.0711125096 158.391118803 48 180 c 2
 104 497 l 1
 188 497 l 1xae
 136 200 l 1
 130.060277459 159.609886719 129.999974096 159.312390129 129.999974096 148.67517316 c 0
 129.999974096 148.454706693 130 148.229798641 130 148 c 0
 130 89.3209727153 156.685601257 62 214 62 c 0xb6
EndSplineSet
EndChar

StartChar: dotbelowcomb
Encoding: 803 803 545
Width: 205
Flags: W
HStem: -207 129<2.66907 97.3309>
VStem: -14 128<-190.07 -93.3863>
AnchorPoint: "Anchor-3" 50 -207 basemark 0
AnchorPoint: "Anchor-3" 90 0 mark 0
AnchorPoint: "Anchor-0" 90 0 mark 0
LayerCount: 2
Fore
SplineSet
114 -142 m 0
 114 -177.773709879 85.2233451115 -207 50 -207 c 0
 14.7766548885 -207 -14 -177.773709879 -14 -142 c 0
 -14 -106 14 -78 50 -78 c 0
 86 -78 114 -106 114 -142 c 0
EndSplineSet
EndChar

StartChar: hookabovecomb
Encoding: 777 777 546
Width: 157
Flags: W
HStem: 678 21G<67.3333 72.1633> 686 58<72.7416 144.318>
VStem: 146 73<612.38 682.057>
AnchorPoint: "Anchor-4" 156 744 basemark 0
AnchorPoint: "Anchor-4" 67 496 mark 0
AnchorPoint: "Anchor-1" 67 496 mark 0
LayerCount: 2
Fore
SplineSet
75 571 m 1x60
 130.800786849 611.582390436 146 629.350484683 146 654 c 0
 146 673.675614355 129.43910679 686 103 686 c 0x60
 92.7958328948 686 80.3266673683 683.442222456 64 678 c 1xa0
 73 732 l 1
 96.6144516377 739.871483879 119.665333312 744 140 744 c 0
 186.735608994 744 219 716.228119134 219 676 c 0
 219 635.603378335 200.526201583 606.651903204 152 571 c 1
 75 571 l 1x60
EndSplineSet
EndChar

StartChar: longs
Encoding: 383 383 547
Width: 320
Flags: W
HStem: 0 21G<37 127.263> 428 68<59 128> 635 71<264.569 359>
VStem: 37 86<0 86>
DStem2: 37 0 123 0 0.207912 0.978148<17.8804 437.567 506.992 659.337>
AnchorPoint: "Anchor-1" 170 668 basechar 0
LayerCount: 2
Fore
SplineSet
37 0 m 1
 128 428 l 1
 44 428 l 1
 59 496 l 1
 142 496 l 1
 154 549 l 1
 184.965912517 679.855952895 209.875369707 702.996691231 323 706 c 1
 374 706 l 1
 359 635 l 1
 335 635 l 2
 274.944427141 635 256.987065028 620.946412259 243 563 c 1
 123 0 l 1
 37 0 l 1
EndSplineSet
EndChar

StartChar: uniFFFD
Encoding: 65533 65533 548
Width: 523
Flags: W
HStem: 0 21<77 447> 680 20<76 447>
VStem: 48 21<49 650> 455 20<47 652>
DStem2: 76 680 69 650 0.513698 -0.857971<22.1432 360.147 396.696 737.787> 69 49 77 21 0.513896 0.857853<0 339.381 374.897 715.649>
LayerCount: 2
Fore
SplineSet
77 21 m 1
 447 21 l 1
 262 329 l 1
 77 21 l 1
69 49 m 1
 249 350 l 1
 69 650 l 1
 69 49 l 1
455 47 m 1
 455 652 l 1
 274 350 l 1
 455 47 l 1
261 371 m 1
 447 680 l 1
 76 680 l 1
 261 371 l 1
48 0 m 1
 48 700 l 1
 475 700 l 1
 475 0 l 1
 48 0 l 1
EndSplineSet
EndChar

StartChar: uni0256
Encoding: 598 598 577
Width: 574
Flags: W
HStem: -161 75<424.364 507> -12 72<161.924 295.573> 432 72<210.072 348.665> 648 20G<476.778 567>
VStem: 27 90<110.459 318.19> 331.998 91.0022<-92.6241 46.19> 481 86<582 668>
DStem2: 308.812 -161 398.242 -161 0.207912 0.978148<125.699 226.96 570.733 846.684>
AnchorPoint: "Anchor-1" 271 496 basechar 0
AnchorPoint: "Anchor-0" 225 0 basechar 0
LayerCount: 2
Fore
SplineSet
428 -21 m 2
 425.416198487 -34.7802747355 423 -52.1769038426 423 -57 c 0
 423 -77.9535175696 434.93099119 -86 466 -86 c 2
 523 -86 l 1
 507 -161 l 1
 431 -161 l 2
 358.798346096 -161 332 -142.863745571 332 -94 c 0
 332 -93.0404814865 331.997847618 -92.1474510453 331.997847618 -91.2931070801 c 0
 331.997847618 -76.5589105749 332.638034376 -73.3313023406 356 61 c 1
 317.128424849 11.1646472417 269.212510691 -12 205 -12 c 0
 96.7522572095 -12 27 70.2919888426 27 198 c 0
 27 372.659968356 131.728652684 504 271 504 c 0
 344.910401427 504 403.975712329 463.078934931 424 398 c 1
 481 668 l 1
 567 668 l 1
 428 -21 l 2
280 432 m 0
 186.978539784 432 117 331.969326566 117 199 c 0
 117 113.779690772 159.172563268 60 226 60 c 0
 324.031676248 60 398 155.040695054 398 281 c 0
 398 376.987288528 355.009934081 432 280 432 c 0
EndSplineSet
EndChar

StartChar: Eng
Encoding: 330 330 579
Width: 693
Flags: W
HStem: -161 74<352 442.778> 0 21G<14 114.271> 648 20G<151.749 299.481 596.749 697>
VStem: 14 96<0 96> 601 96<572 668>
DStem2: -20.2216 -161 75.7784 -161 0.207912 0.978148<184.556 773.543> 293 668 233 576 0.305795 -0.952097<69.2452 603.382> 426.88 -161 520.643 -161 0.207912 0.978148<75.752 164.576 260.264 847.086>
AnchorPoint: "Anchor-1" 436 668 basechar 0
AnchorPoint: "Anchor-0" 264 0 basechar 0
LayerCount: 2
Fore
SplineSet
456 -24 m 10
 461 0 l 25
 418 0 l 1
 233 576 l 1
 110 0 l 1
 14 0 l 1
 156 668 l 1
 293 668 l 1
 479 94 l 1
 601 668 l 1
 697 668 l 9
 547 -37 l 2
 525.903716578 -137.458492486 498.565191723 -161 403 -161 c 2
 336 -161 l 1
 352 -87 l 1
 391 -87 l 2
 434.342232247 -87 445.08569515 -76.5871051858 456 -24 c 10
EndSplineSet
EndChar

StartChar: eng
Encoding: 331 331 580
Width: 550
Flags: W
HStem: -161 74<225 312.968> 0 21G<8 98.2023> 430 74<251.57 384.208> 476 20G<108.766 178.739>
VStem: 8 86<0 86> 113 64<462.933 496> 402 88<231.227 412.364>
DStem2: -26.2216 -161 59.7784 -161 0.207912 0.978148<182.477 563.115> 299.667 -161 383.643 -161 0.207912 0.978148<76.8616 522.198>
AnchorPoint: "Anchor-1" 328 496 basechar 0
AnchorPoint: "Anchor-0" 212 0 basechar 0
LayerCount: 2
Fore
SplineSet
481 287 m 8xee
 465 213 435 79 410 -37 c 0
 388.903716578 -137.458492486 361.565191723 -161 266 -161 c 2
 209 -161 l 1
 225 -87 l 1
 264 -87 l 2
 306.914123515 -87 317.977912092 -76.1064235546 329 -23 c 2
 393 279 l 2
 399.053691544 309.268457722 402 333.166292973 402 352 c 0
 402 407.223138054 377.763082801 430 319 430 c 0xee
 231.652847218 430 171.905172919 369.553522493 148 257 c 2
 94 0 l 1
 8 0 l 1
 113 496 l 1
 177 496 l 1xde
 183 427 l 1
 224.045654335 479.05790306 280.084391617 504 356 504 c 0
 444.345655624 504 490 456.642135311 490 365 c 0
 490 342 487 316 481 287 c 8xee
EndSplineSet
EndChar

StartChar: uni019D
Encoding: 413 413 581
Width: 693
Flags: W
HStem: -161 74<-95 -4.22174> 0 21G<411.576 559.251> 648 20G<151.751 299.481 596.749 697>
VStem: 601 96<572 668>
DStem2: -20.1202 -161 73.643 -161 0.207912 0.978148<75.4929 773.521> 293 668 233 576 0.305795 -0.952097<69.2452 603.382> 424.798 -161 520.778 -161 0.207912 0.978148<260.697 847.519>
AnchorPoint: "Anchor-1" 436 668 basechar 0
AnchorPoint: "Anchor-0" 264 0 basechar 0
LayerCount: 2
Fore
SplineSet
233 576 m 9
 100 -37 l 2
 78.033496359 -137.846221261 51.1452371782 -161 -44 -161 c 2
 -111 -161 l 1
 -95 -87 l 1
 -56 -87 l 2
 -12.6577677534 -87 -1.91430484988 -76.5871051858 9 -24 c 2
 156 668 l 1
 293 668 l 1
 479 94 l 1
 601 668 l 1
 697 668 l 1
 555 0 l 1
 418 0 l 1
 233 576 l 9
EndSplineSet
EndChar

StartChar: uni019E
Encoding: 414 414 582
Width: 550
Flags: W
HStem: -161 21G<298 387.375> 0 21G<8 98.2023> 430 74<251.57 384.208> 476 20G<108.766 178.739>
VStem: 8 86<0 86> 113 64<462.933 496> 298 85<-161 -76> 402 88<230.938 412.364>
DStem2: -26.2216 -161 59.7784 -161 0.207912 0.978148<182.477 563.115> 298 -161 383 -161 0.207912 0.978148<17.6725 522.545>
AnchorPoint: "Anchor-1" 328 496 basechar 0
AnchorPoint: "Anchor-0" 212 0 basechar 0
LayerCount: 2
Fore
SplineSet
319 430 m 0xef
 231.652847218 430 171.905172919 369.553522493 148 257 c 2
 94 0 l 1
 8 0 l 1
 113 496 l 1
 177 496 l 1xdf
 183 427 l 1
 224.045654335 479.05790306 280.084391617 504 356 504 c 0
 444.345655624 504 490 456.642135311 490 365 c 0
 490 342 487 316 481 287 c 2
 383 -161 l 1
 298 -161 l 1
 393 279 l 2
 399.053691544 309.268457722 402 333.166292973 402 352 c 0
 402 407.223138054 377.763082801 430 319 430 c 0xef
EndSplineSet
EndChar

StartChar: uni0272
Encoding: 626 626 583
Width: 550
Flags: W
HStem: -161 74<-104 -16.0318> 0 21G<334 423.321> 430 74<251.57 384.208> 476 20G<108.645 178.739>
VStem: 113 64<463.85 496> 334 85<0 85> 402 88<229.875 412.364>
DStem2: -29.3328 -161 54.643 -161 0.207912 0.978148<76.8616 552.47> 299.778 -161 384.778 -161 0.207912 0.978148<182.269 522.175>
AnchorPoint: "Anchor-1" 328 496 basechar 0
LayerCount: 2
Fore
SplineSet
148 257 m 9xea
 81 -37 l 1
 59.9037165779 -137.458492486 32.5651917231 -161 -63 -161 c 2
 -120 -161 l 1
 -104 -87 l 1
 -65 -87 l 2
 -22.0858764849 -87 -11.0220879076 -76.1064235546 0 -23 c 2
 113 496 l 1
 177 496 l 1xda
 183 427 l 1
 224.045654335 479.05790306 280.084391617 504 356 504 c 0
 444.345655624 504 490 456.642135311 490 365 c 0xea
 490 342 487 316 481 287 c 2
 419 0 l 1
 334 0 l 1xec
 393 279 l 2
 399.053691544 309.268457722 402 333.166292973 402 352 c 0
 402 407.223138054 377.763082801 430 319 430 c 0
 231.652847218 430 171.905172919 369.553522493 148 257 c 9xea
EndSplineSet
EndChar

StartChar: uni01EA
Encoding: 490 490 584
Width: 728
HStem: -173 57<300.423 373.125> -12 79<241.282 297> 600 80<321.856 506.259>
VStem: 55 95<163.244 403.134> 222 77<-112.438 -52.0301> 596 95<267.873 503.201>
LayerCount: 2
Fore
SplineSet
299 -89 m 0
 299 -104.902563943 315.851662161 -116 340 -116 c 0
 353.16718427 -116 368.199378876 -112.925232922 384 -107 c 1
 373 -161 l 1
 346.767336641 -169.071588726 324.833707027 -173 306 -173 c 0
 254.798333662 -173 222 -146.839424341 222 -106 c 0
 222 -69.046653196 249.940553655 -34.0278259489 297 -12 c 1
 150.037245193 -5.0017735806 55 104.958675403 55 268 c 0
 55 507.89418948 212.902903827 680 433 680 c 0
 588.177462974 680 691 568.808186705 691 401 c 0
 691 202.61872413 576.670332523 41.9175831306 405 -1 c 1
 336.302135523 -25.8905306074 299 -56.8583412307 299 -89 c 0
150 269 m 0
 150 146.82280147 219.153417115 67 325 67 c 0
 480.045183361 67 596 209.055347322 596 399 c 0
 596 521.099449479 526.912950788 600 420 600 c 0
 264.099684946 600 150 460.122238084 150 269 c 0
EndSplineSet
EndChar

StartChar: uni01EB
Encoding: 491 491 585
Width: 547
HStem: -173 57<200.423 273.125> 430 74<211.109 367.851>
VStem: 27 88<112.473 316.186> 122 77<-112.438 -50.7892> 413 89<184.037 384.821>
LayerCount: 2
Fore
SplineSet
199 -89 m 0
 199 -104.902563943 215.851662161 -116 240 -116 c 0
 253.16718427 -116 268.199378876 -112.925232922 284 -107 c 1
 273 -161 l 1
 246.767336641 -169.071588726 224.833707027 -173 206 -173 c 0
 154.798333662 -173 122 -146.839424341 122 -106 c 0
 122 -67.846012634 151.196606522 -31.9117276841 200 -10 c 1
 90.8551839617 2.01594305009 27 79.1589109576 27 199 c 0
 27 376.958335343 141.962293264 504 303 504 c 0
 423.3764685 504 502 422.610816638 502 298 c 0
 502 154.648805924 422.709480013 34.9121116006 304 -1 c 1
 237.163770483 -25.9388916109 199 -57.9237659203 199 -89 c 0
115 198 m 0
 115 112.08194916 159.926454394 62 237 62 c 0
 339.179981104 62 413 162.244230205 413 301 c 0
 413 387 372 430 290 430 c 0
 186.32952068 430 115 335.437435441 115 198 c 0
EndSplineSet
EndChar
